<?xml version="1.0" standalone="no"?>
<!DOCTYPE svg PUBLIC "-//W3C//DTD SVG 1.1//EN" "http://www.w3.org/Graphics/SVG/1.1/DTD/svg11.dtd" >
<svg>
<metadata>
Created by FontForge 20090622 at Tue Feb  5 20:53:51 2013
 By root
Copyright (c) 2008 by Jos Buivenga. All rights reserved.
</metadata>
<defs>
<font id="MuseoSans-300Italic" horiz-adv-x="382" >
  <font-face 
    font-family="Museo Sans 300"
    font-weight="300"
    font-style="italic"
    font-stretch="normal"
    units-per-em="1000"
    panose-1="2 0 0 0 0 0 0 0 0 0"
    ascent="750"
    descent="-250"
    x-height="503"
    cap-height="703"
    bbox="-245 -210 1030 883"
    underline-thickness="50"
    underline-position="-50"
    unicode-range="U+0020-U+FB04"
  />
<missing-glyph horiz-adv-x="510" 
d="M-53 0v700h500v-700h-500zM197 395l170 255h-340zM227 350l170 -255v510zM-3 95l170 255l-170 255v-510zM27 50h340l-170 255z" />
    <glyph glyph-name="f_f" unicode="ff" horiz-adv-x="646" 
d="M373 0l87 445h-255l-87 -445h-68l87 445h-63l11 58h63l4 21q11 58 36.5 97.5t58 56.5t58 23.5t50.5 6.5l37 -2l-13 -61q-9 2 -23 2t-27.5 -2t-31 -10t-32 -21t-27.5 -37t-19 -56l-4 -18h256l4 21q11 58 36.5 97.5t58 56.5t58 23.5t50.5 6.5l37 -2l-13 -61q-9 2 -23 2
t-27.5 -2t-31 -10t-32 -21t-27.5 -37t-19 -56l-4 -18h129l-11 -58h-128l-87 -445h-68z" />
    <glyph glyph-name="fi" unicode="fi" horiz-adv-x="555" 
d="M347 0l86 445h-228l-87 -445h-68l87 445h-63l11 58h63l4 21q11 58 36.5 97.5t58 56.5t58 23.5t50.5 6.5l37 -2l-13 -61q-9 2 -23 2t-27.5 -2t-31 -10t-32 -21t-27.5 -37t-19 -56l-4 -18h298l-98 -503h-68zM464 618l18 85h73l-17 -85h-74z" />
    <glyph glyph-name="fl" unicode="fl" horiz-adv-x="570" 
d="M50 0l86 441h-63l11 58h63l5 26q11 57 36.5 96.5t58 56.5t58 23.5t50.5 6.5l37 -2l-13 -61q-9 2 -23 2t-27.5 -2t-31 -10t-32 -21t-27.5 -37t-19 -56l-5 -22h129l-11 -58h-128l-86 -441h-68zM362 89q0 17 4 36l113 578h68l-111 -569q-3 -16 -3 -31q0 -20 8 -30.5
t17 -12.5t22 -2l15 1l-13 -61q-11 -2 -23 -2q-38 0 -67.5 20.5t-29.5 72.5z" />
    <glyph glyph-name="f_f_i" unicode="ffi" horiz-adv-x="878" 
d="M50 0l87 445h-63l11 58h63l4 21q11 58 36.5 97.5t58 56.5t58 23.5t50.5 6.5l37 -2l-13 -61q-9 2 -23 2t-27.5 -2t-31 -10t-32 -21t-27.5 -37t-19 -56l-4 -18h256l4 21q11 58 36.5 97.5t58 56.5t58 23.5t50.5 6.5l37 -2l-13 -61q-9 2 -23 2t-27.5 -2t-31 -10t-32 -21
t-27.5 -37t-19 -56l-4 -18h298l-98 -503h-68l86 445h-228l-87 -445h-68l87 445h-255l-87 -445h-68zM787 618l18 85h73l-17 -85h-74z" />
    <glyph glyph-name="f_f_l" unicode="ffl" horiz-adv-x="893" 
d="M372 0l87 445h-254l-87 -445h-68l87 445h-63l11 58h63l4 21q11 58 36.5 97.5t58 56.5t58 23.5t50.5 6.5l37 -2l-13 -61q-9 2 -23 2t-27.5 -2t-31 -10t-32 -21t-27.5 -37t-19 -56l-4 -18h255l4 21q11 58 36.5 97.5t58 56.5t58 23.5t50.5 6.5l37 -2l-13 -61q-9 2 -23 2
t-27.5 -2t-31 -10t-32 -21t-27.5 -37t-19 -56l-4 -18h129l-11 -58h-128l-87 -445h-68zM685 89q0 17 4 36l113 578h68l-111 -569q-3 -16 -3 -31q0 -20 8 -30.5t17 -12.5t22 -2l15 1l-13 -61q-11 -2 -23 -2q-38 0 -67.5 20.5t-29.5 72.5z" />
    <glyph glyph-name="f_j" unicode="fj" horiz-adv-x="555" 
d="M50 0l87 445h-63l11 58h63l4 21q11 58 36.5 97.5t58 56.5t58 23.5t50.5 6.5l37 -2l-13 -61q-9 2 -23 2t-27.5 -2t-31 -10t-32 -21t-27.5 -37t-19 -56l-4 -18h298l-101 -521q-11 -59 -36 -99.5t-56.5 -58t-56.5 -24t-51 -6.5l-40 3l12 59q8 -1 22 -1q18 0 35.5 4.5
t39 16.5t39 40t25.5 68l89 461h-229l-87 -445h-68zM464 618l17 85h73l-16 -85h-74z" />
    <glyph glyph-name=".notdef" horiz-adv-x="510" 
d="M-53 0v700h500v-700h-500zM197 395l170 255h-340zM227 350l170 -255v510zM-3 95l170 255l-170 255v-510zM27 50h340l-170 255z" />
    <glyph glyph-name=".null" horiz-adv-x="0" 
 />
    <glyph glyph-name="nonmarkingreturn" horiz-adv-x="333" 
 />
    <glyph glyph-name="space" unicode=" " horiz-adv-x="271" 
 />
    <glyph glyph-name="exclam" unicode="!" horiz-adv-x="309" 
d="M100 184l98 519h71l-105 -519h-64zM57 0l16 79h79l-16 -79h-79z" />
    <glyph glyph-name="quotedbl" unicode="&#x22;" horiz-adv-x="316" 
d="M237 544l32 169h59l-33 -169h-58zM115 544l33 169h58l-32 -169h-59z" />
    <glyph glyph-name="numbersign" unicode="#" horiz-adv-x="723" 
d="M94 0l73 195h-141l21 56h140l73 196h-140l20 56h140l74 200h63l-74 -200h173l74 200h62l-74 -200h139l-20 -56h-139l-73 -196h138l-20 -56h-139l-72 -195h-63l73 195h-173l-72 -195h-63zM250 251h172l73 196h-173z" />
    <glyph glyph-name="dollar" unicode="$" horiz-adv-x="558" 
d="M20 78l47 49q2 -3 7 -8t21 -17.5t34.5 -22t48 -17.5t61.5 -8q66 0 116.5 40.5t50.5 103.5q0 39 -30 68.5t-73 50t-85.5 43t-72.5 60t-30 88.5q0 78 64.5 138.5t158.5 67.5l19 93h56l-18 -94q46 -5 84 -21.5t53 -30.5l15 -14l-41 -53q-6 6 -17.5 15t-49.5 24.5t-79 15.5
q-73 0 -123.5 -44t-50.5 -97q0 -35 30 -62t73 -47.5t85.5 -44t72.5 -63t30 -93.5q0 -82 -64 -143.5t-160 -66.5l-17 -91h-56l17 94q-54 6 -98 27.5t-61 40.5z" />
    <glyph glyph-name="percent" unicode="%" horiz-adv-x="735" 
d="M232 437q-57 0 -90.5 33.5t-33.5 89.5q0 59 50 107t113 48q55 0 89 -34t34 -88q0 -61 -49.5 -108.5t-112.5 -47.5zM9 0l664 703h78l-666 -703h-76zM236 493q39 0 68.5 30t29.5 70q0 28 -18.5 47t-48.5 19q-39 0 -69 -30.5t-30 -69.5q0 -28 19 -47t49 -19zM362 111
q0 59 50 107t113 48q56 0 89.5 -34t33.5 -88q0 -61 -49.5 -108.5t-112.5 -47.5q-56 0 -90 33.5t-34 89.5zM422 110q0 -29 19 -47.5t49 -18.5q39 0 68.5 29.5t29.5 69.5q0 29 -18.5 48t-48.5 19q-38 0 -68.5 -30.5t-30.5 -69.5z" />
    <glyph glyph-name="ampersand" unicode="&#x26;" horiz-adv-x="673" 
d="M37 167q0 71 47.5 132t121.5 80v2q-3 1 -8 3.5t-17 12t-21.5 22t-17.5 35.5t-8 51q0 92 68.5 151t170.5 59q20 0 41.5 -3.5t33.5 -6.5l11 -3l-28 -55q-33 7 -58 7q-69 0 -118.5 -41.5t-49.5 -108.5q0 -98 130 -98h148l20 99h68l-19 -99h95l-12 -62h-95l-21 -103
q-51 -253 -270 -253q-100 0 -156 49t-56 130zM109 169q0 -51 37.5 -83.5t103.5 -32.5q163 0 201 190l20 101h-148q-89 0 -151.5 -46t-62.5 -129z" />
    <glyph glyph-name="quotesingle" unicode="'" horiz-adv-x="196" 
d="M115 544l33 169h59l-32 -169h-60z" />
    <glyph glyph-name="parenleft" unicode="(" horiz-adv-x="287" 
d="M119 -95q-49 126 -49 266q0 311 204 559h66q-207 -261 -207 -561q0 -141 47 -264h-61z" />
    <glyph glyph-name="parenright" unicode=")" horiz-adv-x="288" 
d="M20 -95h-66q207 261 207 561q0 141 -47 264h61q49 -126 49 -266q0 -311 -204 -559z" />
    <glyph glyph-name="asterisk" unicode="*" horiz-adv-x="467" 
d="M153 337l-49 39l118 122v2l-135 41l31 61l134 -53l24 154h68l-37 -154l156 52l9 -63l-158 -44v-2l69 -118l-56 -38l-62 127h-2z" />
    <glyph glyph-name="plus" unicode="+" horiz-adv-x="679" 
d="M251 0l50 255h-231l11 58h230l51 255h61l-50 -255h230l-11 -58h-230l-50 -255h-61z" />
    <glyph glyph-name="comma" unicode="," horiz-adv-x="248" 
d="M-38 -97l93 179h77l-109 -179h-61z" />
    <glyph glyph-name="hyphen" unicode="-" horiz-adv-x="488" 
d="M93 253l11 62h284l-12 -62h-283z" />
    <glyph glyph-name="period" unicode="." horiz-adv-x="243" 
d="M25 0l16 83h81l-16 -83h-81z" />
    <glyph glyph-name="slash" unicode="/" horiz-adv-x="393" 
d="M42 -42h-68l406 784h68z" />
    <glyph glyph-name="zero" unicode="0" horiz-adv-x="630" 
d="M67 215q0 58 10 121.5t34 132t59 122.5t91 89t124 35q198 0 198 -228q0 -58 -9.5 -121.5t-33.5 -132t-59 -122t-91 -88.5t-125 -35q-198 0 -198 227zM139 215q0 -162 128 -162q52 0 95 30.5t70 77.5t45.5 106.5t26 114.5t7.5 104q0 164 -128 164q-61 0 -110.5 -43
t-77 -110.5t-42 -140t-14.5 -141.5z" />
    <glyph glyph-name="one" unicode="1" horiz-adv-x="466" 
d="M2 0l11 62h158l99 509l9 39h-2q-10 -14 -44 -42l-87 -72l-38 49l192 158h65l-126 -641h155l-12 -62h-380z" />
    <glyph glyph-name="two" unicode="2" horiz-adv-x="567" 
d="M9 0q1 60 27.5 111t67 87.5t89 69l97 62t88.5 59.5t65 68.5t25 82.5q0 50 -32.5 79.5t-90.5 29.5q-29 0 -58 -10t-49.5 -23.5t-37 -27.5t-24.5 -24l-8 -10l-49 39q4 5 11 13t30.5 29t49 37.5t64.5 29.5t78 13q89 0 139.5 -46.5t50.5 -123.5q0 -69 -42 -126.5t-104 -98
t-125 -77.5t-113.5 -83.5t-61.5 -97.5h364l-12 -62h-439z" />
    <glyph glyph-name="three" unicode="3" horiz-adv-x="566" 
d="M4 84l47 48q2 -3 6.5 -8.5t20 -19t34 -23.5t48.5 -18.5t63 -8.5q73 0 131.5 53t58.5 129q0 58 -42.5 89t-108.5 31h-52l-9 41l215 206l44 39v2q-20 -3 -57 -3h-259l12 62h411l-9 -46l-256 -243q23 -1 46 -6.5t48.5 -19t44.5 -32.5t31.5 -50t12.5 -69q0 -100 -78 -174.5
t-184 -74.5q-43 0 -81 10t-62 24t-42 28t-26 24z" />
    <glyph glyph-name="four" unicode="4" horiz-adv-x="599" 
d="M16 195l9 45l429 463h81l-87 -447h100l-12 -61h-100l-38 -195h-69l38 195h-351zM117 256h262l57 294l16 66h-2l-6 -8q-6 -8 -17 -21.5t-21 -23.5z" />
    <glyph glyph-name="five" unicode="5" horiz-adv-x="565" 
d="M15 88l50 45l5.5 -8.5t16.5 -19t28.5 -24t42.5 -19t58 -8.5q80 0 144 58t64 140q0 58 -42 95t-109 37q-34 0 -67.5 -9.5t-50.5 -18.5l-17 -10l-43 16l104 341h342l-12 -62h-279l-56 -178l-14 -40h2q46 25 106 25q93 0 150.5 -54.5t57.5 -139.5q0 -110 -84.5 -188
t-195.5 -78q-42 0 -78 10.5t-58 25t-37.5 29t-21.5 25.5z" />
    <glyph glyph-name="six" unicode="6" horiz-adv-x="600" 
d="M275 -12q-99 0 -156 69t-57 184q0 52 15.5 114t47.5 126t76.5 116t108.5 85t136 33q38 0 71.5 -7.5t48.5 -14.5l15 -7l-35 -58q-41 22 -99 22q-103 0 -180 -83.5t-110 -198.5h2q32 38 82 60t102 22q87 0 138 -50.5t51 -134.5q0 -106 -72 -191.5t-185 -85.5zM274 53
q79 0 133.5 61.5t54.5 148.5q0 58 -35 91.5t-98 33.5q-67 0 -131 -46.5t-64 -113.5q0 -69 37.5 -122t102.5 -53z" />
    <glyph glyph-name="seven" unicode="7" horiz-adv-x="523" 
d="M32 0l397 576q12 17 24.5 33t19.5 24l7 8v2q-18 -2 -53 -2h-323l12 62h457l-9 -48l-454 -655h-78z" />
    <glyph glyph-name="eight" unicode="8" horiz-adv-x="609" 
d="M44 174q0 46 21.5 88t53.5 71t51.5 43t33.5 21q-66 49 -66 119q0 78 66.5 138.5t172.5 60.5q92 0 143 -42t51 -115q0 -37 -16.5 -76t-42 -70t-41 -46.5t-29.5 -27.5q79 -51 79 -127q0 -93 -78.5 -158t-186.5 -65q-93 0 -152.5 50t-59.5 136zM448 210q0 22 -10.5 40.5
t-33 34.5t-41.5 26.5t-54 27t-52 25.5q-18 -10 -37 -23.5t-44.5 -37.5t-42 -57.5t-16.5 -69.5q0 -57 40.5 -90.5t99.5 -33.5q74 0 132.5 44.5t58.5 113.5zM210 516q0 -18 8 -34.5t18 -28t32 -25t35.5 -20l43 -20.5l41.5 -20q112 93 112 186q0 45 -34 71t-91 26
q-71 0 -118 -40t-47 -95z" />
    <glyph glyph-name="nine" unicode="9" horiz-adv-x="600" 
d="M40 17l35 58q42 -22 100 -22q70 0 131 43t99 104.5t59 134.5h-2q-30 -36 -80 -59t-103 -23q-88 0 -139 50t-51 135q0 106 72.5 191.5t185.5 85.5q99 0 155.5 -69t56.5 -184q0 -52 -15.5 -114t-47.5 -126t-76.5 -116t-108.5 -85t-136 -33q-38 0 -71.5 7t-48.5 15zM290 315
q67 0 132.5 46.5t65.5 113.5q0 69 -38 122t-102 53q-79 0 -134 -61.5t-55 -148.5q0 -58 35 -91.5t96 -33.5z" />
    <glyph glyph-name="colon" unicode=":" horiz-adv-x="293" 
d="M130 420l16 83h81l-16 -83h-81zM48 0l16 83h81l-16 -83h-81z" />
    <glyph glyph-name="semicolon" unicode=";" horiz-adv-x="297" 
d="M136 420l16 83h81l-16 -83h-81zM-20 -97l92 179h78l-109 -179h-61z" />
    <glyph glyph-name="less" unicode="&#x3c;" horiz-adv-x="589" 
d="M46 259v50l452 202v-67l-367 -159v-2l367 -159v-67z" />
    <glyph glyph-name="equal" unicode="=" horiz-adv-x="687" 
d="M105 342v58h466v-58h-466zM105 168v58h466v-58h-466z" />
    <glyph glyph-name="greater" unicode="&#x3e;" horiz-adv-x="577" 
d="M73 57v67l367 159v2l-367 159v67l452 -202v-50z" />
    <glyph glyph-name="question" unicode="?" horiz-adv-x="477" 
d="M128 184l9 45q9 46 37 84.5t60.5 64.5l64 51.5t52.5 57.5t21 70q0 41 -29.5 67.5t-79.5 26.5q-32 0 -64.5 -10.5t-48.5 -21.5l-17 -11l-29 55q8 6 23 15t58.5 23.5t84.5 14.5q79 0 127 -42t48 -110q0 -49 -22 -89.5t-55 -68.5t-67 -53.5t-62 -57.5t-35 -68l-9 -43h-67z
M88 0l16 79h78l-16 -79h-78z" />
    <glyph glyph-name="at" unicode="@" horiz-adv-x="793" 
d="M47 175q0 113 61 214t159.5 160.5t205.5 59.5q115 0 167 -43.5t52 -114.5q0 -13 -4 -39l-60 -307h71l-11 -56h-259q-79 0 -127 46.5t-48 117.5q0 85 69.5 152.5t161.5 67.5h139q2 12 2 19q0 43 -37.5 70.5t-112.5 27.5q-142 0 -250.5 -113t-108.5 -260q0 -106 66.5 -174
t177.5 -68l-11 -59q-131 0 -217 85t-86 214zM324 214q0 -47 31 -78t82 -31h124l53 275h-122q-66 0 -117 -50.5t-51 -115.5z" />
    <glyph glyph-name="A" unicode="A" horiz-adv-x="613" 
d="M32 0h-75l392 703h76l121 -703h-70l-37 224h-283zM187 284h242l-42 255l-11 91h-2q-26 -58 -44 -91z" />
    <glyph glyph-name="B" unicode="B" horiz-adv-x="627" 
d="M44 0l137 703h226q51 0 84 -13q89 -35 89 -135q0 -64 -33.5 -112.5t-88.5 -71.5v-2q40 -14 63.5 -50.5t23.5 -87.5q0 -74 -38.5 -129.5t-100.5 -82.5q-45 -19 -100 -19h-262zM191 398h170q60 0 103.5 43t43.5 108q0 43 -26 67.5t-74 24.5h-170zM125 62h180q42 0 73 14
q43 20 69 61t26 94q0 50 -31 78.5t-84 28.5h-179z" />
    <glyph glyph-name="C" unicode="C" horiz-adv-x="727" 
d="M59 290q0 114 58.5 212.5t155 155.5t203.5 57q48 0 91.5 -9.5t71 -22.5t47.5 -26.5t29 -22.5l9 -10l-44 -49q-3 3 -8.5 8t-24.5 18t-40.5 23t-56.5 18t-72 8q-140 0 -243.5 -106.5t-103.5 -251.5q0 -105 63.5 -172t169.5 -67q63 0 124.5 23.5t91.5 46.5l30 23l34 -54
l-14 -11t-38 -25t-60 -32t-77.5 -25t-92.5 -11q-139 0 -221 84t-82 218z" />
    <glyph glyph-name="D" unicode="D" horiz-adv-x="738" 
d="M44 0l137 703h213q143 0 224 -71.5t81 -201.5q0 -180 -117.5 -305t-298.5 -125h-239zM124 62h151q152 0 252 104.5t100 259.5q0 103 -63.5 159t-175.5 56h-150z" />
    <glyph glyph-name="E" unicode="E" horiz-adv-x="568" 
d="M44 0l137 703h396l-13 -62h-326l-50 -256h267l-12 -62h-266l-52 -261h344l-11 -62h-414z" />
    <glyph glyph-name="F" unicode="F" horiz-adv-x="516" 
d="M44 0l137 703h370l-12 -62h-301l-51 -264h258l-12 -62h-258l-62 -315h-69z" />
    <glyph glyph-name="G" unicode="G" horiz-adv-x="757" 
d="M58 282q0 115 58 215t155.5 159t207.5 59q74 0 135 -20.5t86 -40.5l24 -20l-44 -50q-3 3 -8.5 7.5t-24.5 15.5t-40.5 20t-56 16t-70.5 7q-143 0 -246.5 -109t-103.5 -256q0 -104 63 -168t165 -64q62 0 123 27.5t91 54.5l29 27l23 112h-120l12 62h185l-65 -336h-64l11 54
l7 30h-2l-11 -10.5t-31.5 -23t-50.5 -29t-65.5 -23t-79.5 -10.5q-129 0 -210.5 82t-81.5 212z" />
    <glyph glyph-name="H" unicode="H" horiz-adv-x="750" 
d="M44 0l137 703h69l-62 -320h407l63 320h69l-137 -703h-70l63 321h-407l-63 -321h-69z" />
    <glyph glyph-name="I" unicode="I" horiz-adv-x="273" 
d="M44 0l137 703h69l-137 -703h-69z" />
    <glyph glyph-name="J" unicode="J" horiz-adv-x="518" 
d="M7 147q0 25 5 52l5 26h69l-4 -25q-5 -25 -5 -43q0 -104 104 -104q33 0 63 12.5t56.5 46.5t36.5 85l85 444h-171l12 62h240l-99 -513q-20 -104 -83 -153t-141 -49q-74 0 -123.5 39.5t-49.5 119.5z" />
    <glyph glyph-name="K" unicode="K" horiz-adv-x="600" 
d="M44 0l137 703h69l-59 -305h114l253 305h82l-279 -335v-2l153 -366h-75l-138 336h-122l-66 -336h-69z" />
    <glyph glyph-name="L" unicode="L" horiz-adv-x="510" 
d="M44 0l137 703h69l-125 -641h326l-13 -62h-394z" />
    <glyph glyph-name="M" unicode="M" horiz-adv-x="853" 
d="M21 0l193 703h70l103 -413l18 -86h2l51 86l265 413h73l-81 -703h-68l58 492q2 17 5.5 41.5t6.5 40.5t4 16h-2q-32 -62 -56 -98l-235 -361h-65l-96 361l-19 100h-2q-10 -62 -20 -100l-136 -492h-69z" />
    <glyph glyph-name="N" unicode="N" horiz-adv-x="747" 
d="M44 0l137 703h62l260 -506q8 -16 18 -39.5t15 -39.5l6 -16h2q5 58 12 95l99 506h69l-137 -703h-62l-260 506l-40 95h-2q-5 -58 -12 -95l-98 -506h-69z" />
    <glyph glyph-name="O" unicode="O" horiz-adv-x="822" 
d="M58 292q0 111 60.5 209.5t158 156t203.5 57.5q136 0 221 -83t85 -213q0 -113 -61 -213.5t-159 -159t-203 -58.5q-136 0 -220.5 85t-84.5 219zM129 294q0 -106 65.5 -173.5t169.5 -67.5q133 0 241.5 108.5t108.5 254.5q0 103 -65.5 168.5t-169.5 65.5q-135 0 -242.5 -106
t-107.5 -250z" />
    <glyph glyph-name="P" unicode="P" horiz-adv-x="600" 
d="M44 0l137 703h230q69 0 111 -24q83 -45 83 -148q0 -80 -42 -143t-109 -92q-49 -20 -102 -20h-185l-54 -276h-69zM179 338h166q46 0 82 16q48 22 77 67t29 107q0 54 -34 83.5t-96 29.5h-165z" />
    <glyph glyph-name="Q" unicode="Q" horiz-adv-x="834" 
d="M58 292q0 111 60.5 209.5t158.5 156t204 57.5q136 0 220.5 -83t84.5 -213q0 -178 -139 -309l68 -85l-46 -41l-68 87q-110 -83 -237 -83q-136 0 -221 85t-85 219zM130 294q0 -106 65.5 -173.5t168.5 -67.5q105 0 196 69l-70 89l46 41l70 -91q108 110 108 255
q0 103 -65 168.5t-169 65.5q-135 0 -242.5 -106t-107.5 -250z" />
    <glyph glyph-name="R" unicode="R" horiz-adv-x="626" 
d="M44 0l137 703h231q61 0 98 -19q83 -40 83 -142q0 -83 -49.5 -147t-128.5 -82v-2q5 -9 12 -29l100 -282h-74l-103 296h-179l-57 -296h-70zM183 358h163q74 0 125 49.5t51 127.5q0 50 -31.5 78t-86.5 28h-166z" />
    <glyph glyph-name="S" unicode="S" horiz-adv-x="538" 
d="M10 78l46 49q2 -3 7 -8t21 -17.5t34.5 -22t48 -17.5t61.5 -8q66 0 116.5 40.5t50.5 103.5q0 39 -30 68.5t-72.5 50l-85.5 43t-73 60t-30 88.5q0 83 72 145t173 62q57 0 103.5 -17t65.5 -34l18 -17l-41 -53q-6 6 -17.5 15t-49 24.5t-78.5 15.5q-74 0 -124.5 -43.5
t-50.5 -97.5q0 -35 30 -62t72.5 -47.5t85.5 -44t73 -63t30 -93.5q0 -85 -68.5 -147.5t-169.5 -62.5q-42 0 -80 9.5t-62 22.5t-42 26t-26 22z" />
    <glyph glyph-name="T" unicode="T" horiz-adv-x="582" 
d="M196 0l125 641h-251l11 62h573l-11 -62h-253l-124 -641h-70z" />
    <glyph glyph-name="U" unicode="U" horiz-adv-x="721" 
d="M76 192q0 27 6 57l89 454h69l-89 -456q-5 -24 -5 -47q0 -70 44 -108.5t123 -38.5q91 0 155 52.5t82 143.5l89 454h70l-92 -463q-23 -117 -105 -184.5t-200 -67.5q-107 0 -171.5 54.5t-64.5 149.5z" />
    <glyph glyph-name="V" unicode="V" horiz-adv-x="615" 
d="M209 0l-122 703h71l90 -534l9 -91h2l7 14l18 38.5t20 38.5l299 534h78l-397 -703h-75z" />
    <glyph glyph-name="W" unicode="W" horiz-adv-x="932" 
d="M163 0l-48 703h71l31 -546l1 -75h2q16 39 33 75l262 546h69l35 -546l2 -75h2q15 40 30 75l243 546h76l-319 -703h-84l-34 495l-2 105h-2q-25 -59 -46 -104l-240 -496h-82z" />
    <glyph glyph-name="X" unicode="X" horiz-adv-x="585" 
d="M-32 0l295 370l-139 333h75l83 -206l31 -80h2q28 42 57 79l166 207h83l-274 -340l156 -363h-74l-101 240l-29 78h-2q-27 -40 -56 -76l-193 -242h-80z" />
    <glyph glyph-name="Y" unicode="Y" horiz-adv-x="564" 
d="M184 0l60 302l-158 401h74l99 -255l28 -84h2q29 46 58 83l198 256h84l-317 -403l-59 -300h-69z" />
    <glyph glyph-name="Z" unicode="Z" horiz-adv-x="591" 
d="M-17 0l10 49l460 528l30.5 33l23.5 24l8 7v2q-16 -2 -51 -2h-337l13 62h478l-10 -49l-461 -528l-30.5 -33t-23.5 -23l-8 -8v-2q17 2 51 2h360l-12 -62h-501z" />
    <glyph glyph-name="bracketleft" unicode="[" horiz-adv-x="284" 
d="M104 -39h72l-11 -56h-136l161 825h135l-11 -56h-73z" />
    <glyph glyph-name="backslash" unicode="\" horiz-adv-x="386" 
d="M219 -42l-101 784h61l101 -784h-61z" />
    <glyph glyph-name="bracketright" unicode="]" horiz-adv-x="278" 
d="M-29 -39h73l138 713h-73l11 56h136l-160 -825h-136z" />
    <glyph glyph-name="asciicircum" unicode="^" horiz-adv-x="606" 
d="M15 250l198 453h47l198 -453h-65l-156 370l-156 -370h-66z" />
    <glyph glyph-name="underscore" unicode="_" horiz-adv-x="580" 
d="M-26 0h516l-11 -58h-516z" />
    <glyph glyph-name="grave" unicode="`" horiz-adv-x="504" 
d="M200 752l-63 119h74l47 -119h-58z" />
    <glyph glyph-name="a" unicode="a" horiz-adv-x="521" 
d="M8 115q0 47 22.5 83t56.5 57t81 34t90 17.5t89 4.5h32q7 31 7 53q0 90 -103 90q-37 0 -75 -12t-58 -24l-19 -12l-22 57q8 6 23.5 14.5t62.5 23t94 14.5q78 0 122 -35.5t44 -107.5q0 -25 -6 -55l-62 -317h-65l12 58l11 43h-2q1 0 -6.5 -11.5t-23 -28.5t-36.5 -33.5
t-52.5 -28t-65.5 -11.5q-64 0 -107.5 34t-43.5 93zM78 124q0 -33 24.5 -55.5t72.5 -22.5q66 0 120.5 59.5t70.5 131.5l4 18h-29q-263 0 -263 -131z" />
    <glyph glyph-name="b" unicode="b" horiz-adv-x="591" 
d="M25 0l136 703h68l-47 -243l-13 -46h2q27 45 77 73t105 28q88 0 136.5 -54t48.5 -148q0 -140 -82.5 -232.5t-191.5 -92.5q-57 0 -99.5 27t-58.5 76h-2q0 -21 -5 -45l-9 -46h-65zM134 191q0 -62 31.5 -102t94.5 -40q79 0 143.5 72t64.5 187q0 68 -34 106.5t-93 38.5
q-89 0 -148 -80t-59 -182z" />
    <glyph glyph-name="c" unicode="c" horiz-adv-x="549" 
d="M33 202q0 133 93.5 223t215.5 90q56 0 101.5 -18t62.5 -36l18 -18l-41 -46q-5 6 -15.5 15.5t-46.5 25t-76 15.5q-94 0 -168 -71t-74 -174q0 -71 45.5 -115t118.5 -44q29 0 57.5 7.5t49 17.5t37 20.5t24.5 17.5l8 8l21 -57q-3 -3 -9 -8t-26.5 -18t-42 -23t-55 -18
t-67.5 -8q-103 0 -167 59t-64 155z" />
    <glyph glyph-name="d" unicode="d" horiz-adv-x="591" 
d="M34 190q0 140 82.5 232.5t193.5 92.5q55 0 97 -25.5t58 -74.5h2q0 21 4 42l48 246h68l-136 -703h-66l10 53l11 40h-2q-27 -44 -75.5 -74.5t-107.5 -30.5q-90 0 -138.5 54t-48.5 148zM104 194q0 -68 34 -106.5t94 -38.5q89 0 147.5 81.5t58.5 180.5q0 62 -31.5 102
t-93.5 40q-79 0 -144 -72t-65 -187z" />
    <glyph glyph-name="e" unicode="e" horiz-adv-x="553" 
d="M34 200q0 126 84 220.5t208 94.5q91 0 137.5 -50t46.5 -132q0 -17 -4 -38.5t-8 -34.5l-3 -12h-386q-4 -20 -4 -43q0 -68 42 -112t119 -44q40 0 81 15.5t62 30.5l21 15l22 -56q-9 -7 -25.5 -18t-66 -29.5t-96.5 -18.5q-103 0 -166.5 58.5t-63.5 153.5zM122 304h315
q3 17 3 35q0 58 -31.5 88.5t-82.5 30.5q-65 0 -121.5 -41t-82.5 -113z" />
    <glyph glyph-name="f" unicode="f" horiz-adv-x="323" 
d="M50 0l86 441h-63l11 58h63l5 26q11 57 36.5 96.5t58 56.5t58 23.5t50.5 6.5l37 -2l-13 -61q-9 2 -23 2t-27.5 -2t-31 -10t-32 -21t-27.5 -37t-19 -56l-5 -22h129l-11 -58h-128l-86 -441h-68z" />
    <glyph glyph-name="g" unicode="g" horiz-adv-x="583" 
d="M38 -116q56 -33 132 -33q77 0 133 39.5t73 118.5l10 46l11 40h-2q-62 -92 -167 -92q-89 0 -140 54.5t-51 145.5q0 74 29.5 143.5t91.5 119t143 49.5q57 0 101 -21t59 -68h2q-1 11 1 22l11 55h66l-97 -497q-22 -112 -96.5 -164t-172.5 -52q-92 0 -170 42zM107 207
q0 -67 34.5 -105t97.5 -38t109 44t66 103t20 120q0 122 -128 122q-91 0 -145 -74.5t-54 -171.5z" />
    <glyph glyph-name="h" unicode="h" horiz-adv-x="594" 
d="M24 0l137 703h68l-52 -272l-12 -45h2q24 46 84.5 87.5t135.5 41.5q69 0 106 -33t37 -97q0 -27 -8 -67l-61 -318h-68l58 301q8 46 8 67q0 41 -23 62t-63 21q-83 0 -150.5 -64.5t-85.5 -153.5l-45 -233h-68z" />
    <glyph glyph-name="i" unicode="i" horiz-adv-x="232" 
d="M141 618l18 85h73l-17 -85h-74zM24 0l98 503h68l-98 -503h-68z" />
    <glyph glyph-name="j" unicode="j" horiz-adv-x="232" 
d="M141 618l17 85h73l-16 -85h-74zM22 -16l100 519h68l-101 -521q-11 -59 -36 -99.5t-56.5 -58t-56.5 -24t-51 -6.5l-40 3l12 59q8 -1 22 -1q18 0 35.5 4.5t39 16.5t39 40t25.5 68z" />
    <glyph glyph-name="k" unicode="k" horiz-adv-x="501" 
d="M24 0l138 703h68l-77 -392h78l188 192h86l-219 -222v-2l137 -279h-75l-120 251h-86l-50 -251h-68z" />
    <glyph glyph-name="l" unicode="l" horiz-adv-x="247" 
d="M39 89q0 17 4 36l113 578h68l-111 -569q-3 -16 -3 -31q0 -20 8 -30.5t17 -12.5t22 -2l15 1l-13 -61q-11 -2 -23 -2q-38 0 -67.5 20.5t-29.5 72.5z" />
    <glyph glyph-name="m" unicode="m" horiz-adv-x="916" 
d="M25 0l97 503h67l-14 -74q-2 -10 -5.5 -21t-5.5 -18l-2 -6h2q29 55 87 93t121 38q67 0 98 -32t34 -94h2q30 54 87 90t119 36q69 0 104.5 -33.5t35.5 -97.5q0 -28 -8 -68l-61 -316h-68l58 297q8 38 8 69q0 87 -87 87q-76 0 -134.5 -66.5t-74.5 -148.5l-47 -238h-68l58 297
q8 38 8 71q0 85 -83 85q-75 0 -136.5 -66t-77.5 -150l-46 -237h-68z" />
    <glyph glyph-name="n" unicode="n" horiz-adv-x="594" 
d="M24 0l98 503h66l-13 -72l-13 -47h2q24 47 85 89t137 42q69 0 106.5 -33t37.5 -97q0 -27 -8 -67l-62 -318h-68l58 301q8 37 8 67q0 83 -86 83q-83 0 -150 -64.5t-85 -153.5l-45 -233h-68z" />
    <glyph glyph-name="o" unicode="o" horiz-adv-x="623" 
d="M33 208q0 126 94 216.5t215 90.5q102 0 166 -61t64 -156q0 -127 -95 -218.5t-214 -91.5q-102 0 -166 61.5t-64 158.5zM103 210q0 -71 44.5 -116t116.5 -45q91 0 164.5 72.5t73.5 173.5q0 70 -45 114t-116 44q-92 0 -165 -71.5t-73 -171.5z" />
    <glyph glyph-name="p" unicode="p" horiz-adv-x="591" 
d="M100 41l-47 -241h-67l136 703h65l-9 -49l-12 -43h2q29 45 76.5 74.5t107.5 29.5q88 0 137 -54t49 -148q0 -140 -82 -232.5t-190 -92.5q-57 0 -99 25.5t-59 75.5h-2q-1 -22 -6 -48zM134 194q0 -63 32 -104t94 -41q79 0 143.5 72t64.5 187q0 68 -33.5 106.5t-93.5 38.5
q-88 0 -147.5 -80.5t-59.5 -178.5z" />
    <glyph glyph-name="q" unicode="q" horiz-adv-x="591" 
d="M34 189q0 141 83 233.5t194 92.5q57 0 98 -26t57 -75h2q1 16 5 38l10 51h65l-136 -703h-68l47 242l13 48h-2q-26 -43 -73 -72.5t-108 -29.5q-89 0 -138 54t-49 147zM104 194q0 -67 34.5 -106t93.5 -39q89 0 148 81.5t59 180.5q0 62 -31.5 102t-93.5 40q-80 0 -145 -72
t-65 -187z" />
    <glyph glyph-name="r" unicode="r" horiz-adv-x="356" 
d="M25 0l97 503h67l-18 -89l-12 -44h2q28 59 76.5 98.5t107.5 39.5q18 0 30 -3l-13 -67q-14 2 -25 2q-75 0 -132.5 -79.5t-75.5 -172.5l-36 -188h-68z" />
    <glyph glyph-name="s" unicode="s" horiz-adv-x="442" 
d="M-3 61l41 45q6 -6 16.5 -15.5t47.5 -25.5t79 -16q46 0 82.5 24.5t36.5 67.5q0 25 -23.5 44t-57 33t-67 30.5t-57 45.5t-23.5 68q0 71 56 112t129 41q48 0 86.5 -13.5t53.5 -27.5l15 -14l-38 -48q-4 5 -12.5 12t-39 18.5t-66.5 11.5q-45 0 -81 -22.5t-36 -67.5
q0 -30 36 -53.5t78.5 -38.5t78.5 -48.5t36 -82.5q0 -66 -55 -109.5t-131 -43.5q-35 0 -67 7.5t-52.5 18t-36 21.5t-22.5 19z" />
    <glyph glyph-name="t" unicode="t" horiz-adv-x="333" 
d="M74 138q0 20 5 55l49 248h-66l11 58h67l28 143h67l-29 -143h127l-11 -58h-126l-48 -249q-5 -28 -5 -45q0 -90 86 -90l29 2l-12 -61q-12 -2 -26 -2q-146 0 -146 142z" />
    <glyph glyph-name="u" unicode="u" horiz-adv-x="589" 
d="M46 118q0 27 8 67l61 318h68l-58 -299q-7 -36 -7 -69q0 -40 19.5 -61.5t68.5 -21.5q81 0 146 67t82 153l45 231h68l-98 -503h-67l14 72l13 47h-2q-26 -48 -84.5 -89.5t-135.5 -41.5q-62 0 -101.5 31.5t-39.5 98.5z" />
    <glyph glyph-name="v" unicode="v" horiz-adv-x="478" 
d="M142 0l-95 503h68l66 -371l6 -61h2q16 35 31 61l210 371h74l-290 -503h-72z" />
    <glyph glyph-name="w" unicode="w" horiz-adv-x="802" 
d="M128 0l-72 503h68l49 -377l4 -54h2l27 54l195 375h68l51 -375l5 -54h2q12 28 25 54l196 377h73l-267 -503h-74l-54 361l-5 54h-2q-13 -30 -26 -54l-191 -361h-74z" />
    <glyph glyph-name="x" unicode="x" horiz-adv-x="489" 
d="M-31 0l230 265l-122 238h76l79 -167l12 -30h1q11 15 22 28l141 169h82l-212 -244l131 -259h-73l-91 187l-13 29h-2q-8 -13 -19 -27l-161 -189h-81z" />
    <glyph glyph-name="y" unicode="y" horiz-adv-x="499" 
d="M-56 -129q21 -20 56 -20q61 0 112 81l45 73l-114 498h71l78 -376l9 -53h1q14 28 28 52l218 377h77l-368 -610q-61 -103 -155 -103q-25 0 -48 7.5t-34 14.5l-10 8z" />
    <glyph glyph-name="z" unicode="z" horiz-adv-x="505" 
d="M-16 0l8 44l345 353l48 46v2q-16 -2 -48 -2h-256l12 60h400l-9 -45l-346 -352l-49 -46v-2q17 2 50 2h277l-11 -60h-421z" />
    <glyph glyph-name="braceleft" unicode="{" horiz-adv-x="335" 
d="M89 30q0 24 6 56l18 92q3 16 3 30q0 34 -16.5 55t-33.5 25l-16 4l12 62q4 0 10 1.5t22 9t29 18.5t26.5 34t19.5 52l17 85q35 176 183 176h15l-10 -56h-9q-12 0 -24.5 -3.5t-32 -14t-36 -38.5t-24.5 -69l-20 -101q-6 -29 -18.5 -52.5t-27 -36t-28 -21t-22.5 -11.5l-9 -3
v-2q6 -3 16 -9.5t26 -32.5t16 -59q0 -13 -3 -29l-21 -107q-5 -28 -5 -44q0 -35 15.5 -54.5t29.5 -23t29 -3.5h9l-11 -56q-6 -1 -16 -1q-15 0 -31.5 4.5t-38 16t-35.5 39t-14 67.5z" />
    <glyph glyph-name="bar" unicode="|" horiz-adv-x="308" 
d="M125 -157v945h63v-945h-63z" />
    <glyph glyph-name="braceright" unicode="}" horiz-adv-x="332" 
d="M-24 -40q13 0 25.5 3.5t31.5 14t35 38t24 69.5l22 112q9 48 35.5 79.5t48.5 39.5l21 8v2q-6 3 -16 9.5t-26 31.5t-16 57q0 12 3 29l19 96q5 28 5 44q0 35 -15.5 54.5t-29.5 23t-29 3.5h-9l11 56q7 1 16 1q15 0 31.5 -4.5t38 -16t35.5 -39t14 -67.5q0 -24 -6 -56l-16 -80
q-3 -18 -3 -31q0 -34 16.5 -55t33.5 -25l16 -4l-12 -62q-3 0 -9 -1.5t-22 -8.5t-29.5 -18.5t-27 -34t-19.5 -52.5l-19 -96q-35 -177 -183 -177l-15 1l11 56h9z" />
    <glyph glyph-name="asciitilde" unicode="~" horiz-adv-x="589" 
d="M64 209q0 79 34 117t93 38q30 0 54 -10.5t39.5 -26l30 -31t33.5 -26t42 -10.5q40 0 55.5 31t15.5 69h59q0 -79 -34 -117t-93 -38q-37 0 -65.5 16.5t-43.5 35.5t-38.5 35.5t-51.5 16.5q-40 0 -55.5 -31t-15.5 -69h-59z" />
    <glyph glyph-name="uni00A0" unicode="&#xa0;" horiz-adv-x="271" 
 />
    <glyph glyph-name="exclamdown" unicode="&#xa1;" horiz-adv-x="272" 
d="M121 424l16 79h79l-17 -79h-78zM4 -200l105 519h64l-99 -519h-70z" />
    <glyph glyph-name="cent" unicode="&#xa2;" horiz-adv-x="573" 
d="M210 -13l16 86q-75 12 -119 68t-44 145q0 126 76.5 231t194.5 114l17 84h56l-16 -86q38 -6 67.5 -23t45.5 -37.5t27 -40t14 -32.5l3 -13l-64 -24l-3 11.5t-11 26t-22 33t-38 26t-57 11.5q-97 0 -158 -83.5t-61 -199.5q0 -68 34 -107.5t102 -39.5q31 0 60 11t48 26.5
t34 31.5t22 27l7 11l62 -26q-3 -6 -9 -15.5t-27 -33.5t-45 -43.5t-62 -36t-78 -19.5l-16 -83h-56z" />
    <glyph glyph-name="sterling" unicode="&#xa3;" horiz-adv-x="580" 
d="M82 326l11 55h43l31 155q15 76 80 127.5t151 51.5q44 0 82.5 -15t55.5 -30l16 -15l-48 -45q-4 4 -12.5 11t-36.5 18t-58 11q-64 0 -107.5 -35.5t-53.5 -88.5l-29 -145h192l-11 -55h-191l-52 -264h339l-12 -62h-471l12 62h62l51 264h-44z" />
    <glyph glyph-name="yen" unicode="&#xa5;" horiz-adv-x="598" 
d="M204 0l42 211h-163l9 51h163l9 39l-19 49h-135l10 51h106l-116 302h75l94 -250l29 -89h2q27 49 58 89l192 250h83l-234 -302h105l-10 -51h-134l-36 -49l-9 -39h161l-9 -51h-161l-42 -211h-70z" />
    <glyph glyph-name="section" unicode="&#xa7;" horiz-adv-x="415" 
d="M98 85l18 438q3 80 55.5 136t138.5 56q33 0 62.5 -11t41.5 -22l13 -11l-41 -43q-29 27 -77 27q-59 0 -95 -39t-38 -99l-18 -432h-60zM37 25q28 -27 76 -27q60 0 95.5 39t37.5 98l19 433h60l-19 -438q-3 -80 -55.5 -136t-137.5 -56q-33 0 -62.5 11t-42.5 22l-12 11z" />
    <glyph glyph-name="dieresis" unicode="&#xa8;" horiz-adv-x="504" 
d="M237 785l17 86h62l-17 -86h-62zM86 785l17 86h61l-16 -86h-62z" />
    <glyph glyph-name="copyright" unicode="&#xa9;" horiz-adv-x="841" 
d="M74 352q0 151 103.5 257t249.5 106q149 0 253.5 -106t104.5 -257q0 -153 -104 -258.5t-254 -105.5q-147 0 -250 106t-103 258zM133 352q0 -131 85 -220.5t209 -89.5q127 0 213.5 89.5t86.5 220.5q0 130 -86.5 219.5t-213.5 89.5q-124 0 -209 -89.5t-85 -219.5zM231 350
q0 84 56 145t150 61q31 0 59 -9.5t46 -23.5t32 -27.5t20 -23.5l6 -9l-46 -31l-5 7.5t-14 16.5t-23.5 21t-32 16.5t-40.5 7.5q-69 0 -109 -44t-40 -106t39.5 -106t109.5 -44q33 0 62 17.5t41 34.5l12 17l46 -31q-2 -4 -6.5 -10t-19.5 -22t-32.5 -28.5t-45.5 -22.5t-59 -10
q-95 0 -150.5 60.5t-55.5 143.5z" />
    <glyph glyph-name="ordfeminine" unicode="&#xaa;" horiz-adv-x="425" 
d="M208 382q-36 0 -65 21.5t-29 61.5q0 28 11.5 50t31.5 34.5t41.5 21t48 12t42.5 4.5t34 1h18q4 17 4 26q0 52 -58 52q-20 0 -43 -7t-36 -14l-12 -7l-19 41q50 34 118 34q105 0 105 -93q0 -16 -6 -44l-37 -188h-53l10 49h-2q-2 -2 -4.5 -6t-13 -13.5t-21.5 -16.5t-29 -13
t-36 -6zM224 430q37 0 69 36t38 69l2 9h-13q-148 0 -148 -73q0 -18 13.5 -29.5t38.5 -11.5zM73 264l9 47h263l-9 -47h-263z" />
    <glyph glyph-name="guillemotleft" unicode="&#xab;" horiz-adv-x="519" 
d="M348 77l-128 207l206 204h79l-215 -209l127 -202h-69zM173 77l-129 207l192 204h78l-199 -209l126 -202h-68z" />
    <glyph glyph-name="logicalnot" unicode="&#xac;" horiz-adv-x="638" 
d="M81 342v58h466v-242h-61v184h-405z" />
    <glyph glyph-name="uni00AD" unicode="&#xad;" horiz-adv-x="432" 
d="M10 253l11 62h284l-12 -62h-283z" />
    <glyph glyph-name="registered" unicode="&#xae;" horiz-adv-x="841" 
d="M74 352q0 151 103.5 257t249.5 106q149 0 253.5 -106t104.5 -257q0 -153 -104 -258.5t-254 -105.5q-147 0 -250 106t-103 258zM133 352q0 -131 85 -220.5t209 -89.5q127 0 213.5 89.5t86.5 220.5q0 130 -86.5 219.5t-213.5 89.5q-124 0 -209 -89.5t-85 -219.5zM309 157
v390h139q52 0 84.5 -32t32.5 -84q0 -41 -21.5 -68.5t-51.5 -34.5v-2q4 -5 13 -22l75 -147h-62l-78 158h-75v-158h-56zM365 359h73q32 0 50.5 19t18.5 53q0 33 -18.5 51t-50.5 18h-73v-141z" />
    <glyph glyph-name="macron" unicode="&#xaf;" horiz-adv-x="504" 
d="M72 785l10 55h247l-10 -55h-247z" />
    <glyph glyph-name="degree" unicode="&#xb0;" horiz-adv-x="380" 
d="M224 436q-55 0 -89.5 34t-34.5 87q0 61 49.5 109t111.5 48q54 0 89 -34.5t35 -86.5q0 -61 -50 -109t-111 -48zM228 492q38 0 68 30t30 69q0 29 -19 48t-49 19q-38 0 -68.5 -30t-30.5 -69q0 -29 19 -48t50 -19z" />
    <glyph glyph-name="plusminus" unicode="&#xb1;" horiz-adv-x="702" 
d="M77 255v58h231v255h61v-255h230v-58h-230v-255h-61v255h-231zM95 -104h486v-58h-486v58z" />
    <glyph glyph-name="twosuperior" unicode="&#xb2;" 
d="M0 423q1 55 30.5 97.5t70 69t81 49.5t68.5 52t28 64q0 27 -19 44.5t-50 17.5q-24 0 -48.5 -12.5t-37.5 -24.5l-13 -12l-32 38q6 7 18 17.5t47 27.5t69 17q57 0 90 -30t33 -79q0 -44 -24 -78.5t-60.5 -57.5t-73.5 -43.5t-68 -47.5t-40 -59h219l-10 -50h-278z" />
    <glyph glyph-name="threesuperior" unicode="&#xb3;" 
d="M152 413q-41 0 -77 16.5t-51 32.5l-16 17l38 35q4 -5 12 -13.5t36 -22t59 -13.5q42 0 74.5 30t32.5 74q0 32 -25 50.5t-59 18.5h-33l-9 31l121 115l30 25v2q-19 -3 -37 -3h-152l9 50h263l-7 -36l-146 -139q38 -5 70 -32.5t32 -79.5q0 -62 -48 -110t-117 -48z" />
    <glyph glyph-name="acute" unicode="&#xb4;" horiz-adv-x="504" 
d="M109 752l93 119h84l-111 -119h-66z" />
    <glyph glyph-name="mu" unicode="&#xb5;" horiz-adv-x="608" 
d="M-8 -200l136 703h68l-58 -299q-8 -42 -8 -69q0 -83 89 -83q81 0 146 67t82 153l44 231h68l-97 -503h-67l14 72l13 47h-2q-27 -48 -85 -89.5t-135 -41.5q-73 0 -104 43h-2q-4 -52 -9 -77l-31 -154h-62z" />
    <glyph glyph-name="mu" unicode="&#x3bc;" horiz-adv-x="608" 
d="M-8 -200l136 703h68l-58 -299q-8 -42 -8 -69q0 -83 89 -83q81 0 146 67t82 153l44 231h68l-97 -503h-67l14 72l13 47h-2q-27 -48 -85 -89.5t-135 -41.5q-73 0 -104 43h-2q-4 -52 -9 -77l-31 -154h-62z" />
    <glyph glyph-name="paragraph" unicode="&#xb6;" horiz-adv-x="573" 
d="M219 -50l56 291q-79 0 -138 57.5t-59 142.5q0 105 85 183.5t190 78.5h250l-11 -62h-181l-134 -691h-58zM339 -50l122 631h57l-122 -631h-57z" />
    <glyph glyph-name="periodcentered" unicode="&#xb7;" horiz-adv-x="273" 
d="M85 246l16 83h80l-15 -83h-81z" />
    <glyph glyph-name="cedilla" unicode="&#xb8;" horiz-adv-x="504" 
d="M108 -153q17 -5 40 -5q58 0 58 39q0 29 -51 29l-15 -1l48 111l38 -7l-1 -8l-23 -60q24 -4 41 -21t17 -44q0 -42 -33 -63.5t-75 -21.5q-15 0 -28.5 1.5t-19.5 3.5l-6 1z" />
    <glyph glyph-name="onesuperior" unicode="&#xb9;" 
d="M26 423l10 50h94l55 285l7 24h-2q-5 -8 -24 -24l-47 -38l-29 40l119 98h52l-75 -385h92l-9 -50h-243z" />
    <glyph glyph-name="ordmasculine" unicode="&#xba;" horiz-adv-x="472" 
d="M258 383q-64 0 -104 38.5t-40 99.5q0 78 59.5 135.5t133.5 57.5q64 0 104.5 -39t40.5 -98q0 -80 -59.5 -137t-134.5 -57zM260 434q53 0 95 41t42 99q0 40 -25.5 65t-66.5 25q-53 0 -94.5 -41t-41.5 -98q0 -41 25 -66t66 -25zM78 264l9 47h303l-9 -47h-303z" />
    <glyph glyph-name="guillemotright" unicode="&#xbb;" horiz-adv-x="519" 
d="M198 77l200 209l-127 202h69l129 -207l-192 -204h-79zM8 77l214 209l-127 202h69l129 -207l-206 -204h-79z" />
    <glyph glyph-name="onequarter" unicode="&#xbc;" horiz-adv-x="944" 
d="M261 0h-63l472 703h62zM55 268l10 50h94l55 285l7 24h-2q-5 -8 -24 -24l-47 -38l-29 40l119 98h52l-75 -385h92l-9 -50h-243zM713 0l22 114h-213l7 38l266 283h58l-53 -271h65l-9 -50h-65l-23 -114h-55zM603 164h142l26 136q2 12 6.5 27.5t6.5 24.5l3 10h-2
q-21 -27 -42 -49l-140 -147v-2z" />
    <glyph glyph-name="onehalf" unicode="&#xbd;" horiz-adv-x="931" 
d="M262 0h-63l472 703h62zM55 268l10 50h94l55 285l7 24h-2q-5 -8 -24 -24l-47 -38l-29 40l119 98h52l-75 -385h92l-9 -50h-243zM532 0q1 55 30.5 97.5t70 69t81 49.5t68.5 52t28 64q0 27 -19 44.5t-50 17.5q-24 0 -48.5 -12t-37.5 -24l-13 -13l-32 38q6 7 18 17.5t47 27.5
t69 17q57 0 90 -30t33 -79q0 -44 -24 -78.5t-60.5 -57.5t-73.5 -43.5t-68 -47.5t-40 -59h219l-10 -50h-278z" />
    <glyph glyph-name="threequarters" unicode="&#xbe;" horiz-adv-x="957" 
d="M274 0h-63l472 703h62zM726 0l22 114h-213l7 38l266 283h58l-53 -271h65l-9 -50h-65l-23 -114h-55zM616 164h142l26 136q2 12 6.5 27.5t7.5 24.5l2 10h-2q-21 -27 -42 -49l-140 -147v-2zM192 258q-41 0 -77 16.5t-51 33.5l-16 16l38 35q4 -5 12 -13.5t36 -22t59 -13.5
q42 0 74.5 30t32.5 74q0 32 -25 50.5t-59 18.5h-33l-9 31l121 115l30 25v2q-19 -3 -37 -3h-152l9 50h263l-7 -36l-146 -139q38 -5 70 -32.5t32 -79.5q0 -62 -48 -110t-117 -48z" />
    <glyph glyph-name="questiondown" unicode="&#xbf;" horiz-adv-x="439" 
d="M242 424l16 79h78l-16 -79h-78zM-21 -58q0 49 22 89.5t55 68.5t67 53.5t61.5 57.5t35.5 68l9 40h67l-9 -43q-10 -46 -38 -84t-60.5 -64l-63.5 -51.5t-52 -57.5t-21 -70q0 -41 29.5 -67.5t79.5 -26.5q32 0 64.5 10.5t48.5 20.5l17 11l29 -55q-8 -6 -23 -14.5t-58.5 -23
t-84.5 -14.5q-79 0 -127 41.5t-48 110.5z" />
    <glyph glyph-name="Agrave" unicode="&#xc0;" horiz-adv-x="613" 
d="M32 0h-75l392 703h76l121 -703h-70l-37 224h-283zM187 284h242l-42 255l-11 91h-2q-26 -58 -44 -91zM367 752l-63 119h74l47 -119h-58z" />
    <glyph glyph-name="Aacute" unicode="&#xc1;" horiz-adv-x="613" 
d="M32 0h-75l392 703h76l121 -703h-70l-37 224h-283zM187 284h242l-42 255l-11 91h-2q-26 -58 -44 -91zM362 752l93 119h84l-111 -119h-66z" />
    <glyph glyph-name="Acircumflex" unicode="&#xc2;" horiz-adv-x="613" 
d="M32 0h-75l392 703h76l121 -703h-70l-37 224h-283zM187 284h242l-42 255l-11 91h-2q-26 -58 -44 -91zM273 752l107 119h75l60 -119h-63l-38 81h-2l-70 -81h-69z" />
    <glyph glyph-name="Atilde" unicode="&#xc3;" horiz-adv-x="613" 
d="M32 0h-75l392 703h76l121 -703h-70l-37 224h-283zM187 284h242l-42 255l-11 91h-2q-26 -58 -44 -91zM249 755q22 117 106 117q22 0 38.5 -11t25 -25t20.5 -25t26 -11q38 0 51 69h54q-23 -117 -107 -117q-27 0 -45.5 18t-33 35.5t-31.5 17.5q-20 0 -32.5 -21t-17.5 -47
h-54z" />
    <glyph glyph-name="Adieresis" unicode="&#xc4;" horiz-adv-x="613" 
d="M32 0h-75l392 703h76l121 -703h-70l-37 224h-283zM187 284h242l-42 255l-11 91h-2q-26 -58 -44 -91zM449 785l17 86h62l-17 -86h-62zM298 785l17 86h61l-16 -86h-62z" />
    <glyph glyph-name="Aring" unicode="&#xc5;" horiz-adv-x="613" 
d="M32 0h-75l392 703h76l121 -703h-70l-37 224h-283zM187 284h242l-42 255l-11 91h-2q-26 -58 -44 -91zM401 741q-32 0 -50.5 16.5t-18.5 45.5q0 33 25.5 56.5t58.5 23.5q32 0 50.5 -16.5t18.5 -46.5q0 -32 -26 -55.5t-58 -23.5zM402 779q17 0 28.5 12t11.5 29
q0 11 -7.5 18.5t-19.5 7.5q-16 0 -28 -12t-12 -30q0 -25 27 -25z" />
    <glyph glyph-name="AE" unicode="&#xc6;" horiz-adv-x="857" 
d="M33 0h-78l425 703h486l-12 -62h-327l-50 -256h267l-12 -62h-267l-51 -261h345l-12 -62h-414l63 324h-169zM418 641l-155 -257h144l51 257h-40z" />
    <glyph glyph-name="Ccedilla" unicode="&#xc7;" horiz-adv-x="729" 
d="M252 -153q17 -5 40 -5q58 0 58 39q0 29 -51 29l-15 -1l35 82q-120 13 -189 95t-69 204q0 114 58.5 212.5t155 155.5t203.5 57q48 0 91.5 -9.5t71 -22.5t47.5 -26.5t29 -22.5l9 -10l-44 -49q-3 3 -8.5 8t-24.5 18t-40.5 23t-56.5 18t-72 8q-140 0 -243.5 -106.5
t-103.5 -251.5q0 -105 63.5 -172t169.5 -67q63 0 124.5 23.5t91.5 46.5l30 23l34 -54l-14 -11t-38 -25t-60 -32t-77.5 -25t-92.5 -11h-2l-16 -43q24 -4 41 -21t17 -44q0 -42 -33 -63.5t-75 -21.5q-15 0 -28.5 1.5t-19.5 3.5l-6 1z" />
    <glyph glyph-name="Egrave" unicode="&#xc8;" horiz-adv-x="568" 
d="M44 0l137 703h396l-13 -62h-326l-50 -256h267l-12 -62h-266l-52 -261h344l-11 -62h-414zM369 752l-63 119h74l47 -119h-58z" />
    <glyph glyph-name="Eacute" unicode="&#xc9;" horiz-adv-x="568" 
d="M44 0l137 703h396l-13 -62h-326l-50 -256h267l-12 -62h-266l-52 -261h344l-11 -62h-414zM365 752l93 119h84l-111 -119h-66z" />
    <glyph glyph-name="Ecircumflex" unicode="&#xca;" horiz-adv-x="568" 
d="M44 0l137 703h396l-13 -62h-326l-50 -256h267l-12 -62h-266l-52 -261h344l-11 -62h-414zM276 752l107 119h75l60 -119h-63l-38 81h-2l-70 -81h-69z" />
    <glyph glyph-name="Edieresis" unicode="&#xcb;" horiz-adv-x="568" 
d="M44 0l137 703h396l-13 -62h-326l-50 -256h267l-12 -62h-266l-52 -261h344l-11 -62h-414zM452 785l17 86h62l-17 -86h-62zM301 785l17 86h61l-16 -86h-62z" />
    <glyph glyph-name="Igrave" unicode="&#xcc;" horiz-adv-x="273" 
d="M44 0l137 703h69l-137 -703h-69zM196 752l-63 119h74l47 -119h-58z" />
    <glyph glyph-name="Iacute" unicode="&#xcd;" horiz-adv-x="273" 
d="M44 0l137 703h69l-137 -703h-69zM190 752l93 119h84l-111 -119h-66z" />
    <glyph glyph-name="Icircumflex" unicode="&#xce;" horiz-adv-x="273" 
d="M44 0l137 703h69l-137 -703h-69zM102 752l107 119h75l60 -119h-63l-38 81h-2l-70 -81h-69z" />
    <glyph glyph-name="Idieresis" unicode="&#xcf;" horiz-adv-x="273" 
d="M44 0l137 703h69l-137 -703h-69zM278 785l17 86h62l-17 -86h-62zM127 785l17 86h61l-16 -86h-62z" />
    <glyph glyph-name="Eth" unicode="&#xd0;" horiz-adv-x="752" 
d="M61 323l12 60h59l63 320h213q143 0 224 -71.5t81 -201.5q0 -180 -117.5 -305t-299.5 -125h-239l63 323h-59zM138 62h151q152 0 252 104.5t100 259.5q0 103 -63.5 159t-175.5 56h-150l-51 -258h168l-12 -60h-168z" />
    <glyph glyph-name="Ntilde" unicode="&#xd1;" horiz-adv-x="747" 
d="M44 0l137 703h62l260 -506q8 -16 18 -39.5t15 -39.5l6 -16h2q5 58 12 95l99 506h69l-137 -703h-62l-260 506l-40 95h-2q-5 -58 -12 -95l-98 -506h-69zM313 755q22 117 106 117q22 0 38.5 -11t25 -25t20.5 -25t26 -11q38 0 51 69h54q-23 -117 -107 -117q-27 0 -45.5 18
t-33 35.5t-31.5 17.5q-20 0 -32.5 -21t-17.5 -47h-54z" />
    <glyph glyph-name="Ograve" unicode="&#xd2;" horiz-adv-x="822" 
d="M58 292q0 111 60.5 209.5t158 156t203.5 57.5q136 0 221 -83t85 -213q0 -113 -61 -213.5t-159 -159t-203 -58.5q-136 0 -220.5 85t-84.5 219zM129 294q0 -106 65.5 -173.5t169.5 -67.5q133 0 241.5 108.5t108.5 254.5q0 103 -65.5 168.5t-169.5 65.5q-135 0 -242.5 -106
t-107.5 -250zM467 752l-63 119h74l47 -119h-58z" />
    <glyph glyph-name="Oacute" unicode="&#xd3;" horiz-adv-x="822" 
d="M58 292q0 111 60.5 209.5t158 156t203.5 57.5q136 0 221 -83t85 -213q0 -113 -61 -213.5t-159 -159t-203 -58.5q-136 0 -220.5 85t-84.5 219zM129 294q0 -106 65.5 -173.5t169.5 -67.5q133 0 241.5 108.5t108.5 254.5q0 103 -65.5 168.5t-169.5 65.5q-135 0 -242.5 -106
t-107.5 -250zM462 752l93 119h84l-111 -119h-66z" />
    <glyph glyph-name="Ocircumflex" unicode="&#xd4;" horiz-adv-x="822" 
d="M58 292q0 111 60.5 209.5t158 156t203.5 57.5q136 0 221 -83t85 -213q0 -113 -61 -213.5t-159 -159t-203 -58.5q-136 0 -220.5 85t-84.5 219zM129 294q0 -106 65.5 -173.5t169.5 -67.5q133 0 241.5 108.5t108.5 254.5q0 103 -65.5 168.5t-169.5 65.5q-135 0 -242.5 -106
t-107.5 -250zM373 752l107 119h75l60 -119h-63l-38 81h-2l-70 -81h-69z" />
    <glyph glyph-name="Otilde" unicode="&#xd5;" horiz-adv-x="822" 
d="M58 292q0 111 60.5 209.5t158 156t203.5 57.5q136 0 221 -83t85 -213q0 -113 -61 -213.5t-159 -159t-203 -58.5q-136 0 -220.5 85t-84.5 219zM129 294q0 -106 65.5 -173.5t169.5 -67.5q133 0 241.5 108.5t108.5 254.5q0 103 -65.5 168.5t-169.5 65.5q-135 0 -242.5 -106
t-107.5 -250zM349 755q22 117 106 117q22 0 38.5 -11t25 -25t20.5 -25t26 -11q38 0 51 69h54q-23 -117 -107 -117q-27 0 -45.5 18t-33 35.5t-31.5 17.5q-20 0 -32.5 -21t-17.5 -47h-54z" />
    <glyph glyph-name="Odieresis" unicode="&#xd6;" horiz-adv-x="822" 
d="M58 292q0 111 60.5 209.5t158 156t203.5 57.5q136 0 221 -83t85 -213q0 -113 -61 -213.5t-159 -159t-203 -58.5q-136 0 -220.5 85t-84.5 219zM129 294q0 -106 65.5 -173.5t169.5 -67.5q133 0 241.5 108.5t108.5 254.5q0 103 -65.5 168.5t-169.5 65.5q-135 0 -242.5 -106
t-107.5 -250zM549 785l17 86h62l-17 -86h-62zM398 785l17 86h61l-16 -86h-62z" />
    <glyph glyph-name="multiply" unicode="&#xd7;" horiz-adv-x="694" 
d="M90 41l216 243l-216 243l41 41l214 -241l214 241l41 -41l-217 -243l217 -243l-41 -41l-214 241l-214 -241z" />
    <glyph glyph-name="Oslash" unicode="&#xd8;" horiz-adv-x="825" 
d="M59 292q0 111 60.5 209.5t158.5 156t204 57.5q109 0 187 -56l63 69l38 -32l-63 -69q80 -82 80 -208q0 -113 -61 -213.5t-158.5 -159t-202.5 -58.5q-111 0 -191 58l-64 -70l-39 31l66 72q-78 84 -78 213zM715 416q0 93 -56 159l-438 -477q61 -45 144 -45q134 0 242 108.5
t108 254.5zM131 294q0 -96 55 -162l436 476q-59 42 -141 42q-135 0 -242.5 -106t-107.5 -250z" />
    <glyph glyph-name="Ugrave" unicode="&#xd9;" horiz-adv-x="721" 
d="M76 192q0 27 6 57l89 454h69l-89 -456q-5 -24 -5 -47q0 -70 44 -108.5t123 -38.5q91 0 155 52.5t82 143.5l89 454h70l-92 -463q-23 -117 -105 -184.5t-200 -67.5q-107 0 -171.5 54.5t-64.5 149.5zM418 752l-63 119h74l47 -119h-58z" />
    <glyph glyph-name="Uacute" unicode="&#xda;" horiz-adv-x="721" 
d="M76 192q0 27 6 57l89 454h69l-89 -456q-5 -24 -5 -47q0 -70 44 -108.5t123 -38.5q91 0 155 52.5t82 143.5l89 454h70l-92 -463q-23 -117 -105 -184.5t-200 -67.5q-107 0 -171.5 54.5t-64.5 149.5zM413 752l93 119h84l-111 -119h-66z" />
    <glyph glyph-name="Ucircumflex" unicode="&#xdb;" horiz-adv-x="721" 
d="M76 192q0 27 6 57l89 454h69l-89 -456q-5 -24 -5 -47q0 -70 44 -108.5t123 -38.5q91 0 155 52.5t82 143.5l89 454h70l-92 -463q-23 -117 -105 -184.5t-200 -67.5q-107 0 -171.5 54.5t-64.5 149.5zM324 752l107 119h75l60 -119h-63l-38 81h-2l-70 -81h-69z" />
    <glyph glyph-name="Udieresis" unicode="&#xdc;" horiz-adv-x="721" 
d="M76 192q0 27 6 57l89 454h69l-89 -456q-5 -24 -5 -47q0 -70 44 -108.5t123 -38.5q91 0 155 52.5t82 143.5l89 454h70l-92 -463q-23 -117 -105 -184.5t-200 -67.5q-107 0 -171.5 54.5t-64.5 149.5zM500 785l17 86h62l-17 -86h-62zM349 785l17 86h61l-16 -86h-62z" />
    <glyph glyph-name="Yacute" unicode="&#xdd;" horiz-adv-x="564" 
d="M184 0l60 302l-158 401h74l99 -255l28 -84h2q29 46 58 83l198 256h84l-317 -403l-59 -300h-69zM330 752l93 119h84l-111 -119h-66z" />
    <glyph glyph-name="Thorn" unicode="&#xde;" horiz-adv-x="601" 
d="M44 0l138 703h69l-25 -125h162q69 0 111 -24q82 -44 82 -148q0 -80 -42 -143t-108 -92q-46 -20 -103 -20h-184l-30 -151h-70zM155 213h166q46 0 82 16q48 21 77 66t29 108q0 53 -34 83t-95 30h-166z" />
    <glyph glyph-name="germandbls" unicode="&#xdf;" horiz-adv-x="574" 
d="M25 0l104 539q16 81 81.5 128.5t141.5 47.5q75 0 118.5 -37t43.5 -94q0 -33 -16 -61.5t-38 -48t-44.5 -37t-38.5 -36.5t-16 -39q0 -21 24 -45t52.5 -44t52.5 -53t24 -69q0 -65 -54 -111.5t-126 -46.5q-43 0 -81.5 8t-55.5 16l-17 8l13 63q54 -34 137 -34q43 0 78.5 25
t35.5 71q0 28 -24 55.5t-53 46.5t-53 47.5t-24 58.5q0 34 24 65t52.5 51t52.5 48t24 57q0 30 -24 52t-68 22q-53 0 -98.5 -34t-56.5 -93l-103 -526h-68z" />
    <glyph glyph-name="agrave" unicode="&#xe0;" horiz-adv-x="521" 
d="M8 115q0 47 22.5 83t56.5 57t81 34t90 17.5t89 4.5h32q7 31 7 53q0 90 -103 90q-37 0 -75 -12t-58 -24l-19 -12l-22 57q8 6 23.5 14.5t62.5 23t94 14.5q78 0 122 -35.5t44 -107.5q0 -25 -6 -55l-62 -317h-65l12 58l11 43h-2q1 0 -6.5 -11.5t-23 -28.5t-36.5 -33.5
t-52.5 -28t-65.5 -11.5q-64 0 -107.5 34t-43.5 93zM78 124q0 -33 24.5 -55.5t72.5 -22.5q66 0 120.5 59.5t70.5 131.5l4 18h-29q-263 0 -263 -131zM282 584l-63 119h74l47 -119h-58z" />
    <glyph glyph-name="aacute" unicode="&#xe1;" horiz-adv-x="521" 
d="M8 115q0 47 22.5 83t56.5 57t81 34t90 17.5t89 4.5h32q7 31 7 53q0 90 -103 90q-37 0 -75 -12t-58 -24l-19 -12l-22 57q8 6 23.5 14.5t62.5 23t94 14.5q78 0 122 -35.5t44 -107.5q0 -25 -6 -55l-62 -317h-65l12 58l11 43h-2q1 0 -6.5 -11.5t-23 -28.5t-36.5 -33.5
t-52.5 -28t-65.5 -11.5q-64 0 -107.5 34t-43.5 93zM78 124q0 -33 24.5 -55.5t72.5 -22.5q66 0 120.5 59.5t70.5 131.5l4 18h-29q-263 0 -263 -131zM278 584l93 119h84l-111 -119h-66z" />
    <glyph glyph-name="acircumflex" unicode="&#xe2;" horiz-adv-x="521" 
d="M8 115q0 47 22.5 83t56.5 57t81 34t90 17.5t89 4.5h32q7 31 7 53q0 90 -103 90q-37 0 -75 -12t-58 -24l-19 -12l-22 57q8 6 23.5 14.5t62.5 23t94 14.5q78 0 122 -35.5t44 -107.5q0 -25 -6 -55l-62 -317h-65l12 58l11 43h-2q1 0 -6.5 -11.5t-23 -28.5t-36.5 -33.5
t-52.5 -28t-65.5 -11.5q-64 0 -107.5 34t-43.5 93zM78 124q0 -33 24.5 -55.5t72.5 -22.5q66 0 120.5 59.5t70.5 131.5l4 18h-29q-263 0 -263 -131zM188 584l107 119h75l60 -119h-63l-38 81h-2l-70 -81h-69z" />
    <glyph glyph-name="atilde" unicode="&#xe3;" horiz-adv-x="521" 
d="M8 115q0 47 22.5 83t56.5 57t81 34t90 17.5t89 4.5h32q7 31 7 53q0 90 -103 90q-37 0 -75 -12t-58 -24l-19 -12l-22 57q8 6 23.5 14.5t62.5 23t94 14.5q78 0 122 -35.5t44 -107.5q0 -25 -6 -55l-62 -317h-65l12 58l11 43h-2q1 0 -6.5 -11.5t-23 -28.5t-36.5 -33.5
t-52.5 -28t-65.5 -11.5q-64 0 -107.5 34t-43.5 93zM78 124q0 -33 24.5 -55.5t72.5 -22.5q66 0 120.5 59.5t70.5 131.5l4 18h-29q-263 0 -263 -131zM164 587q22 117 106 117q22 0 38.5 -11t25 -25t20.5 -25t26 -11q38 0 51 69h54q-23 -117 -107 -117q-27 0 -45.5 18t-33 35.5
t-31.5 17.5q-20 0 -32.5 -21t-17.5 -47h-54z" />
    <glyph glyph-name="adieresis" unicode="&#xe4;" horiz-adv-x="521" 
d="M8 115q0 47 22.5 83t56.5 57t81 34t90 17.5t89 4.5h32q7 31 7 53q0 90 -103 90q-37 0 -75 -12t-58 -24l-19 -12l-22 57q8 6 23.5 14.5t62.5 23t94 14.5q78 0 122 -35.5t44 -107.5q0 -25 -6 -55l-62 -317h-65l12 58l11 43h-2q1 0 -6.5 -11.5t-23 -28.5t-36.5 -33.5
t-52.5 -28t-65.5 -11.5q-64 0 -107.5 34t-43.5 93zM78 124q0 -33 24.5 -55.5t72.5 -22.5q66 0 120.5 59.5t70.5 131.5l4 18h-29q-263 0 -263 -131zM364 617l17 86h62l-17 -86h-62zM213 617l17 86h61l-16 -86h-62z" />
    <glyph glyph-name="aring" unicode="&#xe5;" horiz-adv-x="521" 
d="M8 115q0 47 22.5 83t56.5 57t81 34t90 17.5t89 4.5h32q7 31 7 53q0 90 -103 90q-37 0 -75 -12t-58 -24l-19 -12l-22 57q8 6 23.5 14.5t62.5 23t94 14.5q78 0 122 -35.5t44 -107.5q0 -25 -6 -55l-62 -317h-65l12 58l11 43h-2q1 0 -6.5 -11.5t-23 -28.5t-36.5 -33.5
t-52.5 -28t-65.5 -11.5q-64 0 -107.5 34t-43.5 93zM78 124q0 -33 24.5 -55.5t72.5 -22.5q66 0 120.5 59.5t70.5 131.5l4 18h-29q-263 0 -263 -131zM316 573q-32 0 -50.5 16.5t-18.5 45.5q0 33 25.5 56.5t58.5 23.5q32 0 50.5 -16.5t18.5 -46.5q0 -32 -26 -55.5t-58 -23.5z
M317 611q17 0 28.5 12t11.5 29q0 11 -7.5 18.5t-19.5 7.5q-16 0 -28 -12t-12 -30q0 -25 27 -25z" />
    <glyph glyph-name="ae" unicode="&#xe6;" horiz-adv-x="870" 
d="M8 115q0 192 336 192h33q7 36 7 57q0 90 -106 90q-34 0 -70.5 -12t-56.5 -24l-20 -12l-22 57q9 6 24.5 14.5t61.5 23t90 14.5q136 0 155 -97h2q78 97 201 97q90 0 137 -49.5t47 -133.5q0 -16 -3.5 -36t-7.5 -32l-3 -13h-379q-4 -20 -4 -43q0 -77 40 -118t112 -41
q41 0 82 15.5t62 30.5l21 15l22 -56q-9 -7 -26 -18t-66 -29.5t-96 -18.5q-80 0 -135 37t-72 100h-2q-6 -14 -20 -33t-39 -44.5t-65.5 -42.5t-87.5 -17q-65 0 -108.5 33.5t-43.5 93.5zM448 307h307q2 22 2 33q0 59 -32.5 88.5t-82.5 29.5q-64 0 -116 -39.5t-78 -111.5z
M78 123q0 -33 24.5 -55t71.5 -22q67 0 119 57t70 128l5 20h-59q-231 0 -231 -128z" />
    <glyph glyph-name="ccedilla" unicode="&#xe7;" horiz-adv-x="551" 
d="M151 -153q17 -5 40 -5q58 0 58 39q0 29 -51 29l-15 -1l35 83q-84 13 -133.5 69t-49.5 141q0 133 93.5 223t215.5 90q56 0 101.5 -18t62.5 -36l18 -18l-41 -46q-5 6 -15.5 15.5t-46.5 25t-76 15.5q-94 0 -168 -71t-74 -174q0 -71 45.5 -115t118.5 -44q29 0 57.5 7.5
t49 17.5t37 20.5t24.5 17.5l8 8l21 -57q-3 -3 -9 -8t-26.5 -18t-42 -23t-55 -18t-67.5 -8h-5l-16 -43q24 -4 41 -21t17 -44q0 -42 -33 -63.5t-75 -21.5q-15 0 -28.5 1.5t-19.5 3.5l-6 1z" />
    <glyph glyph-name="egrave" unicode="&#xe8;" horiz-adv-x="553" 
d="M34 200q0 126 84 220.5t208 94.5q91 0 137.5 -50t46.5 -132q0 -17 -4 -38.5t-8 -34.5l-3 -12h-386q-4 -20 -4 -43q0 -68 42 -112t119 -44q40 0 81 15.5t62 30.5l21 15l22 -56q-9 -7 -25.5 -18t-66 -29.5t-96.5 -18.5q-103 0 -166.5 58.5t-63.5 153.5zM122 304h315
q3 17 3 35q0 58 -31.5 88.5t-82.5 30.5q-65 0 -121.5 -41t-82.5 -113zM320 584l-63 119h74l47 -119h-58z" />
    <glyph glyph-name="eacute" unicode="&#xe9;" horiz-adv-x="553" 
d="M34 200q0 126 84 220.5t208 94.5q91 0 137.5 -50t46.5 -132q0 -17 -4 -38.5t-8 -34.5l-3 -12h-386q-4 -20 -4 -43q0 -68 42 -112t119 -44q40 0 81 15.5t62 30.5l21 15l22 -56q-9 -7 -25.5 -18t-66 -29.5t-96.5 -18.5q-103 0 -166.5 58.5t-63.5 153.5zM122 304h315
q3 17 3 35q0 58 -31.5 88.5t-82.5 30.5q-65 0 -121.5 -41t-82.5 -113zM315 584l93 119h84l-111 -119h-66z" />
    <glyph glyph-name="ecircumflex" unicode="&#xea;" horiz-adv-x="553" 
d="M34 200q0 126 84 220.5t208 94.5q91 0 137.5 -50t46.5 -132q0 -17 -4 -38.5t-8 -34.5l-3 -12h-386q-4 -20 -4 -43q0 -68 42 -112t119 -44q40 0 81 15.5t62 30.5l21 15l22 -56q-9 -7 -25.5 -18t-66 -29.5t-96.5 -18.5q-103 0 -166.5 58.5t-63.5 153.5zM122 304h315
q3 17 3 35q0 58 -31.5 88.5t-82.5 30.5q-65 0 -121.5 -41t-82.5 -113zM226 584l107 119h75l60 -119h-63l-38 81h-2l-70 -81h-69z" />
    <glyph glyph-name="edieresis" unicode="&#xeb;" horiz-adv-x="553" 
d="M34 200q0 126 84 220.5t208 94.5q91 0 137.5 -50t46.5 -132q0 -17 -4 -38.5t-8 -34.5l-3 -12h-386q-4 -20 -4 -43q0 -68 42 -112t119 -44q40 0 81 15.5t62 30.5l21 15l22 -56q-9 -7 -25.5 -18t-66 -29.5t-96.5 -18.5q-103 0 -166.5 58.5t-63.5 153.5zM122 304h315
q3 17 3 35q0 58 -31.5 88.5t-82.5 30.5q-65 0 -121.5 -41t-82.5 -113zM402 617l17 86h62l-17 -86h-62zM251 617l17 86h61l-16 -86h-62z" />
    <glyph glyph-name="igrave" unicode="&#xec;" horiz-adv-x="232" 
d="M142 584l-63 119h74l47 -119h-58zM25 0l97 503h68l-97 -503h-68z" />
    <glyph glyph-name="iacute" unicode="&#xed;" horiz-adv-x="232" 
d="M138 584l93 119h84l-111 -119h-66zM25 0l97 503h68l-97 -503h-68z" />
    <glyph glyph-name="icircumflex" unicode="&#xee;" horiz-adv-x="232" 
d="M25 0l97 503h68l-97 -503h-68zM48 584l107 119h75l60 -119h-63l-38 81h-2l-70 -81h-69z" />
    <glyph glyph-name="idieresis" unicode="&#xef;" horiz-adv-x="232" 
d="M225 617l17 86h62l-17 -86h-62zM74 617l17 86h61l-16 -86h-62zM25 0l97 503h68l-97 -503h-68z" />
    <glyph glyph-name="eth" unicode="&#xf0;" horiz-adv-x="590" 
d="M173 493l-4 49l151 62q-57 34 -134 55l28 53q103 -27 176 -79l148 62l5 -49l-112 -46q102 -97 102 -247q0 -56 -17.5 -116.5t-51.5 -117.5t-94 -94t-135 -37q-97 0 -150 57t-53 142q0 108 78.5 194t204.5 86q45 0 80.5 -14.5t48.5 -28.5l13 -15h2q-17 99 -94 163z
M102 189q0 -60 34.5 -100t98.5 -40q93 0 156 79.5t63 162.5q0 53 -37 85.5t-101 32.5q-88 0 -151 -65t-63 -155z" />
    <glyph glyph-name="ntilde" unicode="&#xf1;" horiz-adv-x="594" 
d="M24 0l98 503h66l-13 -72l-13 -47h2q24 47 85 89t137 42q69 0 106.5 -33t37.5 -97q0 -27 -8 -67l-62 -318h-68l58 301q8 37 8 67q0 83 -86 83q-83 0 -150 -64.5t-85 -153.5l-45 -233h-68zM217 587q22 117 106 117q22 0 38.5 -11t25 -25t20.5 -25t26 -11q38 0 51 69h54
q-23 -117 -107 -117q-27 0 -45.5 18t-33 35.5t-31.5 17.5q-20 0 -32.5 -21t-17.5 -47h-54z" />
    <glyph glyph-name="ograve" unicode="&#xf2;" horiz-adv-x="623" 
d="M33 208q0 126 94 216.5t215 90.5q102 0 166 -61t64 -156q0 -127 -95 -218.5t-214 -91.5q-102 0 -166 61.5t-64 158.5zM103 210q0 -71 44.5 -116t116.5 -45q91 0 164.5 72.5t73.5 173.5q0 70 -45 114t-116 44q-92 0 -165 -71.5t-73 -171.5zM336 584l-63 119h74l47 -119
h-58z" />
    <glyph glyph-name="oacute" unicode="&#xf3;" horiz-adv-x="623" 
d="M33 208q0 126 94 216.5t215 90.5q102 0 166 -61t64 -156q0 -127 -95 -218.5t-214 -91.5q-102 0 -166 61.5t-64 158.5zM103 210q0 -71 44.5 -116t116.5 -45q91 0 164.5 72.5t73.5 173.5q0 70 -45 114t-116 44q-92 0 -165 -71.5t-73 -171.5zM332 584l93 119h84l-111 -119
h-66z" />
    <glyph glyph-name="ocircumflex" unicode="&#xf4;" horiz-adv-x="623" 
d="M33 208q0 126 94 216.5t215 90.5q102 0 166 -61t64 -156q0 -127 -95 -218.5t-214 -91.5q-102 0 -166 61.5t-64 158.5zM103 210q0 -71 44.5 -116t116.5 -45q91 0 164.5 72.5t73.5 173.5q0 70 -45 114t-116 44q-92 0 -165 -71.5t-73 -171.5zM243 584l107 119h75l60 -119
h-63l-38 81h-2l-70 -81h-69z" />
    <glyph glyph-name="otilde" unicode="&#xf5;" horiz-adv-x="623" 
d="M33 208q0 126 94 216.5t215 90.5q102 0 166 -61t64 -156q0 -127 -95 -218.5t-214 -91.5q-102 0 -166 61.5t-64 158.5zM103 210q0 -71 44.5 -116t116.5 -45q91 0 164.5 72.5t73.5 173.5q0 70 -45 114t-116 44q-92 0 -165 -71.5t-73 -171.5zM218 587q22 117 106 117
q22 0 38.5 -11t25 -25t20.5 -25t26 -11q38 0 51 69h54q-23 -117 -107 -117q-27 0 -45.5 18t-33 35.5t-31.5 17.5q-20 0 -32.5 -21t-17.5 -47h-54z" />
    <glyph glyph-name="odieresis" unicode="&#xf6;" horiz-adv-x="623" 
d="M33 208q0 126 94 216.5t215 90.5q102 0 166 -61t64 -156q0 -127 -95 -218.5t-214 -91.5q-102 0 -166 61.5t-64 158.5zM103 210q0 -71 44.5 -116t116.5 -45q91 0 164.5 72.5t73.5 173.5q0 70 -45 114t-116 44q-92 0 -165 -71.5t-73 -171.5zM419 617l17 86h62l-17 -86h-62z
M268 617l17 86h61l-16 -86h-62z" />
    <glyph glyph-name="divide" unicode="&#xf7;" horiz-adv-x="643" 
d="M280 433v74h75v-74h-75zM73 255v58h490v-58h-490zM280 61v74h75v-74h-75z" />
    <glyph glyph-name="oslash" unicode="&#xf8;" horiz-adv-x="623" 
d="M33 208q0 126 94 216.5t215 90.5q79 0 138 -39l52 57l38 -33l-52 -57q54 -59 54 -145q0 -127 -95 -218.5t-214 -91.5q-75 0 -131 34l-51 -55l-38 32l49 54q-59 61 -59 155zM103 210q0 -63 35 -106l296 323q-41 26 -93 26q-92 0 -165 -71.5t-73 -171.5zM502 295
q0 57 -31 97l-294 -321q38 -22 87 -22q91 0 164.5 72.5t73.5 173.5z" />
    <glyph glyph-name="ugrave" unicode="&#xf9;" horiz-adv-x="589" 
d="M46 118q0 27 8 67l61 318h68l-58 -299q-7 -36 -7 -69q0 -40 19.5 -61.5t68.5 -21.5q81 0 146 67t82 153l45 231h68l-98 -503h-67l14 72l13 47h-2q-26 -48 -84.5 -89.5t-135.5 -41.5q-62 0 -101.5 31.5t-39.5 98.5zM316 584l-63 119h74l47 -119h-58z" />
    <glyph glyph-name="uacute" unicode="&#xfa;" horiz-adv-x="589" 
d="M46 118q0 27 8 67l61 318h68l-58 -299q-7 -36 -7 -69q0 -40 19.5 -61.5t68.5 -21.5q81 0 146 67t82 153l45 231h68l-98 -503h-67l14 72l13 47h-2q-26 -48 -84.5 -89.5t-135.5 -41.5q-62 0 -101.5 31.5t-39.5 98.5zM312 584l93 119h84l-111 -119h-66z" />
    <glyph glyph-name="ucircumflex" unicode="&#xfb;" horiz-adv-x="589" 
d="M46 118q0 27 8 67l61 318h68l-58 -299q-7 -36 -7 -69q0 -40 19.5 -61.5t68.5 -21.5q81 0 146 67t82 153l45 231h68l-98 -503h-67l14 72l13 47h-2q-26 -48 -84.5 -89.5t-135.5 -41.5q-62 0 -101.5 31.5t-39.5 98.5zM222 584l107 119h75l60 -119h-63l-38 81h-2l-70 -81h-69
z" />
    <glyph glyph-name="udieresis" unicode="&#xfc;" horiz-adv-x="589" 
d="M46 118q0 27 8 67l61 318h68l-58 -299q-7 -36 -7 -69q0 -40 19.5 -61.5t68.5 -21.5q81 0 146 67t82 153l45 231h68l-98 -503h-67l14 72l13 47h-2q-26 -48 -84.5 -89.5t-135.5 -41.5q-62 0 -101.5 31.5t-39.5 98.5zM399 617l17 86h62l-17 -86h-62zM248 617l17 86h61
l-16 -86h-62z" />
    <glyph glyph-name="yacute" unicode="&#xfd;" horiz-adv-x="499" 
d="M-56 -129q21 -20 56 -20q61 0 112 81l45 73l-114 498h71l78 -376l9 -53h1q14 28 28 52l218 377h77l-368 -610q-61 -103 -155 -103q-25 0 -48 7.5t-34 14.5l-10 8zM267 584l93 119h84l-111 -119h-66z" />
    <glyph glyph-name="thorn" unicode="&#xfe;" horiz-adv-x="592" 
d="M-14 -200l175 903h67l-47 -246l-11 -42h2q27 42 74 71t107 29q88 0 137 -54t49 -148q0 -139 -82 -232t-190 -93q-56 0 -98.5 26t-59.5 75h-2q-1 -22 -6 -48l-47 -241h-68zM135 194q0 -63 32 -104t94 -41q79 0 143 72t64 187q0 68 -33.5 106.5t-92.5 38.5
q-88 0 -147.5 -80.5t-59.5 -178.5z" />
    <glyph glyph-name="ydieresis" unicode="&#xff;" horiz-adv-x="499" 
d="M-56 -129q21 -20 56 -20q61 0 112 81l45 73l-114 498h71l78 -376l9 -53h1q14 28 28 52l218 377h77l-368 -610q-61 -103 -155 -103q-25 0 -48 7.5t-34 14.5l-10 8zM354 617l17 86h62l-17 -86h-62zM203 617l17 86h61l-16 -86h-62z" />
    <glyph glyph-name="Amacron" unicode="&#x100;" horiz-adv-x="613" 
d="M32 0h-75l392 703h76l121 -703h-70l-37 224h-283zM187 284h242l-42 255l-11 91h-2q-26 -58 -44 -91zM281 785l10 55h247l-10 -55h-247z" />
    <glyph glyph-name="amacron" unicode="&#x101;" horiz-adv-x="521" 
d="M8 115q0 47 22.5 83t56.5 57t81 34t90 17.5t89 4.5h32q7 31 7 53q0 90 -103 90q-37 0 -75 -12t-58 -24l-19 -12l-22 57q8 6 23.5 14.5t62.5 23t94 14.5q78 0 122 -35.5t44 -107.5q0 -25 -6 -55l-62 -317h-65l12 58l11 43h-2q1 0 -6.5 -11.5t-23 -28.5t-36.5 -33.5
t-52.5 -28t-65.5 -11.5q-64 0 -107.5 34t-43.5 93zM78 124q0 -33 24.5 -55.5t72.5 -22.5q66 0 120.5 59.5t70.5 131.5l4 18h-29q-263 0 -263 -131zM196 617l10 55h247l-10 -55h-247z" />
    <glyph glyph-name="Abreve" unicode="&#x102;" horiz-adv-x="613" 
d="M32 0h-75l392 703h76l121 -703h-70l-37 224h-283zM187 284h242l-42 255l-11 91h-2q-26 -58 -44 -91zM399 749q-48 0 -78.5 30t-20.5 77l3 15h55l-3 -13q-6 -31 8.5 -46.5t40.5 -15.5t46 15.5t26 46.5l3 13h55l-3 -15q-9 -54 -45.5 -80.5t-86.5 -26.5z" />
    <glyph glyph-name="abreve" unicode="&#x103;" horiz-adv-x="521" 
d="M8 115q0 47 22.5 83t56.5 57t81 34t90 17.5t89 4.5h32q7 31 7 53q0 90 -103 90q-37 0 -75 -12t-58 -24l-19 -12l-22 57q8 6 23.5 14.5t62.5 23t94 14.5q78 0 122 -35.5t44 -107.5q0 -25 -6 -55l-62 -317h-65l12 58l11 43h-2q1 0 -6.5 -11.5t-23 -28.5t-36.5 -33.5
t-52.5 -28t-65.5 -11.5q-64 0 -107.5 34t-43.5 93zM78 124q0 -33 24.5 -55.5t72.5 -22.5q66 0 120.5 59.5t70.5 131.5l4 18h-29q-263 0 -263 -131zM315 581q-48 0 -78.5 30t-20.5 77l3 15h55l-3 -13q-6 -31 8.5 -46.5t40.5 -15.5t46 15.5t26 46.5l3 13h55l-3 -15
q-9 -54 -45.5 -80.5t-86.5 -26.5z" />
    <glyph glyph-name="Aogonek" unicode="&#x104;" horiz-adv-x="613" 
d="M386 -129q0 67 90 129l-37 224h-283l-124 -224h-75l392 703h76l121 -703q-94 -60 -94 -108q0 -16 13.5 -26.5t26.5 -12.5l14 -2l-26 -56q-4 0 -10 1t-22.5 6t-29 12t-22.5 22t-10 35zM187 284h242l-42 255l-11 91h-2q-26 -58 -44 -91z" />
    <glyph glyph-name="aogonek" unicode="&#x105;" horiz-adv-x="521" 
d="M8 115q0 47 22.5 83t56.5 57t81 34t90 17.5t89 4.5h32q7 31 7 53q0 90 -103 90q-37 0 -75 -12t-58 -24l-19 -12l-22 57q8 6 23.5 14.5t62.5 23t94 14.5q78 0 122 -35.5t44 -107.5q0 -25 -6 -55l-62 -317q-93 -62 -93 -108q0 -16 13 -26.5t27 -12.5l13 -2l-25 -56
q-4 0 -10.5 1t-22.5 6t-28.5 12t-23 22t-10.5 35q0 69 95 132l12 55l11 43h-2q1 0 -6.5 -11.5t-23 -28.5t-36.5 -33.5t-52.5 -28t-65.5 -11.5q-64 0 -107.5 34t-43.5 93zM78 124q0 -33 24.5 -55.5t72.5 -22.5q66 0 120.5 59.5t70.5 131.5l4 18h-29q-263 0 -263 -131z" />
    <glyph glyph-name="Cacute" unicode="&#x106;" horiz-adv-x="727" 
d="M59 290q0 114 58.5 212.5t155 155.5t203.5 57q48 0 91.5 -9.5t71 -22.5t47.5 -26.5t29 -22.5l9 -10l-44 -49q-3 3 -8.5 8t-24.5 18t-40.5 23t-56.5 18t-72 8q-140 0 -243.5 -106.5t-103.5 -251.5q0 -105 63.5 -172t169.5 -67q63 0 124.5 23.5t91.5 46.5l30 23l34 -54
l-14 -11t-38 -25t-60 -32t-77.5 -25t-92.5 -11q-139 0 -221 84t-82 218zM455 752l93 119h84l-111 -119h-66z" />
    <glyph glyph-name="cacute" unicode="&#x107;" horiz-adv-x="549" 
d="M33 202q0 133 93.5 223t215.5 90q56 0 101.5 -18t62.5 -36l18 -18l-41 -46q-5 6 -15.5 15.5t-46.5 25t-76 15.5q-94 0 -168 -71t-74 -174q0 -71 45.5 -115t118.5 -44q29 0 57.5 7.5t49 17.5t37 20.5t24.5 17.5l8 8l21 -57q-3 -3 -9 -8t-26.5 -18t-42 -23t-55 -18
t-67.5 -8q-103 0 -167 59t-64 155zM315 584l93 119h84l-111 -119h-66z" />
    <glyph glyph-name="Ccircumflex" unicode="&#x108;" horiz-adv-x="727" 
d="M59 290q0 114 58.5 212.5t155 155.5t203.5 57q48 0 91.5 -9.5t71 -22.5t47.5 -26.5t29 -22.5l9 -10l-44 -49q-3 3 -8.5 8t-24.5 18t-40.5 23t-56.5 18t-72 8q-140 0 -243.5 -106.5t-103.5 -251.5q0 -105 63.5 -172t169.5 -67q63 0 124.5 23.5t91.5 46.5l30 23l34 -54
l-14 -11t-38 -25t-60 -32t-77.5 -25t-92.5 -11q-139 0 -221 84t-82 218zM366 752l107 119h75l60 -119h-63l-38 81h-2l-70 -81h-69z" />
    <glyph glyph-name="ccircumflex" unicode="&#x109;" horiz-adv-x="549" 
d="M33 202q0 133 93.5 223t215.5 90q56 0 101.5 -18t62.5 -36l18 -18l-41 -46q-5 6 -15.5 15.5t-46.5 25t-76 15.5q-94 0 -168 -71t-74 -174q0 -71 45.5 -115t118.5 -44q29 0 57.5 7.5t49 17.5t37 20.5t24.5 17.5l8 8l21 -57q-3 -3 -9 -8t-26.5 -18t-42 -23t-55 -18
t-67.5 -8q-103 0 -167 59t-64 155zM226 584l107 119h75l60 -119h-63l-38 81h-2l-70 -81h-69z" />
    <glyph glyph-name="Cdotaccent" unicode="&#x10a;" horiz-adv-x="727" 
d="M59 290q0 114 58.5 212.5t155 155.5t203.5 57q48 0 91.5 -9.5t71 -22.5t47.5 -26.5t29 -22.5l9 -10l-44 -49q-3 3 -8.5 8t-24.5 18t-40.5 23t-56.5 18t-72 8q-140 0 -243.5 -106.5t-103.5 -251.5q0 -105 63.5 -172t169.5 -67q63 0 124.5 23.5t91.5 46.5l30 23l34 -54
l-14 -11t-38 -25t-60 -32t-77.5 -25t-92.5 -11q-139 0 -221 84t-82 218zM464 786l17 85h65l-16 -85h-66z" />
    <glyph glyph-name="cdotaccent" unicode="&#x10b;" horiz-adv-x="549" 
d="M33 202q0 133 93.5 223t215.5 90q56 0 101.5 -18t62.5 -36l18 -18l-41 -46q-5 6 -15.5 15.5t-46.5 25t-76 15.5q-94 0 -168 -71t-74 -174q0 -71 45.5 -115t118.5 -44q29 0 57.5 7.5t49 17.5t37 20.5t24.5 17.5l8 8l21 -57q-3 -3 -9 -8t-26.5 -18t-42 -23t-55 -18
t-67.5 -8q-103 0 -167 59t-64 155zM324 618l17 85h65l-16 -85h-66z" />
    <glyph glyph-name="Ccaron" unicode="&#x10c;" horiz-adv-x="727" 
d="M59 290q0 114 58.5 212.5t155 155.5t203.5 57q48 0 91.5 -9.5t71 -22.5t47.5 -26.5t29 -22.5l9 -10l-44 -49q-3 3 -8.5 8t-24.5 18t-40.5 23t-56.5 18t-72 8q-140 0 -243.5 -106.5t-103.5 -251.5q0 -105 63.5 -172t169.5 -67q63 0 124.5 23.5t91.5 46.5l30 23l34 -54
l-14 -11t-38 -25t-60 -32t-77.5 -25t-92.5 -11q-139 0 -221 84t-82 218zM456 752l-60 119h63l38 -80h2l70 80h69l-107 -119h-75z" />
    <glyph glyph-name="ccaron" unicode="&#x10d;" horiz-adv-x="549" 
d="M33 202q0 133 93.5 223t215.5 90q56 0 101.5 -18t62.5 -36l18 -18l-41 -46q-5 6 -15.5 15.5t-46.5 25t-76 15.5q-94 0 -168 -71t-74 -174q0 -71 45.5 -115t118.5 -44q29 0 57.5 7.5t49 17.5t37 20.5t24.5 17.5l8 8l21 -57q-3 -3 -9 -8t-26.5 -18t-42 -23t-55 -18
t-67.5 -8q-103 0 -167 59t-64 155zM316 584l-60 119h63l38 -80h2l70 80h69l-107 -119h-75z" />
    <glyph glyph-name="Dcaron" unicode="&#x10e;" horiz-adv-x="738" 
d="M44 0l137 703h213q143 0 224 -71.5t81 -201.5q0 -180 -117.5 -305t-298.5 -125h-239zM124 62h151q152 0 252 104.5t100 259.5q0 103 -63.5 159t-175.5 56h-150zM396 752l-60 119h63l38 -80h2l70 80h69l-107 -119h-75z" />
    <glyph glyph-name="dcaron" unicode="&#x10f;" horiz-adv-x="621" 
d="M34 190q0 140 82.5 232.5t193.5 92.5q55 0 97 -25.5t58 -74.5h2q0 21 4 42l48 246h68l-136 -703h-66l10 53l11 40h-2q-27 -44 -75.5 -74.5t-107.5 -30.5q-90 0 -138.5 54t-48.5 148zM104 194q0 -68 34 -106.5t94 -38.5q89 0 147.5 81.5t58.5 180.5q0 62 -31.5 102
t-93.5 40q-79 0 -144 -72t-65 -187zM649 703h66v-14q0 -55 -44 -125h-56q37 63 37 111q0 13 -3 28z" />
    <glyph glyph-name="Dcroat" unicode="&#x110;" horiz-adv-x="752" 
d="M61 323l12 60h59l63 320h213q143 0 224 -71.5t81 -201.5q0 -180 -117.5 -305t-299.5 -125h-239l63 323h-59zM138 62h151q152 0 252 104.5t100 259.5q0 103 -63.5 159t-175.5 56h-150l-51 -258h168l-12 -60h-168z" />
    <glyph glyph-name="dcroat" unicode="&#x111;" horiz-adv-x="590" 
d="M361 566l10 51h131l17 86h68l-17 -86h80l-10 -51h-80l-109 -566h-66l10 53l11 40h-2q-28 -45 -76 -75t-107 -30q-90 0 -138.5 54t-48.5 148q0 140 82.5 232.5t193.5 92.5q55 0 97 -25.5t57 -74.5h2q1 21 5 42l21 109h-131zM104 194q0 -68 34 -106.5t94 -38.5
q89 0 147.5 81.5t58.5 180.5q0 62 -31.5 102t-93.5 40q-79 0 -144 -72t-65 -187z" />
    <glyph glyph-name="Emacron" unicode="&#x112;" horiz-adv-x="568" 
d="M44 0l137 703h396l-13 -62h-326l-50 -256h267l-12 -62h-266l-52 -261h344l-11 -62h-414zM283 785l10 55h247l-10 -55h-247z" />
    <glyph glyph-name="emacron" unicode="&#x113;" horiz-adv-x="553" 
d="M34 200q0 126 84 220.5t208 94.5q91 0 137.5 -50t46.5 -132q0 -17 -4 -38.5t-8 -34.5l-3 -12h-386q-4 -20 -4 -43q0 -68 42 -112t119 -44q40 0 81 15.5t62 30.5l21 15l22 -56q-9 -7 -25.5 -18t-66 -29.5t-96.5 -18.5q-103 0 -166.5 58.5t-63.5 153.5zM122 304h315
q3 17 3 35q0 58 -31.5 88.5t-82.5 30.5q-65 0 -121.5 -41t-82.5 -113zM234 617l10 55h247l-10 -55h-247z" />
    <glyph glyph-name="Ebreve" unicode="&#x114;" horiz-adv-x="568" 
d="M44 0l137 703h396l-13 -62h-326l-50 -256h267l-12 -62h-266l-52 -261h344l-11 -62h-414zM402 749q-48 0 -78.5 30t-20.5 77l3 15h55l-3 -13q-6 -31 8.5 -46.5t40.5 -15.5t46 15.5t26 46.5l3 13h55l-3 -15q-9 -54 -45.5 -80.5t-86.5 -26.5z" />
    <glyph glyph-name="ebreve" unicode="&#x115;" horiz-adv-x="553" 
d="M34 200q0 126 84 220.5t208 94.5q91 0 137.5 -50t46.5 -132q0 -17 -4 -38.5t-8 -34.5l-3 -12h-386q-4 -20 -4 -43q0 -68 42 -112t119 -44q40 0 81 15.5t62 30.5l21 15l22 -56q-9 -7 -25.5 -18t-66 -29.5t-96.5 -18.5q-103 0 -166.5 58.5t-63.5 153.5zM122 304h315
q3 17 3 35q0 58 -31.5 88.5t-82.5 30.5q-65 0 -121.5 -41t-82.5 -113zM352 581q-48 0 -78.5 30t-20.5 77l3 15h55l-3 -13q-6 -31 8.5 -46.5t40.5 -15.5t46 15.5t26 46.5l3 13h55l-3 -15q-9 -54 -45.5 -80.5t-86.5 -26.5z" />
    <glyph glyph-name="Edotaccent" unicode="&#x116;" horiz-adv-x="568" 
d="M44 0l137 703h396l-13 -62h-326l-50 -256h267l-12 -62h-266l-52 -261h344l-11 -62h-414zM374 786l17 85h65l-16 -85h-66z" />
    <glyph glyph-name="edotaccent" unicode="&#x117;" horiz-adv-x="553" 
d="M34 200q0 126 84 220.5t208 94.5q91 0 137.5 -50t46.5 -132q0 -17 -4 -38.5t-8 -34.5l-3 -12h-386q-4 -20 -4 -43q0 -68 42 -112t119 -44q40 0 81 15.5t62 30.5l21 15l22 -56q-9 -7 -25.5 -18t-66 -29.5t-96.5 -18.5q-103 0 -166.5 58.5t-63.5 153.5zM122 304h315
q3 17 3 35q0 58 -31.5 88.5t-82.5 30.5q-65 0 -121.5 -41t-82.5 -113zM324 618l17 85h65l-16 -85h-66z" />
    <glyph glyph-name="Eogonek" unicode="&#x118;" horiz-adv-x="568" 
d="M44 0l137 703h396l-13 -62h-326l-50 -256h267l-12 -62h-266l-52 -261h344l-11 -62q-94 -60 -94 -108q0 -16 13.5 -26.5t26.5 -12.5l14 -2l-26 -56q-4 0 -10 1t-22.5 6t-29 12t-22.5 22t-10 35q0 64 87 127v2h-341z" />
    <glyph glyph-name="eogonek" unicode="&#x119;" horiz-adv-x="554" 
d="M34 200q0 126 84 220.5t208 94.5q91 0 137.5 -50t46.5 -132q0 -17 -4 -38.5t-8 -34.5l-3 -12h-386q-4 -20 -4 -43q0 -68 42 -112t119 -44q40 0 81 15.5t62 30.5l21 15l22 -56q-7 -6 -56 -34t-86 -61t-37 -67q0 -16 13.5 -26.5t27.5 -12.5l13 -2l-26 -56q-4 0 -10 1
t-22.5 6t-29 12t-22.5 22t-10 35q0 62 74 116v2q-6 -1 -17 -1q-103 0 -166.5 58.5t-63.5 153.5zM122 304h315q3 17 3 35q0 58 -31.5 88.5t-82.5 30.5q-65 0 -121.5 -41t-82.5 -113z" />
    <glyph glyph-name="Ecaron" unicode="&#x11a;" horiz-adv-x="568" 
d="M44 0l137 703h396l-13 -62h-326l-50 -256h267l-12 -62h-266l-52 -261h344l-11 -62h-414zM366 752l-60 119h63l38 -80h2l70 80h69l-107 -119h-75z" />
    <glyph glyph-name="ecaron" unicode="&#x11b;" horiz-adv-x="553" 
d="M34 200q0 126 84 220.5t208 94.5q91 0 137.5 -50t46.5 -132q0 -17 -4 -38.5t-8 -34.5l-3 -12h-386q-4 -20 -4 -43q0 -68 42 -112t119 -44q40 0 81 15.5t62 30.5l21 15l22 -56q-9 -7 -25.5 -18t-66 -29.5t-96.5 -18.5q-103 0 -166.5 58.5t-63.5 153.5zM122 304h315
q3 17 3 35q0 58 -31.5 88.5t-82.5 30.5q-65 0 -121.5 -41t-82.5 -113zM316 584l-60 119h63l38 -80h2l70 80h69l-107 -119h-75z" />
    <glyph glyph-name="Gcircumflex" unicode="&#x11c;" horiz-adv-x="757" 
d="M58 282q0 115 58 215t155.5 159t207.5 59q74 0 135 -20.5t86 -40.5l24 -20l-44 -50q-3 3 -8.5 7.5t-24.5 15.5t-40.5 20t-56 16t-70.5 7q-143 0 -246.5 -109t-103.5 -256q0 -104 63 -168t165 -64q62 0 123 27.5t91 54.5l29 27l23 112h-120l12 62h185l-65 -336h-64l11 54
l7 30h-2l-11 -10.5t-31.5 -23t-50.5 -29t-65.5 -23t-79.5 -10.5q-129 0 -210.5 82t-81.5 212zM362 752l107 119h75l60 -119h-63l-38 81h-2l-70 -81h-69z" />
    <glyph glyph-name="gcircumflex" unicode="&#x11d;" horiz-adv-x="583" 
d="M38 -116q56 -33 132 -33q77 0 133 39.5t73 118.5l10 46l11 40h-2q-62 -92 -167 -92q-89 0 -140 54.5t-51 145.5q0 74 29.5 143.5t91.5 119t143 49.5q57 0 101 -21t59 -68h2q-1 11 1 22l11 55h66l-97 -497q-22 -112 -96.5 -164t-172.5 -52q-92 0 -170 42zM107 207
q0 -67 34.5 -105t97.5 -38t109 44t66 103t20 120q0 122 -128 122q-91 0 -145 -74.5t-54 -171.5zM217 584l107 119h75l60 -119h-63l-38 81h-2l-70 -81h-69z" />
    <glyph glyph-name="Gbreve" unicode="&#x11e;" horiz-adv-x="757" 
d="M58 282q0 115 58 215t155.5 159t207.5 59q74 0 135 -20.5t86 -40.5l24 -20l-44 -50q-3 3 -8.5 7.5t-24.5 15.5t-40.5 20t-56 16t-70.5 7q-143 0 -246.5 -109t-103.5 -256q0 -104 63 -168t165 -64q62 0 123 27.5t91 54.5l29 27l23 112h-120l12 62h185l-65 -336h-64l11 54
l7 30h-2l-11 -10.5t-31.5 -23t-50.5 -29t-65.5 -23t-79.5 -10.5q-129 0 -210.5 82t-81.5 212zM489 749q-48 0 -78.5 30t-20.5 77l3 15h55l-3 -13q-6 -31 8.5 -46.5t40.5 -15.5t46 15.5t26 46.5l3 13h55l-3 -15q-9 -54 -45.5 -80.5t-86.5 -26.5z" />
    <glyph glyph-name="gbreve" unicode="&#x11f;" horiz-adv-x="583" 
d="M38 -116q56 -33 132 -33q77 0 133 39.5t73 118.5l10 46l11 40h-2q-62 -92 -167 -92q-89 0 -140 54.5t-51 145.5q0 74 29.5 143.5t91.5 119t143 49.5q57 0 101 -21t59 -68h2q-1 11 1 22l11 55h66l-97 -497q-22 -112 -96.5 -164t-172.5 -52q-92 0 -170 42zM107 207
q0 -67 34.5 -105t97.5 -38t109 44t66 103t20 120q0 122 -128 122q-91 0 -145 -74.5t-54 -171.5zM344 581q-48 0 -78.5 30t-20.5 77l3 15h55l-3 -13q-6 -31 8.5 -46.5t40.5 -15.5t46 15.5t26 46.5l3 13h55l-3 -15q-9 -54 -45.5 -80.5t-86.5 -26.5z" />
    <glyph glyph-name="Gdotaccent" unicode="&#x120;" horiz-adv-x="757" 
d="M58 282q0 115 58 215t155.5 159t207.5 59q74 0 135 -20.5t86 -40.5l24 -20l-44 -50q-3 3 -8.5 7.5t-24.5 15.5t-40.5 20t-56 16t-70.5 7q-143 0 -246.5 -109t-103.5 -256q0 -104 63 -168t165 -64q62 0 123 27.5t91 54.5l29 27l23 112h-120l12 62h185l-65 -336h-64l11 54
l7 30h-2l-11 -10.5t-31.5 -23t-50.5 -29t-65.5 -23t-79.5 -10.5q-129 0 -210.5 82t-81.5 212zM461 786l17 85h65l-16 -85h-66z" />
    <glyph glyph-name="gdotaccent" unicode="&#x121;" horiz-adv-x="583" 
d="M38 -116q56 -33 132 -33q77 0 133 39.5t73 118.5l10 46l11 40h-2q-62 -92 -167 -92q-89 0 -140 54.5t-51 145.5q0 74 29.5 143.5t91.5 119t143 49.5q57 0 101 -21t59 -68h2q-1 11 1 22l11 55h66l-97 -497q-22 -112 -96.5 -164t-172.5 -52q-92 0 -170 42zM107 207
q0 -67 34.5 -105t97.5 -38t109 44t66 103t20 120q0 122 -128 122q-91 0 -145 -74.5t-54 -171.5zM316 618l17 85h65l-16 -85h-66z" />
    <glyph glyph-name="Gcommaaccent" unicode="&#x122;" horiz-adv-x="757" 
d="M58 282q0 115 58 215t155.5 159t207.5 59q74 0 135 -20.5t86 -40.5l24 -20l-44 -50q-3 3 -8.5 7.5t-24.5 15.5t-40.5 20t-56 16t-70.5 7q-143 0 -246.5 -109t-103.5 -256q0 -104 63 -168t165 -64q62 0 123 27.5t91 54.5l29 27l23 112h-120l12 62h185l-65 -336h-64l11 54
l7 30h-2l-11 -10.5t-31.5 -23t-50.5 -29t-65.5 -23t-79.5 -10.5q-129 0 -210.5 82t-81.5 212zM296 -63h66v-14q0 -55 -44 -125h-56q37 63 37 111q0 13 -3 28z" />
    <glyph glyph-name="gcommaaccent" unicode="&#x123;" horiz-adv-x="583" 
d="M38 -116q56 -33 132 -33q77 0 133 39.5t73 118.5l10 46l11 40h-2q-62 -92 -167 -92q-89 0 -140 54.5t-51 145.5q0 74 29.5 143.5t91.5 119t143 49.5q57 0 101 -21t59 -68h2q-1 11 1 22l11 55h66l-97 -497q-22 -112 -96.5 -164t-172.5 -52q-92 0 -170 42zM107 207
q0 -67 34.5 -105t97.5 -38t109 44t66 103t20 120q0 122 -128 122q-91 0 -145 -74.5t-54 -171.5zM487 566h-66v13q0 55 44 125h56q-37 -63 -37 -111q0 -13 3 -27z" />
    <glyph glyph-name="Hcircumflex" unicode="&#x124;" horiz-adv-x="750" 
d="M44 0l137 703h69l-62 -320h407l63 320h69l-137 -703h-70l63 321h-407l-63 -321h-69zM341 752l107 119h75l60 -119h-63l-38 81h-2l-70 -81h-69z" />
    <glyph glyph-name="hcircumflex" unicode="&#x125;" horiz-adv-x="594" 
d="M24 0l137 703h68l-52 -272l-12 -45h2q24 46 84.5 87.5t135.5 41.5q69 0 106 -33t37 -97q0 -27 -8 -67l-61 -318h-68l58 301q8 46 8 67q0 41 -23 62t-63 21q-83 0 -150.5 -64.5t-85.5 -153.5l-45 -233h-68zM82 752l107 119h75l60 -119h-63l-38 81h-2l-70 -81h-69z" />
    <glyph glyph-name="Hbar" unicode="&#x126;" horiz-adv-x="792" 
d="M101 512l10 54h64l27 137h69l-27 -137h408l27 137h69l-27 -137h64l-10 -54h-65l-100 -512h-69l63 321h-408l-62 -321h-70l100 512h-63zM209 383h407l25 129h-407z" />
    <glyph glyph-name="hbar" unicode="&#x127;" horiz-adv-x="595" 
d="M59 566l10 51h75l17 86h68l-17 -86h134l-10 -51h-133l-26 -135l-12 -45h2q25 47 85 88t135 41q69 0 106 -33t37 -97q0 -32 -7 -67l-62 -318h-68l58 301q8 37 8 67q0 83 -86 83q-83 0 -150.5 -64.5t-84.5 -153.5l-45 -233h-68l109 566h-75z" />
    <glyph glyph-name="Itilde" unicode="&#x128;" horiz-adv-x="273" 
d="M44 0l137 703h69l-137 -703h-69zM78 755q22 117 106 117q22 0 38.5 -11t25 -25t20.5 -25t26 -11q38 0 51 69h54q-23 -117 -107 -117q-27 0 -45.5 18t-33 35.5t-31.5 17.5q-20 0 -32.5 -21t-17.5 -47h-54z" />
    <glyph glyph-name="itilde" unicode="&#x129;" horiz-adv-x="232" 
d="M24 587q22 117 106 117q22 0 38.5 -11t25 -25t20.5 -25t26 -11q38 0 51 69h54q-23 -117 -107 -117q-27 0 -45.5 18t-33 35.5t-31.5 17.5q-20 0 -32.5 -21t-17.5 -47h-54zM25 0l97 503h68l-97 -503h-68z" />
    <glyph glyph-name="Imacron" unicode="&#x12a;" horiz-adv-x="273" 
d="M44 0l137 703h69l-137 -703h-69zM110 785l10 55h247l-10 -55h-247z" />
    <glyph glyph-name="imacron" unicode="&#x12b;" horiz-adv-x="232" 
d="M56 617l10 55h247l-10 -55h-247zM25 0l97 503h68l-97 -503h-68z" />
    <glyph glyph-name="Ibreve" unicode="&#x12c;" horiz-adv-x="273" 
d="M44 0l137 703h69l-137 -703h-69zM228 749q-48 0 -78.5 30t-20.5 77l3 15h55l-3 -13q-6 -31 8.5 -46.5t40.5 -15.5t46 15.5t26 46.5l3 13h55l-3 -15q-9 -54 -45.5 -80.5t-86.5 -26.5z" />
    <glyph glyph-name="ibreve" unicode="&#x12d;" horiz-adv-x="232" 
d="M175 581q-48 0 -78.5 30t-20.5 77l3 15h55l-3 -13q-6 -31 8.5 -46.5t40.5 -15.5t46 15.5t26 46.5l3 13h55l-3 -15q-9 -54 -45.5 -80.5t-86.5 -26.5zM25 0l97 503h68l-97 -503h-68z" />
    <glyph glyph-name="Iogonek" unicode="&#x12e;" horiz-adv-x="273" 
d="M250 703l-137 -703q-94 -63 -94 -108q0 -16 13.5 -26.5t27.5 -12.5l13 -2l-26 -56q-4 0 -10 1t-22.5 6t-29 12t-22.5 22t-10 35q0 68 91 129l137 703h69z" />
    <glyph glyph-name="iogonek" unicode="&#x12f;" horiz-adv-x="233" 
d="M191 503l-98 -503q-94 -63 -94 -108q0 -16 13.5 -26.5t27.5 -12.5l13 -2l-26 -56q-4 0 -10 1t-22.5 6t-29 12t-22.5 22t-10 35q0 68 92 130l98 502h68zM142 618l18 85h73l-17 -85h-74z" />
    <glyph glyph-name="Idotaccent" unicode="&#x130;" horiz-adv-x="273" 
d="M44 0l137 703h69l-137 -703h-69zM200 786l17 85h65l-16 -85h-66z" />
    <glyph glyph-name="dotlessi" unicode="&#x131;" horiz-adv-x="232" 
d="M25 0l97 503h68l-97 -503h-68z" />
    <glyph glyph-name="IJ" unicode="&#x132;" horiz-adv-x="581" 
d="M214 -5l12 64q147 0 180 169l92 475h69l-92 -475q-11 -57 -31.5 -100t-45 -68t-56.5 -40t-62 -20t-66 -5zM44 0l137 703h69l-137 -703h-69z" />
    <glyph glyph-name="ij" unicode="&#x133;" horiz-adv-x="465" 
d="M141 618l18 85h73l-17 -85h-74zM24 0l98 503h68l-98 -503h-68zM374 618l17 85h73l-16 -85h-74zM255 -16l100 519h68l-101 -521q-11 -59 -36 -99.5t-56.5 -58t-56.5 -24t-51 -6.5l-40 3l12 59q8 -1 22 -1q18 0 35.5 4.5t39 16.5t39 40t25.5 68z" />
    <glyph glyph-name="Jcircumflex" unicode="&#x134;" horiz-adv-x="518" 
d="M7 147q0 25 5 52l5 26h69l-4 -25q-5 -25 -5 -43q0 -104 104 -104q33 0 63 12.5t56.5 46.5t36.5 85l85 444h-171l12 62h240l-99 -513q-20 -104 -83 -153t-141 -49q-74 0 -123.5 39.5t-49.5 119.5zM268 752l107 119h75l60 -119h-63l-38 81h-2l-70 -81h-69z" />
    <glyph glyph-name="jcircumflex" unicode="&#x135;" horiz-adv-x="232" 
d="M45 584l108 119h75l60 -119h-63l-38 81h-2l-70 -81h-70zM21 -16l101 519h68l-101 -521q-11 -59 -36 -99.5t-56.5 -58t-56.5 -24t-51 -6.5l-40 3l12 59q8 -1 22 -1q18 0 35.5 4.5t39 16.5t38.5 40t25 68z" />
    <glyph glyph-name="Kcommaaccent" unicode="&#x136;" horiz-adv-x="600" 
d="M44 0l137 703h69l-59 -305h114l253 305h82l-279 -335v-2l153 -366h-75l-138 336h-122l-66 -336h-69zM208 -63h66v-14q0 -55 -44 -125h-56q37 63 37 111q0 13 -3 28z" />
    <glyph glyph-name="kcommaaccent" unicode="&#x137;" horiz-adv-x="501" 
d="M24 0l138 703h68l-77 -392h78l188 192h86l-219 -222v-2l137 -279h-75l-120 251h-86l-50 -251h-68zM167 -63h66v-14q0 -55 -44 -125h-56q37 63 37 111q0 13 -3 28z" />
    <glyph glyph-name="kgreenlandic" unicode="&#x138;" horiz-adv-x="507" 
d="M25 0l97 503h68l-39 -206h78l200 206h87l-233 -236v-2l131 -265h-77l-112 238h-86l-46 -238h-68z" />
    <glyph glyph-name="Lacute" unicode="&#x139;" horiz-adv-x="510" 
d="M44 0l137 703h69l-125 -641h326l-13 -62h-394zM189 752l93 119h84l-111 -119h-66z" />
    <glyph glyph-name="lacute" unicode="&#x13a;" horiz-adv-x="247" 
d="M39 89q0 17 4 36l113 578h68l-111 -569q-3 -16 -3 -31q0 -20 8 -30.5t17 -12.5t22 -2l15 1l-13 -61q-11 -2 -23 -2q-38 0 -67.5 20.5t-29.5 72.5zM165 752l93 119h84l-111 -119h-66z" />
    <glyph glyph-name="Lcommaaccent" unicode="&#x13b;" horiz-adv-x="510" 
d="M44 0l137 703h69l-125 -641h326l-13 -62h-394zM202 -63h66v-14q0 -55 -44 -125h-56q37 63 37 111q0 13 -3 28z" />
    <glyph glyph-name="lcommaaccent" unicode="&#x13c;" horiz-adv-x="247" 
d="M39 89q0 17 4 36l113 578h68l-111 -569q-3 -16 -3 -31q0 -20 8 -30.5t17 -12.5t22 -2l15 1l-13 -61q-11 -2 -23 -2q-38 0 -67.5 20.5t-29.5 72.5zM45 -63h66v-14q0 -55 -44 -125h-56q37 63 37 111q0 13 -3 28z" />
    <glyph glyph-name="Lcaron" unicode="&#x13d;" horiz-adv-x="510" 
d="M44 0l137 703h69l-125 -641h326l-13 -62h-394zM341 703h66v-14q0 -55 -44 -125h-56q37 63 37 111q0 13 -3 28z" />
    <glyph glyph-name="lcaron" unicode="&#x13e;" horiz-adv-x="277" 
d="M39 89q0 17 4 36l113 578h68l-111 -569q-3 -16 -3 -31q0 -20 8 -30.5t17 -12.5t22 -2l15 1l-13 -61q-11 -2 -23 -2q-38 0 -67.5 20.5t-29.5 72.5zM287 703h66v-14q0 -55 -44 -125h-56q37 63 37 111q0 13 -3 28z" />
    <glyph glyph-name="Ldot" unicode="&#x13f;" horiz-adv-x="510" 
d="M44 0l137 703h69l-125 -641h326l-13 -62h-394zM301 330l16 83h80l-15 -83h-81z" />
    <glyph glyph-name="ldot" unicode="&#x140;" horiz-adv-x="300" 
d="M39 89q0 17 4 36l113 578h68l-111 -569q-3 -16 -3 -31q0 -20 8 -30.5t17 -12.5t22 -2l15 1l-13 -61q-11 -2 -23 -2q-38 0 -67.5 20.5t-29.5 72.5zM219 330l16 83h80l-15 -83h-81z" />
    <glyph glyph-name="Lslash" unicode="&#x141;" horiz-adv-x="532" 
d="M63 302l14 70l69 36l58 295h69l-50 -255l125 65l-14 -72l-125 -64l-61 -315h326l-13 -62h-394l66 338z" />
    <glyph glyph-name="lslash" unicode="&#x142;" horiz-adv-x="307" 
d="M38 306l12 70l90 47l55 280h68l-47 -241l97 51l-14 -72l-97 -51l-50 -256q-3 -16 -3 -31q0 -20 8 -30.5t17 -12.5t22 -2l15 1l-13 -61q-11 -2 -23 -2q-38 0 -67.5 20.5t-29.5 72.5q0 17 4 36l44 226z" />
    <glyph glyph-name="Nacute" unicode="&#x143;" horiz-adv-x="747" 
d="M44 0l137 703h62l260 -506q8 -16 18 -39.5t15 -39.5l6 -16h2q5 58 12 95l99 506h69l-137 -703h-62l-260 506l-40 95h-2q-5 -58 -12 -95l-98 -506h-69zM427 752l93 119h84l-111 -119h-66z" />
    <glyph glyph-name="nacute" unicode="&#x144;" horiz-adv-x="594" 
d="M24 0l98 503h66l-13 -72l-13 -47h2q24 47 85 89t137 42q69 0 106.5 -33t37.5 -97q0 -27 -8 -67l-62 -318h-68l58 301q8 37 8 67q0 83 -86 83q-83 0 -150 -64.5t-85 -153.5l-45 -233h-68zM330 584l93 119h84l-111 -119h-66z" />
    <glyph glyph-name="Ncommaaccent" unicode="&#x145;" horiz-adv-x="747" 
d="M44 0l137 703h62l260 -506q8 -16 18 -39.5t15 -39.5l6 -16h2q5 58 12 95l99 506h69l-137 -703h-62l-260 506l-40 95h-2q-5 -58 -12 -95l-98 -506h-69zM272 -63h66v-14q0 -55 -44 -125h-56q37 63 37 111q0 13 -3 28z" />
    <glyph glyph-name="ncommaaccent" unicode="&#x146;" horiz-adv-x="594" 
d="M24 0l98 503h66l-13 -72l-13 -47h2q24 47 85 89t137 42q69 0 106.5 -33t37.5 -97q0 -27 -8 -67l-62 -318h-68l58 301q8 37 8 67q0 83 -86 83q-83 0 -150 -64.5t-85 -153.5l-45 -233h-68zM204 -63h66v-14q0 -55 -44 -125h-56q37 63 37 111q0 13 -3 28z" />
    <glyph glyph-name="Ncaron" unicode="&#x147;" horiz-adv-x="747" 
d="M44 0l137 703h62l260 -506q8 -16 18 -39.5t15 -39.5l6 -16h2q5 58 12 95l99 506h69l-137 -703h-62l-260 506l-40 95h-2q-5 -58 -12 -95l-98 -506h-69zM427 752l-60 119h63l38 -80h2l70 80h69l-107 -119h-75z" />
    <glyph glyph-name="ncaron" unicode="&#x148;" horiz-adv-x="594" 
d="M24 0l98 503h66l-13 -72l-13 -47h2q24 47 85 89t137 42q69 0 106.5 -33t37.5 -97q0 -27 -8 -67l-62 -318h-68l58 301q8 37 8 67q0 83 -86 83q-83 0 -150 -64.5t-85 -153.5l-45 -233h-68zM331 584l-60 119h63l38 -80h2l70 80h69l-107 -119h-75z" />
    <glyph glyph-name="napostrophe" unicode="&#x149;" horiz-adv-x="594" 
d="M24 0l98 503h66l-13 -72l-13 -47h2q24 47 85 89t137 42q69 0 106.5 -33t37.5 -97q0 -27 -8 -67l-62 -318h-68l58 301q8 37 8 67q0 83 -86 83q-83 0 -150 -64.5t-85 -153.5l-45 -233h-68zM95 703h66v-14q0 -55 -44 -125h-56q37 63 37 111q0 13 -3 28z" />
    <glyph glyph-name="Eng" unicode="&#x14a;" horiz-adv-x="747" 
d="M44 0l137 703h62l260 -506l40 -95h2q5 58 12 95l98 506h70l-133 -675q-14 -72 -41 -120.5t-64 -72t-73 -32t-82 -8.5l12 64q139 0 176 152l-255 495l-40 95h-2q-4 -58 -11 -95l-99 -506h-69z" />
    <glyph glyph-name="eng" unicode="&#x14b;" horiz-adv-x="595" 
d="M25 0l97 503h67l-13 -72l-14 -47h2q25 47 86 89t137 42q69 0 106 -33t37 -97q0 -32 -7 -67l-66 -340q-9 -48 -28.5 -84t-40 -55t-47 -31t-45.5 -15t-39 -3l-40 3l12 59q8 -1 22 -1q18 0 35.5 4.5t39 16.5t38.5 40t25 68l62 321q8 37 8 67q0 83 -86 83q-84 0 -151 -64.5
t-84 -153.5l-45 -233h-68z" />
    <glyph glyph-name="Omacron" unicode="&#x14c;" horiz-adv-x="822" 
d="M58 292q0 111 60.5 209.5t158 156t203.5 57.5q136 0 221 -83t85 -213q0 -113 -61 -213.5t-159 -159t-203 -58.5q-136 0 -220.5 85t-84.5 219zM129 294q0 -106 65.5 -173.5t169.5 -67.5q133 0 241.5 108.5t108.5 254.5q0 103 -65.5 168.5t-169.5 65.5q-135 0 -242.5 -106
t-107.5 -250zM380 785l10 55h247l-10 -55h-247z" />
    <glyph glyph-name="omacron" unicode="&#x14d;" horiz-adv-x="623" 
d="M33 208q0 126 94 216.5t215 90.5q102 0 166 -61t64 -156q0 -127 -95 -218.5t-214 -91.5q-102 0 -166 61.5t-64 158.5zM103 210q0 -71 44.5 -116t116.5 -45q91 0 164.5 72.5t73.5 173.5q0 70 -45 114t-116 44q-92 0 -165 -71.5t-73 -171.5zM250 617l10 55h247l-10 -55
h-247z" />
    <glyph glyph-name="Obreve" unicode="&#x14e;" horiz-adv-x="822" 
d="M58 292q0 111 60.5 209.5t158 156t203.5 57.5q136 0 221 -83t85 -213q0 -113 -61 -213.5t-159 -159t-203 -58.5q-136 0 -220.5 85t-84.5 219zM129 294q0 -106 65.5 -173.5t169.5 -67.5q133 0 241.5 108.5t108.5 254.5q0 103 -65.5 168.5t-169.5 65.5q-135 0 -242.5 -106
t-107.5 -250zM499 749q-48 0 -78.5 30t-20.5 77l3 15h55l-3 -13q-6 -31 8.5 -46.5t40.5 -15.5t46 15.5t26 46.5l3 13h55l-3 -15q-9 -54 -45.5 -80.5t-86.5 -26.5z" />
    <glyph glyph-name="obreve" unicode="&#x14f;" horiz-adv-x="623" 
d="M33 208q0 126 94 216.5t215 90.5q102 0 166 -61t64 -156q0 -127 -95 -218.5t-214 -91.5q-102 0 -166 61.5t-64 158.5zM103 210q0 -71 44.5 -116t116.5 -45q91 0 164.5 72.5t73.5 173.5q0 70 -45 114t-116 44q-92 0 -165 -71.5t-73 -171.5zM369 581q-48 0 -78.5 30
t-20.5 77l3 15h55l-3 -13q-6 -31 8.5 -46.5t40.5 -15.5t46 15.5t26 46.5l3 13h55l-3 -15q-9 -54 -45.5 -80.5t-86.5 -26.5z" />
    <glyph glyph-name="Ohungarumlaut" unicode="&#x150;" horiz-adv-x="822" 
d="M58 292q0 111 60.5 209.5t158 156t203.5 57.5q136 0 221 -83t85 -213q0 -113 -61 -213.5t-159 -159t-203 -58.5q-136 0 -220.5 85t-84.5 219zM129 294q0 -106 65.5 -173.5t169.5 -67.5q133 0 241.5 108.5t108.5 254.5q0 103 -65.5 168.5t-169.5 65.5q-135 0 -242.5 -106
t-107.5 -250zM516 752l93 119h82l-110 -119h-65zM383 752l88 119h72l-91 -119h-69z" />
    <glyph glyph-name="ohungarumlaut" unicode="&#x151;" horiz-adv-x="623" 
d="M33 208q0 126 94 216.5t215 90.5q102 0 166 -61t64 -156q0 -127 -95 -218.5t-214 -91.5q-102 0 -166 61.5t-64 158.5zM103 210q0 -71 44.5 -116t116.5 -45q91 0 164.5 72.5t73.5 173.5q0 70 -45 114t-116 44q-92 0 -165 -71.5t-73 -171.5zM386 584l93 119h82l-110 -119
h-65zM253 584l88 119h72l-91 -119h-69z" />
    <glyph glyph-name="OE" unicode="&#x152;" horiz-adv-x="949" 
d="M59 287q0 113 58 211.5t155 156.5t206 58q25 0 70.5 -5t62.5 -5h347l-12 -62h-326l-50 -256h267l-13 -62h-267l-50 -261h344l-12 -62h-353q-14 0 -57 -5t-64 -5q-139 0 -222.5 83t-83.5 214zM130 284q0 -102 63.5 -166t172.5 -64q17 0 35 2t27 4l10 2l112 579
q-31 8 -69 8q-143 0 -247 -108t-104 -257z" />
    <glyph glyph-name="oe" unicode="&#x153;" horiz-adv-x="1013" 
d="M33 208q0 126 94 216.5t215 90.5q76 0 130.5 -37t77.5 -99h2q39 62 100.5 99t134.5 37q90 0 136.5 -50t46.5 -132q0 -17 -4 -38.5t-8 -34.5l-3 -12h-385q-4 -20 -4 -43q0 -69 42.5 -112.5t117.5 -43.5q40 0 81 15.5t62 30.5l21 15l22 -56q-9 -7 -25.5 -18t-66 -29.5
t-96.5 -18.5q-79 0 -134.5 36t-76.5 101h-2q-43 -63 -109.5 -100t-137.5 -37q-102 0 -166.5 61.5t-64.5 158.5zM583 304h314q3 17 3 35q0 58 -31 88.5t-83 30.5q-65 0 -121 -41t-82 -113zM103 210q0 -71 45 -116t116 -45q91 0 165 72.5t74 173.5q0 70 -45 114t-116 44
q-93 0 -166 -71.5t-73 -171.5z" />
    <glyph glyph-name="Racute" unicode="&#x154;" horiz-adv-x="626" 
d="M44 0l137 703h231q61 0 98 -19q83 -40 83 -142q0 -83 -49.5 -147t-128.5 -82v-2q5 -9 12 -29l100 -282h-74l-103 296h-179l-57 -296h-70zM183 358h163q74 0 125 49.5t51 127.5q0 50 -31.5 78t-86.5 28h-166zM355 752l93 119h84l-111 -119h-66z" />
    <glyph glyph-name="racute" unicode="&#x155;" horiz-adv-x="356" 
d="M25 0l97 503h67l-18 -89l-12 -44h2q28 59 76.5 98.5t107.5 39.5q18 0 30 -3l-13 -67q-14 2 -25 2q-75 0 -132.5 -79.5t-75.5 -172.5l-36 -188h-68zM235 584l93 119h84l-111 -119h-66z" />
    <glyph glyph-name="Rcommaaccent" unicode="&#x156;" horiz-adv-x="626" 
d="M44 0l137 703h231q61 0 98 -19q83 -40 83 -142q0 -83 -49.5 -147t-128.5 -82v-2q5 -9 12 -29l100 -282h-74l-103 296h-179l-57 -296h-70zM183 358h163q74 0 125 49.5t51 127.5q0 50 -31.5 78t-86.5 28h-166zM227 -63h66v-14q0 -55 -44 -125h-56q37 63 37 111q0 13 -3 28z
" />
    <glyph glyph-name="rcommaaccent" unicode="&#x157;" horiz-adv-x="356" 
d="M25 0l97 503h67l-18 -89l-12 -44h2q28 59 76.5 98.5t107.5 39.5q18 0 30 -3l-13 -67q-14 2 -25 2q-75 0 -132.5 -79.5t-75.5 -172.5l-36 -188h-68zM17 -63h66v-14q0 -55 -44 -125h-56q37 63 37 111q0 13 -3 28z" />
    <glyph glyph-name="Rcaron" unicode="&#x158;" horiz-adv-x="626" 
d="M44 0l137 703h231q61 0 98 -19q83 -40 83 -142q0 -83 -49.5 -147t-128.5 -82v-2q5 -9 12 -29l100 -282h-74l-103 296h-179l-57 -296h-70zM183 358h163q74 0 125 49.5t51 127.5q0 50 -31.5 78t-86.5 28h-166zM356 752l-60 119h63l38 -80h2l70 80h69l-107 -119h-75z" />
    <glyph glyph-name="rcaron" unicode="&#x159;" horiz-adv-x="356" 
d="M25 0l97 503h67l-18 -89l-12 -44h2q28 59 76.5 98.5t107.5 39.5q18 0 30 -3l-13 -67q-14 2 -25 2q-75 0 -132.5 -79.5t-75.5 -172.5l-36 -188h-68zM236 584l-60 119h63l38 -80h2l70 80h69l-107 -119h-75z" />
    <glyph glyph-name="Sacute" unicode="&#x15a;" horiz-adv-x="538" 
d="M10 78l46 49q2 -3 7 -8t21 -17.5t34.5 -22t48 -17.5t61.5 -8q66 0 116.5 40.5t50.5 103.5q0 39 -30 68.5t-72.5 50l-85.5 43t-73 60t-30 88.5q0 83 72 145t173 62q57 0 103.5 -17t65.5 -34l18 -17l-41 -53q-6 6 -17.5 15t-49 24.5t-78.5 15.5q-74 0 -124.5 -43.5
t-50.5 -97.5q0 -35 30 -62t72.5 -47.5t85.5 -44t73 -63t30 -93.5q0 -85 -68.5 -147.5t-169.5 -62.5q-42 0 -80 9.5t-62 22.5t-42 26t-26 22zM325 752l93 119h84l-111 -119h-66z" />
    <glyph glyph-name="sacute" unicode="&#x15b;" horiz-adv-x="442" 
d="M-3 61l41 45q6 -6 16.5 -15.5t47.5 -25.5t79 -16q46 0 82.5 24.5t36.5 67.5q0 25 -23.5 44t-57 33t-67 30.5t-57 45.5t-23.5 68q0 71 56 112t129 41q48 0 86.5 -13.5t53.5 -27.5l15 -14l-38 -48q-4 5 -12.5 12t-39 18.5t-66.5 11.5q-45 0 -81 -22.5t-36 -67.5
q0 -30 36 -53.5t78.5 -38.5t78.5 -48.5t36 -82.5q0 -66 -55 -109.5t-131 -43.5q-35 0 -67 7.5t-52.5 18t-36 21.5t-22.5 19zM246 584l93 119h84l-111 -119h-66z" />
    <glyph glyph-name="Scircumflex" unicode="&#x15c;" horiz-adv-x="538" 
d="M10 78l46 49q2 -3 7 -8t21 -17.5t34.5 -22t48 -17.5t61.5 -8q66 0 116.5 40.5t50.5 103.5q0 39 -30 68.5t-72.5 50l-85.5 43t-73 60t-30 88.5q0 83 72 145t173 62q57 0 103.5 -17t65.5 -34l18 -17l-41 -53q-6 6 -17.5 15t-49 24.5t-78.5 15.5q-74 0 -124.5 -43.5
t-50.5 -97.5q0 -35 30 -62t72.5 -47.5t85.5 -44t73 -63t30 -93.5q0 -85 -68.5 -147.5t-169.5 -62.5q-42 0 -80 9.5t-62 22.5t-42 26t-26 22zM235 752l107 119h75l60 -119h-63l-38 81h-2l-70 -81h-69z" />
    <glyph glyph-name="scircumflex" unicode="&#x15d;" horiz-adv-x="442" 
d="M-3 61l41 45q6 -6 16.5 -15.5t47.5 -25.5t79 -16q46 0 82.5 24.5t36.5 67.5q0 25 -23.5 44t-57 33t-67 30.5t-57 45.5t-23.5 68q0 71 56 112t129 41q48 0 86.5 -13.5t53.5 -27.5l15 -14l-38 -48q-4 5 -12.5 12t-39 18.5t-66.5 11.5q-45 0 -81 -22.5t-36 -67.5
q0 -30 36 -53.5t78.5 -38.5t78.5 -48.5t36 -82.5q0 -66 -55 -109.5t-131 -43.5q-35 0 -67 7.5t-52.5 18t-36 21.5t-22.5 19zM156 584l107 119h75l60 -119h-63l-38 81h-2l-70 -81h-69z" />
    <glyph glyph-name="Scedilla" unicode="&#x15e;" horiz-adv-x="538" 
d="M123 -153q17 -5 40 -5q58 0 58 39q0 29 -51 29l-15 -1l35 81q-55 6 -100 28t-62 41l-18 19l46 49q2 -3 7 -8t21 -17.5t34.5 -22t48 -17.5t61.5 -8q66 0 116.5 40.5t50.5 103.5q0 39 -30 68.5t-72.5 50l-85.5 43t-73 60t-30 88.5q0 83 72 145t173 62q57 0 103.5 -17
t65.5 -34l18 -17l-41 -53q-6 6 -17.5 15t-49 24.5t-78.5 15.5q-74 0 -124.5 -43.5t-50.5 -97.5q0 -35 30 -62t72.5 -47.5t85.5 -44t73 -63t30 -93.5q0 -84 -67 -146t-166 -64l-16 -43q24 -4 41 -21t17 -44q0 -42 -33 -63.5t-75 -21.5q-15 0 -28.5 1.5t-19.5 3.5l-6 1z" />
    <glyph glyph-name="scedilla" unicode="&#x15f;" horiz-adv-x="442" 
d="M72 -153q17 -5 40 -5q58 0 58 39q0 29 -51 29l-15 -1l35 82q-43 6 -78.5 23.5t-49.5 31.5l-14 15l41 45q6 -6 16.5 -15.5t47.5 -25.5t79 -16q46 0 82.5 24.5t36.5 67.5q0 25 -23.5 44t-57 33t-67 30.5t-57 45.5t-23.5 68q0 71 56 112t129 41q48 0 86.5 -13.5t53.5 -27.5
l15 -14l-38 -48q-4 5 -12.5 12t-39 18.5t-66.5 11.5q-45 0 -81 -22.5t-36 -67.5q0 -30 36 -53.5t78.5 -38.5t78.5 -48.5t36 -82.5q0 -66 -55 -109.5t-131 -43.5l-16 -43q24 -4 41 -21t17 -44q0 -42 -33 -63.5t-75 -21.5q-15 0 -28.5 1.5t-19.5 3.5l-6 1z" />
    <glyph glyph-name="Scaron" unicode="&#x160;" horiz-adv-x="538" 
d="M10 78l46 49q2 -3 7 -8t21 -17.5t34.5 -22t48 -17.5t61.5 -8q66 0 116.5 40.5t50.5 103.5q0 39 -30 68.5t-72.5 50l-85.5 43t-73 60t-30 88.5q0 83 72 145t173 62q57 0 103.5 -17t65.5 -34l18 -17l-41 -53q-6 6 -17.5 15t-49 24.5t-78.5 15.5q-74 0 -124.5 -43.5
t-50.5 -97.5q0 -35 30 -62t72.5 -47.5t85.5 -44t73 -63t30 -93.5q0 -85 -68.5 -147.5t-169.5 -62.5q-42 0 -80 9.5t-62 22.5t-42 26t-26 22zM325 752l-60 119h63l38 -80h2l70 80h69l-107 -119h-75z" />
    <glyph glyph-name="scaron" unicode="&#x161;" horiz-adv-x="442" 
d="M-3 61l41 45q6 -6 16.5 -15.5t47.5 -25.5t79 -16q46 0 82.5 24.5t36.5 67.5q0 25 -23.5 44t-57 33t-67 30.5t-57 45.5t-23.5 68q0 71 56 112t129 41q48 0 86.5 -13.5t53.5 -27.5l15 -14l-38 -48q-4 5 -12.5 12t-39 18.5t-66.5 11.5q-45 0 -81 -22.5t-36 -67.5
q0 -30 36 -53.5t78.5 -38.5t78.5 -48.5t36 -82.5q0 -66 -55 -109.5t-131 -43.5q-35 0 -67 7.5t-52.5 18t-36 21.5t-22.5 19zM246 584l-60 119h63l38 -80h2l70 80h69l-107 -119h-75z" />
    <glyph glyph-name="Tcommaaccent" unicode="&#x162;" horiz-adv-x="582" 
d="M196 0l125 641h-251l11 62h573l-11 -62h-253l-124 -641h-13l-21 -55q24 -4 41 -21t17 -44q0 -42 -33 -63.5t-75 -21.5q-15 0 -28.5 1.5t-19.5 3.5l-6 1l10 46q17 -5 40 -5q58 0 58 39q0 29 -51 29l-15 -1l39 91h-13z" />
    <glyph glyph-name="tcommaaccent" unicode="&#x163;" horiz-adv-x="334" 
d="M49 -153q17 -5 40 -5q58 0 58 39q0 29 -51 29l-15 -1l47 109q-53 34 -53 120q0 20 5 55l49 248h-66l11 58h67l28 143h67l-29 -143h127l-11 -58h-126l-48 -249q-5 -28 -5 -45q0 -90 86 -90l29 2l-12 -61q-12 -2 -26 -2q-31 0 -56 7l-22 -58q24 -4 41 -21t17 -44
q0 -42 -33 -63.5t-75 -21.5q-15 0 -28.5 1.5t-19.5 3.5l-6 1z" />
    <glyph glyph-name="Tcaron" unicode="&#x164;" horiz-adv-x="582" 
d="M196 0l125 641h-251l11 62h573l-11 -62h-253l-124 -641h-70zM342 752l-60 119h63l38 -80h2l70 80h69l-107 -119h-75z" />
    <glyph glyph-name="tcaron" unicode="&#x165;" horiz-adv-x="333" 
d="M74 138q0 20 5 55l49 248h-66l11 58h67l28 143h67l-29 -143h127l-11 -58h-126l-48 -249q-5 -28 -5 -45q0 -90 86 -90l29 2l-12 -61q-12 -2 -26 -2q-146 0 -146 142zM314 703h66v-14q0 -54 -44 -124h-56q37 63 37 110q0 13 -3 28z" />
    <glyph glyph-name="Tbar" unicode="&#x166;" horiz-adv-x="607" 
d="M109 324l11 57h161l51 260h-252l12 62h573l-11 -62h-253l-51 -260h166l-11 -57h-166l-63 -324h-69l63 324h-161z" />
    <glyph glyph-name="tbar" unicode="&#x167;" horiz-adv-x="356" 
d="M40 278l10 53h65l22 110h-66l11 58h67l28 143h67l-28 -143h126l-11 -58h-126l-22 -110h127l-10 -53h-127l-16 -86q-5 -28 -5 -45q0 -90 87 -90l28 2l-12 -61q-12 -2 -26 -2q-146 0 -146 142q0 24 6 55l16 85h-65z" />
    <glyph glyph-name="Utilde" unicode="&#x168;" horiz-adv-x="721" 
d="M76 192q0 27 6 57l89 454h69l-89 -456q-5 -24 -5 -47q0 -70 44 -108.5t123 -38.5q91 0 155 52.5t82 143.5l89 454h70l-92 -463q-23 -117 -105 -184.5t-200 -67.5q-107 0 -171.5 54.5t-64.5 149.5zM300 755q22 117 106 117q22 0 38.5 -11t25 -25t20.5 -25t26 -11
q38 0 51 69h54q-23 -117 -107 -117q-27 0 -45.5 18t-33 35.5t-31.5 17.5q-20 0 -32.5 -21t-17.5 -47h-54z" />
    <glyph glyph-name="utilde" unicode="&#x169;" horiz-adv-x="589" 
d="M46 118q0 27 8 67l61 318h68l-58 -299q-7 -36 -7 -69q0 -40 19.5 -61.5t68.5 -21.5q81 0 146 67t82 153l45 231h68l-98 -503h-67l14 72l13 47h-2q-26 -48 -84.5 -89.5t-135.5 -41.5q-62 0 -101.5 31.5t-39.5 98.5zM198 587q22 117 106 117q22 0 38.5 -11t25 -25t20.5 -25
t26 -11q38 0 51 69h54q-23 -117 -107 -117q-27 0 -45.5 18t-33 35.5t-31.5 17.5q-20 0 -32.5 -21t-17.5 -47h-54z" />
    <glyph glyph-name="Umacron" unicode="&#x16a;" horiz-adv-x="721" 
d="M76 192q0 27 6 57l89 454h69l-89 -456q-5 -24 -5 -47q0 -70 44 -108.5t123 -38.5q91 0 155 52.5t82 143.5l89 454h70l-92 -463q-23 -117 -105 -184.5t-200 -67.5q-107 0 -171.5 54.5t-64.5 149.5zM332 785l10 55h247l-10 -55h-247z" />
    <glyph glyph-name="umacron" unicode="&#x16b;" horiz-adv-x="589" 
d="M46 118q0 27 8 67l61 318h68l-58 -299q-7 -36 -7 -69q0 -40 19.5 -61.5t68.5 -21.5q81 0 146 67t82 153l45 231h68l-98 -503h-67l14 72l13 47h-2q-26 -48 -84.5 -89.5t-135.5 -41.5q-62 0 -101.5 31.5t-39.5 98.5zM230 617l10 55h247l-10 -55h-247z" />
    <glyph glyph-name="Ubreve" unicode="&#x16c;" horiz-adv-x="721" 
d="M76 192q0 27 6 57l89 454h69l-89 -456q-5 -24 -5 -47q0 -70 44 -108.5t123 -38.5q91 0 155 52.5t82 143.5l89 454h70l-92 -463q-23 -117 -105 -184.5t-200 -67.5q-107 0 -171.5 54.5t-64.5 149.5zM450 749q-48 0 -78.5 30t-20.5 77l3 15h55l-3 -13q-6 -31 8.5 -46.5
t40.5 -15.5t46 15.5t26 46.5l3 13h55l-3 -15q-9 -54 -45.5 -80.5t-86.5 -26.5z" />
    <glyph glyph-name="ubreve" unicode="&#x16d;" horiz-adv-x="589" 
d="M46 118q0 27 8 67l61 318h68l-58 -299q-7 -36 -7 -69q0 -40 19.5 -61.5t68.5 -21.5q81 0 146 67t82 153l45 231h68l-98 -503h-67l14 72l13 47h-2q-26 -48 -84.5 -89.5t-135.5 -41.5q-62 0 -101.5 31.5t-39.5 98.5zM349 581q-48 0 -78.5 30t-20.5 77l3 15h55l-3 -13
q-6 -31 8.5 -46.5t40.5 -15.5t46 15.5t26 46.5l3 13h55l-3 -15q-9 -54 -45.5 -80.5t-86.5 -26.5z" />
    <glyph glyph-name="Uring" unicode="&#x16e;" horiz-adv-x="721" 
d="M76 192q0 27 6 57l89 454h69l-89 -456q-5 -24 -5 -47q0 -70 44 -108.5t123 -38.5q91 0 155 52.5t82 143.5l89 454h70l-92 -463q-23 -117 -105 -184.5t-200 -67.5q-107 0 -171.5 54.5t-64.5 149.5zM452 741q-32 0 -50.5 16.5t-18.5 45.5q0 33 25.5 56.5t58.5 23.5
q32 0 50.5 -16.5t18.5 -46.5q0 -32 -26 -55.5t-58 -23.5zM453 779q17 0 28.5 12t11.5 29q0 11 -7.5 18.5t-19.5 7.5q-16 0 -28 -12t-12 -30q0 -25 27 -25z" />
    <glyph glyph-name="uring" unicode="&#x16f;" horiz-adv-x="589" 
d="M46 118q0 27 8 67l61 318h68l-58 -299q-7 -36 -7 -69q0 -40 19.5 -61.5t68.5 -21.5q81 0 146 67t82 153l45 231h68l-98 -503h-67l14 72l13 47h-2q-26 -48 -84.5 -89.5t-135.5 -41.5q-62 0 -101.5 31.5t-39.5 98.5zM351 573q-32 0 -50.5 16.5t-18.5 45.5q0 33 25.5 56.5
t58.5 23.5q32 0 50.5 -16.5t18.5 -46.5q0 -32 -26 -55.5t-58 -23.5zM352 611q17 0 28.5 12t11.5 29q0 11 -7.5 18.5t-19.5 7.5q-16 0 -28 -12t-12 -30q0 -25 27 -25z" />
    <glyph glyph-name="Uhungarumlaut" unicode="&#x170;" horiz-adv-x="721" 
d="M76 192q0 27 6 57l89 454h69l-89 -456q-5 -24 -5 -47q0 -70 44 -108.5t123 -38.5q91 0 155 52.5t82 143.5l89 454h70l-92 -463q-23 -117 -105 -184.5t-200 -67.5q-107 0 -171.5 54.5t-64.5 149.5zM467 752l93 119h82l-110 -119h-65zM334 752l88 119h72l-91 -119h-69z" />
    <glyph glyph-name="uhungarumlaut" unicode="&#x171;" horiz-adv-x="589" 
d="M46 118q0 27 8 67l61 318h68l-58 -299q-7 -36 -7 -69q0 -40 19.5 -61.5t68.5 -21.5q81 0 146 67t82 153l45 231h68l-98 -503h-67l14 72l13 47h-2q-26 -48 -84.5 -89.5t-135.5 -41.5q-62 0 -101.5 31.5t-39.5 98.5zM366 584l93 119h82l-110 -119h-65zM233 584l88 119h72
l-91 -119h-69z" />
    <glyph glyph-name="Uogonek" unicode="&#x172;" horiz-adv-x="722" 
d="M257 -129q0 60 73 118q-6 -1 -18 -1q-107 0 -171.5 54.5t-64.5 149.5q0 27 6 57l89 454h69l-89 -456q-5 -27 -5 -47q0 -70 44 -108.5t123 -38.5q91 0 155 52.5t82 143.5l89 454h70l-92 -463q-12 -62 -42.5 -109t-57.5 -68.5t-71 -48.5q-40 -24 -62.5 -39.5t-41.5 -38
t-19 -44.5q0 -16 13.5 -26.5t27.5 -12.5l13 -2l-26 -56q-4 0 -10 1t-22.5 6t-29 12t-22.5 22t-10 35z" />
    <glyph glyph-name="uogonek" unicode="&#x173;" horiz-adv-x="589" 
d="M289 -129q0 68 93 131l14 70l13 47h-2q-26 -48 -84.5 -89.5t-135.5 -41.5q-62 0 -101.5 31.5t-39.5 98.5q0 27 8 67l61 318h68l-58 -299q-7 -36 -7 -69q0 -40 19.5 -61.5t68.5 -21.5q81 0 146 67t82 153l45 231h68l-98 -503q-94 -63 -94 -108q0 -16 13.5 -26.5
t27.5 -12.5l13 -2l-26 -56q-4 0 -10 1t-22.5 6t-29 12t-22.5 22t-10 35z" />
    <glyph glyph-name="Wcircumflex" unicode="&#x174;" horiz-adv-x="932" 
d="M163 0l-48 703h71l31 -546l1 -75h2q16 39 33 75l262 546h69l35 -546l2 -75h2q15 40 30 75l243 546h76l-319 -703h-84l-34 495l-2 105h-2q-25 -59 -46 -104l-240 -496h-82zM435 752l107 119h75l60 -119h-63l-38 81h-2l-70 -81h-69z" />
    <glyph glyph-name="wcircumflex" unicode="&#x175;" horiz-adv-x="802" 
d="M128 0l-72 503h68l49 -377l4 -54h2l27 54l195 375h68l51 -375l5 -54h2q12 28 25 54l196 377h73l-267 -503h-74l-54 361l-5 54h-2q-13 -30 -26 -54l-191 -361h-74zM327 584l107 119h75l60 -119h-63l-38 81h-2l-70 -81h-69z" />
    <glyph glyph-name="Ycircumflex" unicode="&#x176;" horiz-adv-x="564" 
d="M184 0l60 302l-158 401h74l99 -255l28 -84h2q29 46 58 83l198 256h84l-317 -403l-59 -300h-69zM241 752l107 119h75l60 -119h-63l-38 81h-2l-70 -81h-69z" />
    <glyph glyph-name="ycircumflex" unicode="&#x177;" horiz-adv-x="499" 
d="M-56 -129q21 -20 56 -20q61 0 112 81l45 73l-114 498h71l78 -376l9 -53h1q14 28 28 52l218 377h77l-368 -610q-61 -103 -155 -103q-25 0 -48 7.5t-34 14.5l-10 8zM178 584l107 119h75l60 -119h-63l-38 81h-2l-70 -81h-69z" />
    <glyph glyph-name="Ydieresis" unicode="&#x178;" horiz-adv-x="564" 
d="M184 0l60 302l-158 401h74l99 -255l28 -84h2q29 46 58 83l198 256h84l-317 -403l-59 -300h-69zM417 785l17 86h62l-17 -86h-62zM266 785l17 86h61l-16 -86h-62z" />
    <glyph glyph-name="Zacute" unicode="&#x179;" horiz-adv-x="591" 
d="M-17 0l10 49l460 528l30.5 33l23.5 24l8 7v2q-16 -2 -51 -2h-337l13 62h478l-10 -49l-461 -528l-30.5 -33t-23.5 -23l-8 -8v-2q17 2 51 2h360l-12 -62h-501zM360 752l93 119h84l-111 -119h-66z" />
    <glyph glyph-name="zacute" unicode="&#x17a;" horiz-adv-x="505" 
d="M-16 0l8 44l345 353l48 46v2q-16 -2 -48 -2h-256l12 60h400l-9 -45l-346 -352l-49 -46v-2q17 2 50 2h277l-11 -60h-421zM272 584l93 119h84l-111 -119h-66z" />
    <glyph glyph-name="Zdotaccent" unicode="&#x17b;" horiz-adv-x="591" 
d="M-17 0l10 49l460 528l30.5 33l23.5 24l8 7v2q-16 -2 -51 -2h-337l13 62h478l-10 -49l-461 -528l-30.5 -33t-23.5 -23l-8 -8v-2q17 2 51 2h360l-12 -62h-501zM369 786l17 85h65l-16 -85h-66z" />
    <glyph glyph-name="zdotaccent" unicode="&#x17c;" horiz-adv-x="505" 
d="M-16 0l8 44l345 353l48 46v2q-16 -2 -48 -2h-256l12 60h400l-9 -45l-346 -352l-49 -46v-2q17 2 50 2h277l-11 -60h-421zM281 618l17 85h65l-16 -85h-66z" />
    <glyph glyph-name="Zcaron" unicode="&#x17d;" horiz-adv-x="591" 
d="M-17 0l10 49l460 528l30.5 33l23.5 24l8 7v2q-16 -2 -51 -2h-337l13 62h478l-10 -49l-461 -528l-30.5 -33t-23.5 -23l-8 -8v-2q17 2 51 2h360l-12 -62h-501zM361 752l-60 119h63l38 -80h2l70 80h69l-107 -119h-75z" />
    <glyph glyph-name="zcaron" unicode="&#x17e;" horiz-adv-x="505" 
d="M-16 0l8 44l345 353l48 46v2q-16 -2 -48 -2h-256l12 60h400l-9 -45l-346 -352l-49 -46v-2q17 2 50 2h277l-11 -60h-421zM272 584l-60 119h63l38 -80h2l70 80h69l-107 -119h-75z" />
    <glyph glyph-name="longs" unicode="&#x17f;" horiz-adv-x="259" 
d="M51 0l85 441h-63l11 58h63l5 24q11 58 37 98t58.5 57t57.5 23.5t50 6.5l38 -2l-13 -61q-9 2 -23 2q-18 0 -35.5 -4.5t-39 -16t-38.5 -39t-24 -66.5l-101 -521h-68z" />
    <glyph glyph-name="florin" unicode="&#x192;" horiz-adv-x="565" 
d="M-33 -40q29 -5 62 -5q18 0 35.5 4.5t40 16.5t42 39.5t30.5 67.5l79 281h-89l11 58h94l33 114q16 56 43.5 94.5t60.5 55.5t58.5 23t51.5 6q20 0 43 -2t36 -4l12 -2l-11 -59q-45 6 -80 6q-110 0 -148 -128l-30 -104h125l-11 -58h-130l-84 -294q-13 -45 -34.5 -78.5
t-43.5 -51.5t-49 -29t-46 -14t-39 -3q-18 0 -36.5 2t-28.5 4l-9 1z" />
    <glyph glyph-name="Scommaaccent" unicode="&#x218;" horiz-adv-x="538" 
d="M10 78l46 49q2 -3 7 -8t21 -17.5t34.5 -22t48 -17.5t61.5 -8q66 0 116.5 40.5t50.5 103.5q0 39 -30 68.5t-72.5 50l-85.5 43t-73 60t-30 88.5q0 83 72 145t173 62q57 0 103.5 -17t65.5 -34l18 -17l-41 -53q-6 6 -17.5 15t-49 24.5t-78.5 15.5q-74 0 -124.5 -43.5
t-50.5 -97.5q0 -35 30 -62t72.5 -47.5t85.5 -44t73 -63t30 -93.5q0 -85 -68.5 -147.5t-169.5 -62.5q-42 0 -80 9.5t-62 22.5t-42 26t-26 22zM167 -63h66v-14q0 -55 -44 -125h-56q37 63 37 111q0 13 -3 28z" />
    <glyph glyph-name="scommaaccent" unicode="&#x219;" horiz-adv-x="442" 
d="M-3 61l41 45q6 -6 16.5 -15.5t47.5 -25.5t79 -16q46 0 82.5 24.5t36.5 67.5q0 25 -23.5 44t-57 33t-67 30.5t-57 45.5t-23.5 68q0 71 56 112t129 41q48 0 86.5 -13.5t53.5 -27.5l15 -14l-38 -48q-4 5 -12.5 12t-39 18.5t-66.5 11.5q-45 0 -81 -22.5t-36 -67.5
q0 -30 36 -53.5t78.5 -38.5t78.5 -48.5t36 -82.5q0 -66 -55 -109.5t-131 -43.5q-35 0 -67 7.5t-52.5 18t-36 21.5t-22.5 19zM122 -63h66v-14q0 -55 -44 -125h-56q37 63 37 111q0 13 -3 28z" />
    <glyph glyph-name="uni021A" unicode="&#x21a;" horiz-adv-x="582" 
d="M196 0l125 641h-251l11 62h573l-11 -62h-253l-124 -641h-70zM187 -63h66v-14q0 -55 -44 -125h-56q37 63 37 111q0 13 -3 28z" />
    <glyph glyph-name="uni021B" unicode="&#x21b;" horiz-adv-x="333" 
d="M74 138q0 20 5 55l49 248h-66l11 58h67l28 143h67l-29 -143h127l-11 -58h-126l-48 -249q-5 -28 -5 -45q0 -90 86 -90l29 2l-12 -61q-12 -2 -26 -2q-146 0 -146 142zM113 -63h66v-14q0 -55 -44 -125h-56q37 63 37 111q0 13 -3 28z" />
    <glyph glyph-name="circumflex" unicode="&#x2c6;" horiz-adv-x="504" 
d="M61 752l107 119h75l60 -119h-63l-38 81h-2l-70 -81h-69z" />
    <glyph glyph-name="caron" unicode="&#x2c7;" horiz-adv-x="504" 
d="M151 752l-60 119h63l38 -80h2l70 80h69l-107 -119h-75z" />
    <glyph glyph-name="breve" unicode="&#x2d8;" horiz-adv-x="505" 
d="M188 749q-48 0 -78.5 30t-20.5 77l3 15h55l-3 -13q-6 -31 8.5 -46.5t40.5 -15.5t46 15.5t26 46.5l3 13h55l-3 -15q-9 -54 -45.5 -80.5t-86.5 -26.5z" />
    <glyph glyph-name="dotaccent" unicode="&#x2d9;" horiz-adv-x="505" 
d="M160 786l17 85h65l-16 -85h-66z" />
    <glyph glyph-name="ring" unicode="&#x2da;" horiz-adv-x="505" 
d="M189 741q-32 0 -50.5 16.5t-18.5 45.5q0 33 25.5 56.5t58.5 23.5q32 0 50.5 -16.5t18.5 -46.5q0 -32 -26 -55.5t-58 -23.5zM190 779q17 0 28.5 12t11.5 29q0 11 -7.5 18.5t-19.5 7.5q-16 0 -28 -12t-12 -30q0 -25 27 -25z" />
    <glyph glyph-name="ogonek" unicode="&#x2db;" horiz-adv-x="504" 
d="M114 -129q0 81 126 151l47 -14q-4 -3 -11.5 -7.5t-25.5 -18t-32 -26.5t-25.5 -31t-11.5 -33q0 -16 13.5 -26.5t26.5 -12.5l13 -2l-26 -56q-4 0 -10 1t-22.5 6t-29 12t-22.5 22t-10 35z" />
    <glyph glyph-name="tilde" unicode="&#x2dc;" horiz-adv-x="504" 
d="M36 755q22 117 106 117q22 0 38.5 -11t25 -25t20.5 -25t26 -11q38 0 51 69h54q-23 -117 -107 -117q-27 0 -45.5 18t-33 35.5t-31.5 17.5q-20 0 -32.5 -21t-17.5 -47h-54z" />
    <glyph glyph-name="hungarumlaut" unicode="&#x2dd;" horiz-adv-x="504" 
d="M177 752l93 119h82l-110 -119h-65zM44 752l88 119h72l-91 -119h-69z" />
    <glyph glyph-name="uni1E9E" unicode="&#x1e9e;" horiz-adv-x="670" 
d="M35 0l102 521q16 80 75.5 131t139.5 51h312l-9 -48l-200 -223l-32 -35v-2q77 -3 126 -42t49 -122q0 -70 -44 -131t-111 -85q-43 -15 -125 -15h-123l12 62h115q67 0 95 10q47 17 78.5 61.5t31.5 94.5q0 53 -33 81t-108 28h-61l10 49l172 196q17 20 31 34.5t20 19.5l5 5v2
q-6 -2 -42 -2h-168q-54 0 -95.5 -36t-51.5 -88l-102 -517h-69z" />
    <glyph glyph-name="thinspace" unicode="&#x2009;" horiz-adv-x="12" 
 />
    <glyph glyph-name="endash" unicode="&#x2013;" horiz-adv-x="704" 
d="M94 255l11 58h499l-10 -58h-500z" />
    <glyph glyph-name="emdash" unicode="&#x2014;" horiz-adv-x="904" 
d="M94 255l11 58h699l-10 -58h-700z" />
    <glyph glyph-name="quoteleft" unicode="&#x2018;" horiz-adv-x="215" 
d="M100 541l89 171h57l-71 -171h-75z" />
    <glyph glyph-name="quoteright" unicode="&#x2019;" horiz-adv-x="211" 
d="M103 541l72 171h74l-89 -171h-57z" />
    <glyph glyph-name="quotesinglbase" unicode="&#x201a;" horiz-adv-x="242" 
d="M-21 -90l71 172h75l-89 -172h-57z" />
    <glyph glyph-name="quotedblleft" unicode="&#x201c;" horiz-adv-x="334" 
d="M220 541l89 171h57l-72 -171h-74zM100 541l89 171h57l-71 -171h-75z" />
    <glyph glyph-name="quotedblright" unicode="&#x201d;" horiz-adv-x="331" 
d="M223 541l71 171h75l-89 -171h-57zM103 541l72 171h74l-89 -171h-57z" />
    <glyph glyph-name="quotedblbase" unicode="&#x201e;" horiz-adv-x="362" 
d="M99 -90l71 172h75l-89 -172h-57zM-21 -90l72 172h74l-89 -172h-57z" />
    <glyph glyph-name="dagger" unicode="&#x2020;" horiz-adv-x="393" 
d="M94 -50l96 495h-117l11 58h117l39 200h66l-38 -200h121l-11 -58h-122l-96 -495h-66z" />
    <glyph glyph-name="daggerdbl" unicode="&#x2021;" horiz-adv-x="429" 
d="M112 -50l44 229h-117l11 58h117l41 208h-117l11 58h117l39 200h66l-38 -200h121l-11 -58h-122l-41 -208h122l-12 -58h-121l-44 -229h-66z" />
    <glyph glyph-name="bullet" unicode="&#x2022;" horiz-adv-x="402" 
d="M199 148q-59 0 -101 42t-42 101t42 101t101 42t100.5 -42t41.5 -101t-41.5 -101t-100.5 -42z" />
    <glyph glyph-name="ellipsis" unicode="&#x2026;" horiz-adv-x="712" 
d="M495 0l16 83h80l-16 -83h-80zM260 0l16 83h80l-16 -83h-80zM25 0l16 83h80l-16 -83h-80z" />
    <glyph glyph-name="perthousand" unicode="&#x2030;" horiz-adv-x="1069" 
d="M232 437q-57 0 -90.5 33.5t-33.5 89.5q0 59 50 107t113 48q55 0 89 -34t34 -88q0 -61 -49.5 -108.5t-112.5 -47.5zM9 0l664 703h78l-666 -703h-76zM236 493q39 0 68.5 30t29.5 70q0 28 -18.5 47t-48.5 19q-39 0 -69 -30.5t-30 -69.5q0 -28 19 -47t49 -19zM700 111
q0 59 49.5 107t112.5 48q56 0 90 -34t34 -88q0 -61 -50 -108.5t-112 -47.5q-57 0 -90.5 33.5t-33.5 89.5zM362 111q0 59 50 107t113 48q56 0 89.5 -34t33.5 -88q0 -61 -49.5 -108.5t-112.5 -47.5q-56 0 -90 33.5t-34 89.5zM759 110q0 -29 19 -47.5t50 -18.5q39 0 68.5 29.5
t29.5 69.5q0 29 -19 48t-49 19q-38 0 -68.5 -30.5t-30.5 -69.5zM422 110q0 -29 19 -47.5t49 -18.5q39 0 68.5 29.5t29.5 69.5q0 29 -18.5 48t-48.5 19q-38 0 -68.5 -30.5t-30.5 -69.5z" />
    <glyph glyph-name="guilsinglleft" unicode="&#x2039;" horiz-adv-x="336" 
d="M173 77l-129 207l192 204h78l-199 -209l126 -202h-68z" />
    <glyph glyph-name="guilsinglright" unicode="&#x203a;" horiz-adv-x="335" 
d="M15 77l199 209l-126 202h68l129 -207l-192 -204h-78z" />
    <glyph glyph-name="fraction" unicode="&#x2044;" horiz-adv-x="158" 
d="M-182 0h-63l472 703h62z" />
    <glyph glyph-name="zerosuperior" unicode="&#x2070;" 
d="M141 413q-127 0 -127 142q0 36 6 75t20.5 82.5t36 77.5t56.5 56t78 22q128 0 128 -144q0 -45 -10.5 -95t-31.5 -100.5t-62 -83t-94 -32.5zM141 465q37 0 65.5 26.5t44 67.5t23.5 83t8 80q0 94 -71 94q-37 0 -66 -26.5t-44.5 -68t-23 -83.5t-7.5 -81q0 -92 71 -92z" />
    <glyph glyph-name="foursuperior" unicode="&#x2074;" 
d="M193 423l22 114h-213l7 38l266 283h58l-53 -271h65l-9 -50h-65l-23 -114h-55zM83 587h142l26 136q2 12 6.5 27.5t6.5 25.5l3 9h-2q-21 -27 -42 -49l-140 -147v-2z" />
    <glyph glyph-name="fivesuperior" unicode="&#x2075;" 
d="M148 413q-43 0 -77 17.5t-46 34.5l-12 17l41 33q3 -6 9 -14t30 -22t54 -14q45 0 81.5 33.5t36.5 79.5q0 34 -24 56t-61 22q-20 0 -41 -6t-31 -12l-11 -6l-32 13l67 213h219l-10 -50h-172l-24 -78l-13 -37h2q24 12 55 12q59 0 96 -35.5t37 -90.5q0 -65 -53 -115.5
t-121 -50.5z" />
    <glyph glyph-name="sixsuperior" unicode="&#x2076;" 
d="M157 413q-63 0 -98 42t-35 113q0 58 27 125.5t84 121t128 53.5q24 0 47 -5.5t34 -10.5l10 -6l-29 -44q-25 14 -63 14q-53 0 -96 -43.5t-66 -108.5h2q42 39 103 39q53 0 85.5 -31.5t32.5 -84.5q0 -78 -50 -126t-116 -48zM159 465q47 0 77 35.5t30 84.5q0 33 -20 52t-55 19
q-40 0 -75 -27.5t-35 -63.5q0 -40 20.5 -70t57.5 -30z" />
    <glyph glyph-name="sevensuperior" unicode="&#x2077;" 
d="M6 423l238 328l44 57v2q-19 -2 -50 -2h-171l9 50h290l-7 -37l-288 -398h-65z" />
    <glyph glyph-name="eightsuperior" unicode="&#x2078;" 
d="M155 413q-59 0 -99 30.5t-40 84.5q0 33 20.5 65t39 47.5t37.5 27.5q-36 31 -36 72q0 59 46.5 93.5t104.5 34.5q55 0 90 -26t35 -72q0 -68 -81 -137q49 -33 49 -81q0 -56 -50 -97.5t-116 -41.5zM265 550q0 13 -6 24.5t-19.5 21t-24 15.5t-31.5 16.5l-31 15.5
q-80 -45 -80 -111q0 -32 24.5 -50.5t58.5 -18.5q40 0 74.5 25.5t34.5 61.5zM132 743q0 -8 2.5 -15.5t5.5 -13t10.5 -12t12 -10t16 -10l16 -9t18.5 -9t18 -8.5q67 51 67 108q0 26 -21 40t-51 14q-35 0 -64.5 -20t-29.5 -55z" />
    <glyph glyph-name="ninesuperior" unicode="&#x2079;" 
d="M16 435l28 44q26 -14 64 -14q53 0 96 44t65 109h-2q-43 -40 -103 -40q-53 0 -85 32t-32 85q0 77 50 125t115 48q64 0 99 -42t35 -113q0 -42 -16.5 -92.5t-45.5 -97.5t-76 -78.5t-101 -31.5q-24 0 -47 5.5t-34 11.5zM179 625q40 0 75 28t35 64q0 39 -20.5 69.5t-57.5 30.5
q-47 0 -77.5 -36t-30.5 -84q0 -33 20.5 -52.5t55.5 -19.5z" />
    <glyph glyph-name="zeroinferior" unicode="&#x2080;" 
d="M46 -167q-127 0 -127 142q0 36 6 75t20.5 82.5t36 77.5t56.5 56t78 22q128 0 128 -144q0 -45 -10.5 -95t-31.5 -100.5t-62 -83t-94 -32.5zM46 -115q37 0 65.5 26.5t44 67.5t23.5 83t8 80q0 94 -71 94q-37 0 -66 -26.5t-44.5 -68t-23 -83.5t-7.5 -81q0 -92 71 -92z" />
    <glyph glyph-name="oneinferior" unicode="&#x2081;" 
d="M-64 -157l10 50h94l55 285l7 24h-2q-5 -8 -24 -24l-47 -38l-29 40l119 98h52l-75 -385h92l-9 -50h-243z" />
    <glyph glyph-name="twoinferior" unicode="&#x2082;" 
d="M-83 -157q1 55 30.5 97.5t70 69t81 49.5t68.5 52t28 64q0 27 -19 44.5t-50 17.5q-24 0 -48.5 -12.5t-37.5 -24.5l-13 -12l-32 38q6 7 18 17.5t47 27.5t69 17q57 0 90 -30t33 -79q0 -44 -24 -78.5t-60.5 -57.5t-73.5 -43.5t-68 -47.5t-40 -59h219l-10 -50h-278z" />
    <glyph glyph-name="threeinferior" unicode="&#x2083;" 
d="M44 -168q-41 0 -77 16.5t-51 33.5l-16 16l38 35q4 -5 12 -13.5t36 -22t59 -13.5q42 0 74.5 30t32.5 74q0 32 -25 50.5t-59 18.5h-33l-9 31l121 115l30 25v2q-19 -3 -37 -3h-152l9 50h263l-7 -36l-146 -139q38 -5 70 -32.5t32 -79.5q0 -62 -48 -110t-117 -48z" />
    <glyph glyph-name="fourinferior" unicode="&#x2084;" 
d="M93 -157l22 114h-213l7 38l266 283h58l-53 -271h65l-9 -50h-65l-23 -114h-55zM-17 7h142l26 136q2 12 6.5 27.5t6.5 25.5l3 9h-2q-21 -27 -42 -49l-140 -147v-2z" />
    <glyph glyph-name="fiveinferior" unicode="&#x2085;" 
d="M46 -167q-43 0 -77 17.5t-46 34.5l-12 17l41 33q3 -6 9 -14t30 -22t54 -14q45 0 81.5 33.5t36.5 79.5q0 34 -24 56t-61 22q-20 0 -41 -6t-31 -12l-11 -6l-32 13l67 213h219l-10 -50h-172l-24 -78l-13 -37h2q24 12 55 12q59 0 96 -35.5t37 -90.5q0 -65 -53 -115.5
t-121 -50.5z" />
    <glyph glyph-name="sixinferior" unicode="&#x2086;" 
d="M62 -167q-63 0 -98 42t-35 113q0 58 27 125.5t84 121t128 53.5q24 0 47 -5.5t33 -10.5l11 -6l-29 -44q-25 14 -63 14q-53 0 -96 -43.5t-66 -108.5h2q42 39 103 39q53 0 85.5 -31.5t32.5 -84.5q0 -78 -50 -126t-116 -48zM64 -115q47 0 77 35.5t30 84.5q0 33 -20 52t-55 19
q-40 0 -75 -27.5t-35 -63.5q0 -40 20.5 -70t57.5 -30z" />
    <glyph glyph-name="seveninferior" unicode="&#x2087;" 
d="M-84 -158l238 328l44 57v2q-19 -2 -50 -2h-171l9 50h290l-7 -37l-288 -398h-65z" />
    <glyph glyph-name="eightinferior" unicode="&#x2088;" 
d="M58 -166q-59 0 -99 30.5t-40 84.5q0 33 20.5 65t39 47.5t37.5 27.5q-36 31 -36 72q0 59 46.5 93.5t104.5 34.5q55 0 90 -26t35 -72q0 -68 -81 -137q49 -33 49 -81q0 -56 -50 -97.5t-116 -41.5zM168 -29q0 13 -6 24.5t-19.5 21t-24 15.5t-31.5 16.5l-31 15.5
q-80 -45 -80 -111q0 -32 24.5 -50.5t58.5 -18.5q40 0 74.5 25.5t34.5 61.5zM35 164q0 -8 2.5 -15.5t5.5 -13t10.5 -12t12 -10t16 -10l16 -9t18.5 -9t18 -8.5q67 51 67 108q0 26 -21 40t-51 14q-35 0 -64.5 -20t-29.5 -55z" />
    <glyph glyph-name="nineinferior" unicode="&#x2089;" 
d="M-87 -145l28 44q26 -14 64 -14q53 0 96 44t65 109h-2q-43 -40 -103 -40q-53 0 -85 32t-32 85q0 77 50 125t115 48q63 0 98.5 -42t35.5 -113q0 -42 -16.5 -92.5t-45.5 -97.5t-76 -78.5t-101 -31.5q-24 0 -47 5.5t-33 11.5zM76 45q40 0 75 28t35 64q0 39 -20.5 69.5
t-57.5 30.5q-47 0 -77.5 -36t-30.5 -84q0 -33 20.5 -52.5t55.5 -19.5z" />
    <glyph glyph-name="Euro" unicode="&#x20ac;" horiz-adv-x="586" 
d="M59 398l9 51h61q50 117 154.5 191.5t224.5 74.5q27 0 53 -3.5t39 -7.5l12 -3l-28 -62q-35 10 -77 10q-94 0 -176 -55.5t-125 -144.5h306l-20 -51h-307q-13 -45 -16 -81h292l-19 -51h-271q6 -93 63 -152.5t159 -59.5q22 0 45 3.5t35 6.5l12 4l3 -66q-43 -14 -98 -14
q-128 0 -208 77t-85 201h-64l9 51h55q3 41 15 81h-53z" />
    <glyph glyph-name="trademark" unicode="&#x2122;" horiz-adv-x="990" 
d="M496 265l35 438h52l115 -251l14 -41h2q5 22 14 41l115 251h52l34 -438h-55l-25 297l1 29h-2l-112 -244h-46l-112 244h-2l1 -29l-25 -297h-56zM246 265v386h-156v52h370v-52h-157v-386h-57z" />
    <glyph glyph-name="minus" unicode="&#x2212;" horiz-adv-x="606" 
d="M-8 255v58h506v-58h-506z" />
    <glyph glyph-name="infinity" unicode="&#x221e;" horiz-adv-x="499" 
d="M192 176q-71 0 -122 51t-51 122q0 72 50.5 122t122.5 50t122 -50t50 -122t-50 -122.5t-122 -50.5z" />
    <glyph glyph-name="approxequal" unicode="&#x2248;" horiz-adv-x="606" 
d="M33 321l-33 44q69 69 146 69q50 0 107.5 -35t90.5 -35q61 0 113 56l33 -44q-67 -69 -146 -69q-50 0 -107.5 35t-90.5 35q-57 0 -113 -56zM33 147l-33 44q69 69 146 69q50 0 107.5 -35t90.5 -35q59 0 113 56l33 -44q-67 -69 -146 -69q-50 0 -107.5 35t-90.5 35
q-57 0 -113 -56z" />
    <glyph glyph-name="notequal" unicode="&#x2260;" horiz-adv-x="606" 
d="M68 83l62 85h-118v58h159l86 116h-245v58h285l86 117l42 -30l-65 -87h118v-58h-158l-86 -116h244v-58h-284l-84 -114z" />
    <glyph glyph-name="lessequal" unicode="&#x2264;" horiz-adv-x="606" 
d="M11 259v50l452 202v-67l-367 -159v-2l367 -159v-67zM12 -104h451v-58h-451v58z" />
    <glyph glyph-name="greaterequal" unicode="&#x2265;" horiz-adv-x="606" 
d="M27 57v67l368 159v2l-368 159v67l452 -202v-50zM27 -104h451v-58h-451v58z" />
    <glyph glyph-name="commaaccent" horiz-adv-x="335" 
d="M67 -63h66v-14q0 -55 -44 -125h-56q37 63 37 111q0 13 -3 28z" />
    <glyph glyph-name="apple" horiz-adv-x="1130" 
d="M110 -5v152l-126 72v278l126 71v151l265 142l134 -71l132 71l265 -142v-151l124 -71v-278l-124 -72v-152l-265 -141l-132 71l-134 -71zM150 30l238 -126l121 66l118 -66l238 126v139l114 64v249l-114 66v136l-238 126l-118 -64l-121 64l-238 -126v-136l-114 -66v-249
l114 -64v-139zM184 64v121l-99 60v225l99 58v123l215 114l110 -59l107 59l214 -114v-123l100 -58v-225l-100 -60v-121l-214 -114l-107 58l-110 -58zM385 91h60v217h218v53h-218v179h176q16 0 21.5 -6t5.5 -21v-38h56v64q0 29 -12.5 42t-43.5 13h-325v-54h62v-449z" />
    <glyph glyph-name="zero.tnum" horiz-adv-x="565" 
d="M-33 215q0 58 10 121.5t34 132t59 122.5t91 89t124 35q198 0 198 -228q0 -58 -9.5 -121.5t-33.5 -132t-59 -122t-91 -88.5t-125 -35q-198 0 -198 227zM39 215q0 -162 128 -162q52 0 95 30.5t70 77.5t45.5 106.5t26 114.5t7.5 104q0 164 -128 164q-61 0 -110.5 -43
t-77 -110.5t-42 -140t-14.5 -141.5z" />
    <glyph glyph-name="one.tnum" horiz-adv-x="565" 
d="M-20 0l11 62h158l99 509l9 39h-2q-10 -14 -44 -42l-87 -72l-38 49l192 158h65l-126 -641h155l-12 -62h-380z" />
    <glyph glyph-name="two.tnum" horiz-adv-x="565" 
d="M-57 0q1 60 27.5 111t67 87.5t89 69l97 62t88.5 59.5t65 68.5t25 82.5q0 50 -32.5 79.5t-90.5 29.5q-29 0 -58 -10t-49.5 -23.5t-37 -27.5t-24.5 -24l-8 -10l-49 39q4 5 11 13t30.5 29t49 37.5t64.5 29.5t78 13q89 0 139.5 -46.5t50.5 -123.5q0 -69 -42 -126.5t-104 -98
t-125 -77.5t-113.5 -83.5t-61.5 -97.5h364l-12 -62h-439z" />
    <glyph glyph-name="three.tnum" horiz-adv-x="565" 
d="M-57 84l47 48q2 -3 6.5 -8.5t20 -19t34 -23.5t48.5 -18.5t63 -8.5q73 0 131.5 53t58.5 129q0 58 -42.5 89t-108.5 31h-52l-9 41l215 206l44 39v2q-20 -3 -57 -3h-259l12 62h411l-9 -46l-256 -243q23 -1 46 -6.5t48.5 -19t44.5 -32.5t31.5 -50t12.5 -69q0 -100 -78 -174.5
t-184 -74.5q-43 0 -81 10t-62 24t-42 28t-26 24z" />
    <glyph glyph-name="four.tnum" horiz-adv-x="565" 
d="M-63 195l9 45l429 463h81l-87 -447h100l-12 -61h-100l-38 -195h-69l38 195h-351zM38 256h262l57 294l16 66h-2l-6 -8q-6 -8 -17 -21.5t-21 -23.5z" />
    <glyph glyph-name="five.tnum" horiz-adv-x="565" 
d="M-48 88l50 45l5.5 -8.5t16.5 -19t28.5 -24t42.5 -19t58 -8.5q80 0 144 58t64 140q0 58 -42 95t-109 37q-34 0 -67.5 -9.5t-50.5 -18.5l-17 -10l-43 16l104 341h342l-12 -62h-279l-56 -178l-14 -40h2q46 25 106 25q93 0 150.5 -54.5t57.5 -139.5q0 -110 -84.5 -188
t-195.5 -78q-42 0 -78 10.5t-58 25t-37.5 29t-21.5 25.5z" />
    <glyph glyph-name="six.tnum" horiz-adv-x="565" 
d="M187 -12q-99 0 -156 69t-57 184q0 52 15.5 114t47.5 126t76.5 116t108.5 85t136 33q38 0 71.5 -7.5t48.5 -14.5l15 -7l-35 -58q-41 22 -99 22q-103 0 -180 -83.5t-110 -198.5h2q32 38 82 60t102 22q87 0 138 -50.5t51 -134.5q0 -106 -72 -191.5t-185 -85.5zM186 53
q79 0 133.5 61.5t54.5 148.5q0 58 -35 91.5t-98 33.5q-67 0 -131 -46.5t-64 -113.5q0 -69 37.5 -122t102.5 -53z" />
    <glyph glyph-name="seven.tnum" horiz-adv-x="565" 
d="M-11 0l397 576q12 17 24.5 33t19.5 24l7 8v2q-18 -2 -53 -2h-323l12 62h457l-9 -48l-454 -655h-78z" />
    <glyph glyph-name="eight.tnum" horiz-adv-x="565" 
d="M-44 174q0 46 21.5 88t53.5 71t51.5 43t33.5 21q-66 49 -66 119q0 78 66.5 138.5t172.5 60.5q92 0 143 -42t51 -115q0 -37 -16.5 -76t-42 -70t-41 -46.5t-29.5 -27.5q79 -51 79 -127q0 -93 -78.5 -158t-186.5 -65q-93 0 -152.5 50t-59.5 136zM360 210q0 22 -10.5 40.5
t-33 34.5t-41.5 26.5t-54 27t-52 25.5q-18 -10 -37 -23.5t-44.5 -37.5t-42 -57.5t-16.5 -69.5q0 -57 40.5 -90.5t99.5 -33.5q74 0 132.5 44.5t58.5 113.5zM122 516q0 -18 8 -34.5t18 -28t32 -25t35.5 -20l43 -20.5l41.5 -20q112 93 112 186q0 45 -34 71t-91 26
q-71 0 -118 -40t-47 -95z" />
    <glyph glyph-name="nine.tnum" horiz-adv-x="565" 
d="M-42 17l35 58q42 -22 100 -22q70 0 131 43t99 104.5t59 134.5h-2q-30 -36 -80 -59t-103 -23q-88 0 -139 50t-51 135q0 106 72.5 191.5t185.5 85.5q99 0 155.5 -69t56.5 -184q0 -52 -15.5 -114t-47.5 -126t-76.5 -116t-108.5 -85t-136 -33q-38 0 -71.5 7t-48.5 15z
M208 315q67 0 132.5 46.5t65.5 113.5q0 69 -38 122t-102 53q-79 0 -134 -61.5t-55 -148.5q0 -58 35 -91.5t96 -33.5z" />
    <glyph glyph-name="hyphen.case" horiz-adv-x="525" 
d="M122 318l11 62h284l-12 -62h-283z" />
    <glyph glyph-name="parenleft.case" horiz-adv-x="325" 
d="M143 -65q-49 126 -49 266q0 311 204 559h66q-207 -261 -207 -561q0 -141 47 -264h-61z" />
    <glyph glyph-name="parenright.case" horiz-adv-x="325" 
d="M46 -65h-66q207 261 207 561q0 141 -47 264h61q49 -126 49 -266q0 -311 -204 -559z" />
    <glyph glyph-name="bracketleft.case" horiz-adv-x="316" 
d="M53 -65l161 825h135l-11 -56h-73l-137 -713h72l-11 -56h-136z" />
    <glyph glyph-name="bracketright.case" horiz-adv-x="315" 
d="M-3 -9h72l138 713h-73l12 56h135l-160 -825h-135z" />
    <glyph glyph-name="braceleft.case" horiz-adv-x="373" 
d="M115 61q0 25 6 56l18 91q3 18 3 31q0 34 -16.5 55t-33.5 25l-16 4l12 62q3 0 9 1.5t22 8.5t29.5 18.5t27 34t19.5 52.5l17 85q35 176 181 176h17l-10 -56h-10q-13 0 -26 -3.5t-32 -15t-34.5 -38.5t-23.5 -68l-20 -101q-9 -46 -35.5 -77t-48.5 -39l-21 -8v-2q6 -3 16 -9.5
t26 -32.5t16 -59q0 -12 -3 -29l-21 -107q-5 -28 -5 -44q0 -35 15.5 -54.5t29.5 -23t29 -3.5h9l-11 -56q-6 -1 -16 -1q-15 0 -31.5 4.5t-38 16t-35.5 39t-14 67.5z" />
    <glyph glyph-name="braceright.case" horiz-adv-x="372" 
d="M2 -10q13 0 25.5 3.5t31.5 14t35 38t24 69.5l22 112q9 48 35.5 79.5t48.5 39.5l21 8v2q-6 3 -16 9.5t-26 31.5t-16 57q0 12 3 29l19 96q5 28 5 44q0 35 -15.5 54.5t-29.5 23t-29 3.5h-9l11 56q7 1 16 1q15 0 31.5 -4.5t38 -16t35.5 -39t14 -67.5q0 -24 -6 -56l-16 -80
q-3 -18 -3 -31q0 -34 16.5 -55t33.5 -25l16 -4l-12 -62q-3 0 -9 -1.5t-22 -8.5t-29.5 -18.5t-27 -34t-19.5 -52.5l-19 -96q-35 -177 -183 -177l-15 1l11 56h9z" />
    <glyph glyph-name="at.case" horiz-adv-x="819" 
d="M83 283q0 114 61 215t159.5 160.5t205.5 59.5q115 0 167 -43.5t52 -114.5q0 -13 -4 -39l-60 -307h71l-11 -56h-259q-79 0 -127 46.5t-48 117.5q0 85 69.5 152.5t161.5 67.5h139q2 12 2 19q0 43 -37.5 70.5t-112.5 27.5q-142 0 -250.5 -113t-108.5 -260q0 -106 66.5 -174
t177.5 -68l-11 -59q-131 0 -217 85t-86 213zM360 323q0 -47 31 -78t82 -31h124l53 275h-122q-66 0 -117 -50.5t-51 -115.5z" />
    <glyph glyph-name="guillemotleft.case" horiz-adv-x="557" 
d="M380 137l-128 207l206 204h79l-215 -209l127 -202h-69zM205 137l-129 207l192 204h78l-199 -209l126 -202h-68z" />
    <glyph glyph-name="guillemotright.case" horiz-adv-x="556" 
d="M228 137l200 209l-127 202h69l128 -207l-191 -204h-79zM38 137l214 209l-127 202h69l128 -207l-205 -204h-79z" />
    <glyph glyph-name="guilsinglleft.case" horiz-adv-x="374" 
d="M204 137l-128 207l192 204h78l-200 -209l127 -202h-69z" />
    <glyph glyph-name="guilsinglright.case" horiz-adv-x="373" 
d="M45 137l200 209l-127 202h69l128 -207l-192 -204h-78z" />
    <glyph glyph-name="endash.case" horiz-adv-x="741" 
d="M122 315l11 58h499l-10 -58h-500z" />
    <glyph glyph-name="emdash.case" horiz-adv-x="941" 
d="M122 315l11 58h699l-10 -58h-700z" />
    <glyph glyph-name="periodcentered.case" horiz-adv-x="306" 
d="M112 305l15 83h81l-16 -83h-80z" />
    <glyph glyph-name="questiondown.case" horiz-adv-x="503" 
d="M313 624l17 79h78l-16 -79h-79zM49 140q0 49 22.5 90t56 69t67.5 53.5t61.5 57.5t34.5 67l8 42h68l-9 -45q-10 -46 -38 -84t-60.5 -64l-64 -51.5t-52.5 -57.5t-21 -70q0 -41 30 -67.5t80 -26.5q32 0 64.5 10.5t49.5 20.5l16 11l29 -55q-8 -6 -23 -14.5t-58.5 -23
t-84.5 -14.5q-79 0 -127.5 41.5t-48.5 110.5z" />
    <glyph glyph-name="exclamdown.case" horiz-adv-x="337" 
d="M191 624l16 79h79l-17 -79h-78zM74 0l105 519h64l-99 -519h-70z" />
    <glyph glyph-name="bullet.case" horiz-adv-x="439" 
d="M228 209q-59 0 -101 42t-42 101t42 101t101 42t100.5 -42t41.5 -101t-41.5 -101t-100.5 -42z" />
    <glyph glyph-name="zero.p_osf" horiz-adv-x="586" 
d="M46 203q0 82 33.5 161.5t101.5 135t153 55.5q98 0 147 -61t49 -156q0 -82 -33 -161t-100.5 -134t-153.5 -55q-99 0 -148 60.5t-49 154.5zM117 206q0 -68 32.5 -112.5t96.5 -44.5q63 0 114 46t76 110.5t25 129.5q0 69 -32.5 113.5t-96.5 44.5q-63 0 -114 -46t-76 -111
t-25 -130z" />
    <glyph glyph-name="one.p_osf" horiz-adv-x="454" 
d="M9 0l12 60h155l69 355l11 53h-2q-18 -13 -44 -27l-114 -62l-24 52l202 112h63l-94 -483h139l-12 -60h-361z" />
    <glyph glyph-name="two.p_osf" horiz-adv-x="521" 
d="M-1 0l10 49q207 122 297.5 201t90.5 155q0 43 -32 65.5t-83 22.5q-40 0 -82.5 -20t-65.5 -40l-22 -20l-33 51q4 4 11 10t29 21.5t45.5 27.5t58 22t67.5 10q88 0 133 -40.5t45 -102.5q0 -92 -81.5 -172t-262.5 -181v-2q20 3 57 3h247l-11 -60h-418z" />
    <glyph glyph-name="three.p_osf" horiz-adv-x="511" 
d="M-44 -38l45 44q2 -3 6 -8t18 -17.5t30.5 -22t43.5 -17.5t57 -8q71 0 130.5 48t59.5 122q0 55 -43.5 83.5t-108.5 28.5h-53l-9 42l206 190l44 36v2q-20 -2 -57 -2h-227l11 60h384l-8 -42l-255 -230q31 -1 61 -10t59.5 -26.5t48 -51t18.5 -77.5q0 -99 -78.5 -166.5
t-184.5 -67.5q-40 0 -75 9.5t-56.5 22.5t-37.5 26t-23 22z" />
    <glyph glyph-name="four.p_osf" horiz-adv-x="578" 
d="M-19 37l8 45l418 461h76l-87 -445h108l-12 -61h-108l-29 -153h-67l29 153h-336zM80 98h249l57 291l16 66h-2q-24 -33 -47 -59l-273 -297v-1z" />
    <glyph glyph-name="five.p_osf" horiz-adv-x="528" 
d="M-24 -28l46 41q2 -3 5.5 -7.5t16 -17t27.5 -22t40.5 -17t54.5 -7.5q77 0 142 50t65 133q0 57 -41.5 89t-103.5 32q-32 0 -66 -9t-52 -17l-17 -9l-42 15l100 317h330l-11 -60h-270l-51 -162l-14 -37h2q49 21 107 21q86 0 143 -47t57 -129q0 -110 -84 -179t-194 -69
q-39 0 -73 9.5t-54.5 22.5t-35.5 26.5t-21 22.5z" />
    <glyph glyph-name="six.p_osf" horiz-adv-x="583" 
d="M57 222q0 65 25 140.5t70.5 145.5t120 116.5t161.5 46.5q38 0 71.5 -7t48.5 -14l15 -7l-35 -54q-39 20 -99 20q-103 0 -179 -79t-107 -189h2q33 37 82.5 58t101.5 21q88 0 140 -47.5t52 -126.5q0 -100 -75 -179t-184 -79q-99 0 -155 63.5t-56 170.5zM127 212
q0 -64 38.5 -113.5t104.5 -49.5q78 0 132 56.5t54 137.5q0 54 -36 86t-100 32q-71 0 -132 -45t-61 -104z" />
    <glyph glyph-name="seven.p_osf" horiz-adv-x="500" 
d="M1 -116l376 539l47 60v2q-17 -2 -52 -2h-309l12 60h443l-8 -45l-431 -614h-78z" />
    <glyph glyph-name="eight.p_osf" horiz-adv-x="579" 
d="M33 162q0 41 18.5 79t48 65.5t49.5 42t38 24.5q-65 46 -65 111q0 73 65 130.5t167 57.5q89 0 139.5 -39.5t50.5 -106.5q0 -35 -15.5 -72t-40 -66t-39.5 -44.5t-27 -25.5q76 -48 76 -120q0 -84 -77.5 -147t-180.5 -63q-89 0 -148 47t-59 127zM427 196q0 21 -10 38
t-32.5 32.5t-40 25t-53 25.5t-51.5 24q-18 -9 -36.5 -22t-43.5 -35t-41 -53t-16 -65q0 -53 40 -85t98 -32q67 0 126.5 43t59.5 104zM191 486q0 -17 8 -32.5t18.5 -26t31.5 -23t35 -19l42.5 -19.5l41.5 -19q17 12 37.5 31t45 60t24.5 81q0 43 -33.5 67t-89.5 24
q-69 0 -115 -36.5t-46 -87.5z" />
    <glyph glyph-name="nine.p_osf" horiz-adv-x="583" 
d="M38 -46q40 -21 99 -21q102 0 178 79.5t108 189.5h-2q-33 -37 -82.5 -58t-101.5 -21q-88 0 -139.5 47.5t-51.5 126.5q0 100 74.5 179t184.5 79q98 0 154 -63.5t56 -170.5q0 -65 -25 -140.5t-70.5 -145.5t-120 -116.5t-161.5 -46.5q-38 0 -71.5 7t-48.5 14l-14 7zM250 182
q71 0 133 45t62 104q0 64 -38.5 113t-104.5 49q-78 0 -132 -56t-54 -137q0 -54 35.5 -86t98.5 -32z" />
    <glyph glyph-name="zero.t_osf" horiz-adv-x="565" 
d="M-32 203q0 82 33.5 161.5t101.5 135t153 55.5q98 0 147 -61t49 -156q0 -82 -33 -161t-100.5 -134t-153.5 -55q-99 0 -148 60.5t-49 154.5zM39 206q0 -68 32.5 -112.5t96.5 -44.5q63 0 114 46t76 110.5t25 129.5q0 69 -32.5 113.5t-96.5 44.5q-63 0 -114 -46t-76 -111
t-25 -130z" />
    <glyph glyph-name="one.t_osf" horiz-adv-x="565" 
d="M2 0l12 60h155l69 355l11 53h-2q-18 -13 -44 -27l-114 -62l-24 52l202 112h63l-94 -483h139l-12 -60h-361z" />
    <glyph glyph-name="two.t_osf" horiz-adv-x="565" 
d="M-36 0l10 49q207 122 297.5 201t90.5 155q0 43 -32 65.5t-83 22.5q-40 0 -82.5 -20t-64.5 -40l-23 -20l-33 51q4 4 11 10t29 21.5t45.5 27.5t58 22t67.5 10q88 0 133 -40.5t45 -102.5q0 -92 -81.5 -172t-262.5 -181v-2q20 3 57 3h247l-11 -60h-418z" />
    <glyph glyph-name="three.t_osf" horiz-adv-x="565" 
d="M-69 -38l45 44q2 -3 6 -8t18 -17.5t30.5 -22t43.5 -17.5t57 -8q71 0 130.5 48t59.5 122q0 55 -43.5 83.5t-108.5 28.5h-53l-9 42l206 190l44 36v2q-20 -2 -57 -2h-227l11 60h384l-8 -42l-255 -230q31 -1 61 -10t59.5 -26.5t48 -51t18.5 -77.5q0 -99 -78.5 -166.5
t-184.5 -67.5q-40 0 -75 9.5t-56.5 22.5t-37.5 26t-22 22z" />
    <glyph glyph-name="four.t_osf" horiz-adv-x="565" 
d="M-81 37l8 45l418 461h76l-87 -445h108l-12 -61h-108l-29 -153h-67l29 153h-336zM18 98h249l57 291l16 66h-2q-24 -33 -47 -59l-273 -297v-1z" />
    <glyph glyph-name="five.t_osf" horiz-adv-x="565" 
d="M-65 -28l46 41q2 -3 5.5 -7.5t16 -17t27.5 -22t40.5 -17t54.5 -7.5q77 0 142 50t65 133q0 57 -41.5 89t-103.5 32q-32 0 -66 -9t-51 -17l-18 -9l-42 15l100 317h330l-11 -60h-270l-51 -162l-14 -37h2q49 21 107 21q86 0 143 -47t57 -129q0 -110 -84 -179t-194 -69
q-39 0 -73 9.5t-54.5 22.5t-35.5 26.5t-21 22.5z" />
    <glyph glyph-name="six.t_osf" horiz-adv-x="565" 
d="M-27 222q0 65 25 140.5t70.5 145.5t120 116.5t161.5 46.5q38 0 71.5 -7t48.5 -14l15 -7l-35 -54q-39 20 -99 20q-103 0 -179 -79t-107 -189h2q33 37 82.5 58t101.5 21q88 0 140 -47.5t52 -126.5q0 -100 -75 -179t-184 -79q-99 0 -155 63.5t-56 170.5zM43 212
q0 -64 38.5 -113.5t104.5 -49.5q78 0 132 56.5t54 137.5q0 54 -36 86t-100 32q-71 0 -132 -45t-61 -104z" />
    <glyph glyph-name="seven.t_osf" horiz-adv-x="565" 
d="M-29 -116l376 539l47 60v2q-17 -2 -52 -2h-309l12 60h443l-8 -45l-431 -614h-78z" />
    <glyph glyph-name="eight.t_osf" horiz-adv-x="565" 
d="M-45 162q0 41 18.5 79t48 65.5t49.5 42t38 24.5q-65 46 -65 111q0 73 65 130.5t167 57.5q89 0 139.5 -39.5t50.5 -106.5q0 -35 -15.5 -72t-40 -66t-39.5 -44.5t-27 -25.5q76 -48 76 -120q0 -84 -77.5 -147t-180.5 -63q-89 0 -148 47t-59 127zM349 196q0 21 -10 38
t-32.5 32.5t-40 25t-53 25.5t-51.5 24q-18 -9 -36.5 -22t-43.5 -35t-41 -53t-16 -65q0 -53 40 -85t98 -32q67 0 126.5 43t59.5 104zM113 486q0 -17 8 -32.5t18.5 -26t31.5 -23t35 -19l42.5 -19.5l41.5 -19q17 12 37.5 31t45 60t24.5 81q0 43 -33.5 67t-89.5 24
q-69 0 -115 -36.5t-46 -87.5z" />
    <glyph glyph-name="nine.t_osf" horiz-adv-x="565" 
d="M-30 -46q40 -21 99 -21q102 0 178 79.5t108 189.5h-2q-33 -37 -82.5 -58t-101.5 -21q-88 0 -139.5 47.5t-51.5 126.5q0 100 74.5 179t184.5 79q98 0 154 -63.5t56 -170.5q0 -65 -25 -140.5t-70.5 -145.5t-120 -116.5t-161.5 -46.5q-38 0 -71.5 7t-48.5 14l-14 7zM182 182
q71 0 133 45t62 104q0 64 -38.5 113t-104.5 49q-78 0 -132 -56t-54 -137q0 -54 35.5 -86t98.5 -32z" />
    <glyph glyph-name="dollar.osf" horiz-adv-x="519" 
d="M11 85l47 46q2 -3 6.5 -8.5t19.5 -19.5t32 -24.5t45 -19t57 -8.5q56 0 99.5 30t43.5 82q0 29 -26.5 51t-64.5 38.5t-76 35.5t-64.5 50.5t-26.5 74.5q0 71 55.5 118t139.5 54l18 86h56l-18 -87q39 -5 72.5 -20t47.5 -28l14 -13l-41 -49q-5 6 -14.5 14t-44 22t-73.5 14
q-55 0 -98 -27.5t-43 -81.5q0 -30 26.5 -52t64.5 -38t76 -34t64.5 -50t26.5 -76q0 -72 -58.5 -122.5t-144.5 -53.5l-18 -92h-56l19 95q-51 7 -91.5 30.5t-56.5 43.5z" />
    <glyph glyph-name="cent.osf" horiz-adv-x="564" 
d="M55 257q0 112 79 192t188 91l17 85h57l-17 -85q29 -3 55.5 -12t43.5 -20t30 -21.5t18 -17.5l6 -7l-40 -48q-5 7 -14.5 18t-45.5 29t-80 18q-89 0 -158 -63.5t-69 -154.5q0 -64 43 -103.5t113 -39.5q43 0 84 17t61 34l20 17l25 -56q-8 -8 -23.5 -20t-64 -32.5t-98.5 -22.5
l-16 -81h-57l16 84q-80 12 -126.5 65t-46.5 134z" />
    <glyph glyph-name="sterling.osf" horiz-adv-x="614" 
d="M3 0l10 60h64l36 185h-45l10 52h45l22 112q16 80 82 129t156 49q46 0 86 -13.5t57 -27.5l17 -13l-44 -48q-5 4 -14 10.5t-40.5 17.5t-65.5 11q-66 0 -111.5 -36t-55.5 -89l-21 -102h231l-10 -52h-230l-36 -185h338l-11 -60h-470z" />
    <glyph glyph-name="yen.osf" horiz-adv-x="601" 
d="M71 153l10 51h166l5 23l-22 53h-135l11 51h104l-102 246h74l84 -209l30 -83h2q29 46 57 83l162 209h83l-196 -246h103l-10 -51h-134l-42 -53l-5 -23h167l-10 -51h-166l-29 -153h-70l29 153h-166z" />
    <glyph glyph-name="florin.osf" horiz-adv-x="568" 
d="M-37 -62q29 -5 61 -5q18 0 35.5 4.5t40 16.5t42 40t30.5 68l72 256h-89l11 57h95l33 118q16 56 43.5 94.5t59.5 55.5t57.5 23t51.5 6q20 0 43 -2t36 -4l13 -2l-12 -60q-44 7 -79 7q-111 0 -148 -129l-31 -107h125l-11 -57h-130l-76 -269q-16 -56 -43.5 -94t-60 -54.5
t-57 -22.5t-50.5 -6q-19 0 -37.5 2t-27.5 4l-10 1z" />
    <glyph glyph-name="Euro.osf" horiz-adv-x="618" 
d="M64 320l9 49h69q41 95 128 156.5t210 61.5q27 0 53 -3.5t39 -7.5l12 -4l-27 -56q-37 10 -77 10q-92 0 -159.5 -43.5t-103.5 -113.5h279l-21 -49h-278q-12 -38 -13 -68h268l-21 -49h-245q11 -68 62.5 -110.5t140.5 -42.5q22 0 44.5 3t34.5 7l11 3l3 -61q-42 -14 -95 -14
q-122 0 -191.5 60.5t-79.5 154.5h-75l10 49h63q1 31 11 68h-61z" />
    <glyph glyph-name="zero.numerator" 
d="M122 258q-127 0 -127 142q0 36 6 75t20.5 82.5t36 77.5t56.5 56t78 22q128 0 128 -144q0 -45 -10.5 -95t-31.5 -100.5t-62 -83t-94 -32.5zM122 310q37 0 65.5 26.5t44 67.5t23.5 83t8 80q0 94 -71 94q-37 0 -66 -26.5t-44.5 -68t-23 -83.5t-7.5 -81q0 -92 71 -92z" />
    <glyph glyph-name="one.numerator" 
d="M-1 268l10 50h94l55 285l7 24h-2q-5 -8 -24 -24l-47 -38l-29 40l119 98h52l-75 -385h92l-9 -50h-243z" />
    <glyph glyph-name="two.numerator" 
d="M-18 268q1 55 30.5 97.5t70 69t81 49.5t68.5 52t28 64q0 27 -19 44.5t-50 17.5q-24 0 -48.5 -12t-37.5 -24l-13 -13l-32 38q6 7 18 17.5t47 27.5t69 17q57 0 90 -30t33 -79q0 -44 -24 -78.5t-60.5 -57.5t-73.5 -43.5t-68 -47.5t-40 -59h219l-10 -50h-278z" />
    <glyph glyph-name="three.numerator" 
d="M123 258q-41 0 -77 16.5t-52 33.5l-15 16l38 35q4 -5 12 -13.5t36 -22t59 -13.5q42 0 74.5 30t32.5 74q0 32 -25 50.5t-59 18.5h-33l-9 31l121 115l30 25v2q-19 -3 -37 -3h-152l9 50h263l-7 -36l-146 -139q38 -5 70 -32.5t32 -79.5q0 -62 -48 -110t-117 -48z" />
    <glyph glyph-name="four.numerator" 
d="M155 268l22 114h-213l7 38l266 283h58l-53 -271h65l-9 -50h-65l-23 -114h-55zM45 432h142l26 136q2 12 6.5 27.5t6.5 24.5l3 10h-2q-21 -27 -42 -49l-140 -147v-2z" />
    <glyph glyph-name="five.numerator" 
d="M115 258q-27 0 -51 7t-38.5 17t-25.5 20.5t-16 17.5l-4 7l41 33q3 -6 9 -14t30 -22t54 -14q45 0 81.5 33.5t36.5 79.5q0 34 -24 56t-61 22q-20 0 -41 -6t-32 -12l-10 -6l-32 13l67 213h219l-10 -50h-172l-24 -78l-13 -37h2q24 12 55 12q59 0 96 -35.5t37 -90.5
q0 -65 -53 -115.5t-121 -50.5z" />
    <glyph glyph-name="six.numerator" 
d="M126 258q-63 0 -98 42t-35 113q0 58 27 125.5t84 121t128 53.5q24 0 47 -5.5t33 -11.5l11 -5l-29 -44q-25 14 -63 14q-53 0 -96 -43.5t-66 -108.5h2q42 39 103 39q53 0 85.5 -31.5t32.5 -84.5q0 -78 -50 -126t-116 -48zM128 310q47 0 77 35.5t30 84.5q0 33 -20 52t-55 19
q-40 0 -75 -27.5t-35 -63.5q0 -40 20.5 -70t57.5 -30z" />
    <glyph glyph-name="seven.numerator" 
d="M-9 268l238 328l44 57v2q-19 -2 -50 -2h-171l9 50h290l-7 -37l-288 -398h-65z" />
    <glyph glyph-name="eight.numerator" 
d="M129 257q-59 0 -99 30.5t-40 84.5q0 33 20.5 65t39 47.5t37.5 27.5q-36 31 -36 72q0 59 46.5 93.5t104.5 34.5q55 0 90 -26t35 -72q0 -68 -81 -137q49 -33 49 -81q0 -56 -50 -97.5t-116 -41.5zM239 394q0 13 -6 24.5t-19.5 21t-24 15.5t-31.5 16.5l-31 15.5
q-80 -45 -80 -111q0 -32 24.5 -50.5t58.5 -18.5q40 0 74.5 25.5t34.5 61.5zM106 587q0 -8 2.5 -15.5t5.5 -13t10.5 -12t12 -10t16 -10l16 -9t18.5 -9t18 -8.5q67 51 67 108q0 26 -21 40t-51 14q-35 0 -64.5 -20t-29.5 -55z" />
    <glyph glyph-name="nine.numerator" 
d="M0 280l28 44q26 -14 64 -14q53 0 96 44t65 109h-2q-43 -40 -103 -40q-53 0 -85 32t-32 85q0 77 50 125t115 48q64 0 99 -42t35 -113q0 -42 -16.5 -92.5t-45.5 -97.5t-76 -78.5t-101 -31.5q-24 0 -47 5.5t-34 10.5zM163 470q40 0 75 28t35 64q0 40 -20.5 70t-57.5 30
q-47 0 -77.5 -36t-30.5 -84q0 -33 20.5 -52.5t55.5 -19.5z" />
    <glyph glyph-name="zero.denominator" 
d="M77 -10q-127 0 -127 142q0 36 6 75t20.5 82.5t36 77.5t56.5 56t78 22q128 0 128 -144q0 -45 -10.5 -95t-31.5 -100.5t-62 -83t-94 -32.5zM77 42q37 0 65.5 26.5t44 67.5t23.5 83t8 80q0 94 -71 94q-37 0 -66 -26.5t-44.5 -68t-23 -83.5t-7.5 -81q0 -92 71 -92z" />
    <glyph glyph-name="one.denominator" 
d="M-38 0l10 50h94l55 285l7 24h-2q-5 -8 -24 -24l-47 -38l-29 40l119 98h52l-75 -385h92l-9 -50h-243z" />
    <glyph glyph-name="two.denominator" 
d="M-65 0q1 55 30.5 97.5t70 69t81 49.5t68.5 52t28 64q0 27 -19 44.5t-50 17.5q-24 0 -48.5 -12t-37.5 -24l-13 -13l-32 38q6 7 18 17.5t47 27.5t69 17q57 0 90 -30t33 -79q0 -44 -24 -78.5t-60.5 -57.5t-73.5 -43.5t-68 -47.5t-40 -59h219l-10 -50h-278z" />
    <glyph glyph-name="three.denominator" 
d="M69 -10q-41 0 -77 16.5t-52 33.5l-15 16l38 35q4 -5 12 -13.5t36 -22t59 -13.5q42 0 74.5 30t32.5 74q0 32 -25 50.5t-59 18.5h-33l-9 31l121 115l30 25v2q-19 -3 -37 -3h-152l9 50h263l-7 -36l-146 -139q38 -5 70 -32.5t32 -79.5q0 -62 -48 -110t-117 -48z" />
    <glyph glyph-name="four.denominator" 
d="M117 0l22 114h-213l7 38l266 283h58l-53 -271h65l-9 -50h-65l-23 -114h-55zM7 164h142l26 136q2 12 6.5 27.5t6.5 24.5l3 10h-2q-21 -27 -42 -49l-140 -147v-2z" />
    <glyph glyph-name="five.denominator" 
d="M65 -10q-27 0 -51 7t-38.5 17t-25.5 20.5t-16 17.5l-4 7l41 33q3 -6 9 -14t30 -22t54 -14q45 0 81.5 33.5t36.5 79.5q0 34 -24 56t-61 22q-20 0 -41 -6t-32 -12l-10 -6l-32 13l67 213h219l-10 -50h-172l-24 -78l-13 -37h2q24 12 55 12q59 0 96 -35.5t37 -90.5
q0 -65 -53 -115.5t-121 -50.5z" />
    <glyph glyph-name="six.denominator" 
d="M86 -10q-63 0 -98 42t-35 113q0 58 27 125.5t84 121t128 53.5q24 0 47 -5.5t33 -11.5l11 -5l-29 -44q-25 14 -63 14q-53 0 -96 -43.5t-66 -108.5h2q42 39 103 39q53 0 85.5 -31.5t32.5 -84.5q0 -78 -50 -126t-116 -48zM88 42q47 0 77 35.5t30 84.5q0 33 -20 52t-55 19
q-40 0 -75 -27.5t-35 -63.5q0 -40 20.5 -70t57.5 -30z" />
    <glyph glyph-name="seven.denominator" 
d="M-57 0l238 328l44 57v2q-19 -2 -50 -2h-171l9 50h290l-7 -37l-288 -398h-65z" />
    <glyph glyph-name="eight.denominator" 
d="M79 -10q-59 0 -99 30.5t-40 84.5q0 33 20.5 65t39 47.5t37.5 27.5q-36 31 -36 72q0 59 46.5 93.5t104.5 34.5q55 0 90 -26t35 -72q0 -68 -81 -137q49 -33 49 -81q0 -56 -50 -97.5t-116 -41.5zM189 127q0 13 -6 24.5t-19.5 21t-24 15.5t-31.5 16.5l-31 15.5
q-80 -45 -80 -111q0 -32 24.5 -50.5t58.5 -18.5q40 0 74.5 25.5t34.5 61.5zM56 320q0 -8 2.5 -15.5t5.5 -13t10.5 -12t12 -10t16 -10l16 -9t18.5 -9t18 -8.5q67 51 67 108q0 26 -21 40t-51 14q-35 0 -64.5 -20t-29.5 -55z" />
    <glyph glyph-name="nine.denominator" 
d="M-57 12l28 44q26 -14 64 -14q53 0 96 44t65 109h-2q-43 -40 -103 -40q-53 0 -85 32t-32 85q0 77 50 125t115 48q63 0 98.5 -42t35.5 -113q0 -42 -16.5 -92.5t-45.5 -97.5t-76 -78.5t-101 -31.5q-24 0 -47 5.5t-33 10.5zM106 202q40 0 75 28t35 64q0 40 -20.5 70t-57.5 30
q-47 0 -77.5 -36t-30.5 -84q0 -33 20.5 -52.5t55.5 -19.5z" />
    </font>
</defs>
</svg>
